<svg width="30" height="30" viewBox="0 0 30 30" fill="none" xmlns="http://www.w3.org/2000/svg">
<path fill-rule="evenodd" clip-rule="evenodd" d="M22.9883 4.65501C22.7978 4.28721 22.3452 4.1435 21.9774 4.33402L15.6551 7.60899C15.2873 7.7995 15.1436 8.25211 15.3341 8.61991L15.4152 8.77656L12.6246 10.1292C12.6085 10.137 12.5927 10.1453 12.5773 10.1542L6.90213 13.4242C6.3855 13.7219 5.98583 14.1868 5.77652 14.7442L3.37403 21.143C2.98302 22.1844 3.5458 23.3107 4.57745 23.6747C5.20062 23.8946 5.87297 23.7934 6.39035 23.4473C6.79585 24.7802 8.03472 25.75 9.50012 25.75C10.608 25.75 11.5864 25.1956 12.1731 24.3492C12.3678 24.4944 12.5922 24.6065 12.839 24.6751C13.8828 24.9652 15.0004 24.3867 15.3129 23.3303L17.1564 17.0981C17.162 17.0791 17.1669 17.0598 17.171 17.0404L17.2726 16.5595C17.3224 16.3236 17.4569 16.107 17.659 15.9503L18.7338 15.1168C18.9581 15.3506 19.3177 15.4197 19.6199 15.2632L21.6636 14.2045L22.2543 15.3449C22.4448 15.7127 22.8974 15.8564 23.2652 15.6659L26.878 13.7945C27.0546 13.7031 27.1876 13.5451 27.2478 13.3556C27.308 13.166 27.2904 12.9602 27.1989 12.7836L22.9883 4.65501ZM16.1054 10.1089L18.0078 13.7816L16.7398 14.765C16.2626 15.1351 15.9296 15.6593 15.8049 16.2495L15.7095 16.7012L13.8745 22.9049C13.8045 23.1414 13.5309 23.3105 13.2408 23.2299C12.9591 23.1516 12.8308 22.8855 12.8978 22.659L14.4494 17.4136C14.7224 16.4908 14.3186 15.5185 13.495 15.0359L13.4045 14.9829C12.8915 14.6823 12.2794 14.5926 11.7011 14.7303L11.3884 14.8048L11.3821 14.8063L9.0063 15.3721L8.98627 15.3771C8.45962 15.5093 8.02154 15.8876 7.82775 16.4036L5.735 21.976C5.64694 22.2105 5.35888 22.3598 5.07654 22.2602C4.80427 22.1641 4.69474 21.8928 4.77831 21.6702L7.1808 15.2715C7.26523 15.0466 7.42937 14.8516 7.65101 14.7239L13.3029 11.4673L16.1054 10.1089ZM19.6416 13.5627L20.9736 12.8727L18.3886 7.88229L17.221 8.48712C17.2744 8.54409 17.3191 8.60956 17.3528 8.68159L19.6416 13.5627ZM22.0014 6.0109L19.7206 7.19235L23.2413 13.989L25.5221 12.8076L22.0014 6.0109ZM11.9963 20.4186L12.1459 19.9129C11.8782 19.9244 11.6093 19.8956 11.3487 19.8266C11.5904 19.994 11.8083 20.1934 11.9963 20.4186ZM12.3875 16.5711C12.615 16.5862 12.8297 16.643 13.0249 16.7335C12.9963 16.5738 12.8979 16.4246 12.7367 16.3301L12.6462 16.2771C12.4846 16.1824 12.2909 16.1469 12.1026 16.1786L12.0295 16.3562L12.3875 16.5711ZM10.344 16.5955L9.50436 16.7955C9.50742 16.821 9.51246 16.8504 9.52022 16.8832C9.53909 16.963 9.56993 17.0457 9.6081 17.1195L9.61829 17.1392C9.72257 17.3408 9.89383 17.5088 10.1106 17.6139L11.5262 18.3C11.84 18.4521 12.2112 18.4539 12.5267 18.3047L12.5661 18.2861C12.521 18.1537 12.3911 18.0564 12.2363 18.0683C12.0811 18.0803 11.926 18.0437 11.7925 17.9635L10.7046 17.3103C10.4514 17.1582 10.3169 16.877 10.344 16.5955ZM9.45636 18.9637C9.16361 18.8218 8.9015 18.6278 8.68307 18.3926L8.27072 19.4906C8.64997 19.3355 9.06506 19.25 9.50012 19.25C9.74232 19.25 9.97833 19.2765 10.2054 19.3267L9.45636 18.9637ZM7.75012 22.5C7.75012 21.5335 8.53362 20.75 9.50012 20.75C10.4666 20.75 11.2501 21.5335 11.2501 22.5C11.2501 23.4665 10.4666 24.25 9.50012 24.25C8.53362 24.25 7.75012 23.4665 7.75012 22.5Z" fill="#4F4E50"/>
</svg>
