<svg width="30" height="30" viewBox="0 0 30 30" fill="none" xmlns="http://www.w3.org/2000/svg">
<path fill-rule="evenodd" clip-rule="evenodd" d="M6.53131 6.53033C6.8242 6.23744 6.8242 5.76256 6.53131 5.46967C6.23841 5.17678 5.76354 5.17678 5.47065 5.46967L3.47065 7.46967C3.32999 7.61032 3.25098 7.80109 3.25098 8C3.25098 8.19891 3.32999 8.38968 3.47065 8.53033L5.47065 10.5303C5.76354 10.8232 6.23841 10.8232 6.53131 10.5303C6.8242 10.2374 6.8242 9.76256 6.53131 9.46967L5.81164 8.75L8.87627 8.75C7.25558 10.3381 6.25 12.5516 6.25 15C6.25 17.4484 7.25558 19.6619 8.87627 21.25H8C7.58579 21.25 7.25 21.5858 7.25 22C7.25 22.4142 7.58579 22.75 8 22.75H10.9342C12.149 23.3886 13.5323 23.75 15 23.75C16.4677 23.75 17.851 23.3886 19.0658 22.75H24.1893L23.4697 23.4697C23.1768 23.7626 23.1768 24.2374 23.4697 24.5303C23.7626 24.8232 24.2374 24.8232 24.5303 24.5303L26.5303 22.5303C26.671 22.3897 26.75 22.1989 26.75 22C26.75 21.8011 26.671 21.6103 26.5303 21.4697L24.5303 19.4697C24.2374 19.1768 23.7626 19.1768 23.4697 19.4697C23.1768 19.7626 23.1768 20.2374 23.4697 20.5303L24.1893 21.25H21.1237C22.7444 19.6619 23.75 17.4484 23.75 15C23.75 12.5516 22.7444 10.3381 21.1237 8.75H22.001C22.4152 8.75 22.751 8.41421 22.751 8C22.751 7.58579 22.4152 7.25 22.001 7.25L19.0658 7.25C17.851 6.61137 16.4677 6.25 15 6.25C13.5323 6.25 12.149 6.61137 10.9342 7.25L5.81164 7.25L6.53131 6.53033ZM15 7.75C10.9959 7.75 7.75 10.9959 7.75 15C7.75 19.0041 10.9959 22.25 15 22.25C19.0041 22.25 22.25 19.0041 22.25 15C22.25 10.9959 19.0041 7.75 15 7.75ZM12.1098 11C12.6175 11 13.045 11.3406 13.1766 11.8065C13.5015 11.4902 13.9 11.2559 14.348 11.1235C15.0742 10.9081 15.8386 10.9865 16.5013 11.3451L17.277 11.7659C17.6149 11.9489 17.7399 12.3706 17.557 12.7076C17.3741 13.0455 16.9512 13.1708 16.6133 12.9878L15.8368 12.5679C15.5017 12.3859 15.1134 12.3462 14.7438 12.4562C14.3742 12.5652 14.0708 12.8103 13.8888 13.1446C13.7077 13.4798 13.6676 13.8673 13.7768 14.2359C13.8869 14.6044 14.1315 14.9081 14.4666 15.0901L15.2431 15.51C15.581 15.6929 15.707 16.1156 15.5232 16.4526C15.3972 16.6851 15.1582 16.8166 14.9109 16.8166C14.7979 16.8166 14.685 16.7896 14.5795 16.7319L13.8039 16.312C13.1412 15.9534 12.6577 15.3559 12.4421 14.6314C12.2993 14.1503 12.2871 13.6519 12.3991 13.178C12.3067 13.2023 12.2097 13.2158 12.1098 13.2158C11.4966 13.2158 11 12.7202 11 12.1084C11 11.4965 11.4966 11 12.1098 11ZM15.5848 13.2726L16.3613 13.6925C17.4581 14.2863 18.0032 15.5046 17.7978 16.6679L17.7978 16.6679C17.8286 16.6661 17.8594 16.6643 17.8911 16.6643C18.5034 16.6643 19 17.1599 19 17.7718C19 18.3836 18.5034 18.8793 17.8911 18.8793C17.4609 18.8793 17.0875 18.6342 16.9036 18.2764C16.3809 18.745 15.7014 19 15.0079 19C14.5524 19 14.0914 18.8901 13.6629 18.6585L12.8873 18.2386C12.5494 18.0556 12.4243 17.6339 12.6073 17.296C12.7902 16.959 13.213 16.8337 13.5509 17.0167L14.3275 17.4375C15.0238 17.8141 15.8974 17.5546 16.2755 16.8599C16.6526 16.1642 16.3931 15.292 15.6968 14.9144L14.9211 14.4945C14.5832 14.3116 14.4572 13.8898 14.6411 13.5519C14.8241 13.214 15.2469 13.0888 15.5848 13.2726Z" fill="#4F4E50"/>
</svg>
