<svg width="30" height="30" viewBox="0 0 30 30" fill="none" xmlns="http://www.w3.org/2000/svg">
<path d="M15 9.75C14.8983 9.75 14.8013 9.72976 14.7129 9.69309C14.6245 9.65649 14.5416 9.60224 14.4697 9.53033L12.4697 7.53033C12.1768 7.23744 12.1768 6.76256 12.4697 6.46967C12.7626 6.17678 13.2374 6.17678 13.5303 6.46967L14.25 7.18934V4C14.25 3.58579 14.5858 3.25 15 3.25C15.4142 3.25 15.75 3.58579 15.75 4V7.18934L16.4697 6.46967C16.7626 6.17678 17.2374 6.17678 17.5303 6.46967C17.8232 6.76256 17.8232 7.23744 17.5303 7.53033L15.5303 9.53033C15.4584 9.60224 15.3755 9.65649 15.2871 9.69309C15.1987 9.72976 15.1017 9.75 15 9.75Z" fill="#4F4E50"/>
<path d="M12.4742 16.9626C12.5628 16.9744 12.6476 16.9996 12.7241 17.0446C12.9393 17.1712 12.9696 17.3811 12.7936 17.5524C12.7228 17.6213 12.6422 17.6801 12.5616 17.7389C12.5252 17.7654 12.4889 17.7919 12.4535 17.8194C12.3947 17.8649 12.335 17.9095 12.2753 17.9542C12.1757 18.0288 12.076 18.1034 11.9804 18.1821C11.85 18.2893 11.7502 18.4184 11.7199 18.5835C11.6865 18.7651 11.7638 18.9108 11.9039 19.0283C12.1156 19.2058 12.3769 19.2885 12.6526 19.3357C13.3132 19.4488 13.9617 19.4144 14.5933 19.192C14.856 19.0995 15.0684 18.9438 15.2538 18.7502C15.3727 18.6259 15.4999 18.5073 15.6332 18.3961C15.7609 18.2897 15.9251 18.2513 16.0918 18.2306C16.4042 18.1919 16.7016 18.2383 16.9767 18.3828C17.1019 18.4485 17.2072 18.5342 17.2385 18.6745C17.2517 18.7341 17.2428 18.7943 17.2024 18.8377C17.1443 18.8999 17.0884 18.9641 17.0325 19.0282C16.8727 19.2115 16.7129 19.3948 16.5024 19.5346C16.2392 19.7095 15.9481 19.8331 15.6436 19.931C15.17 20.0831 14.6816 20.1734 14.1839 20.2244C13.853 20.2583 13.5214 20.2768 13.1432 20.2765C12.9717 20.2794 12.7556 20.2674 12.5395 20.2542C12.4913 20.2512 12.4698 20.263 12.4571 20.311C12.4213 20.4474 12.3162 20.5382 12.1962 20.6146C11.9647 20.7621 11.7038 20.8455 11.4322 20.9023C10.8821 21.0174 10.3291 21.0364 9.77487 20.9292C9.58072 20.8917 9.3944 20.8323 9.23532 20.7161C9.05655 20.5855 9.03236 20.3967 9.17281 20.2304C9.31515 20.0619 9.50723 19.957 9.71265 19.8696C9.88717 19.7953 10.0692 19.7407 10.2557 19.6985C10.2594 19.6976 10.2635 19.6971 10.2677 19.6966L10.273 19.6959C10.2852 19.6942 10.2969 19.6913 10.2997 19.6788C10.3026 19.6653 10.2907 19.6581 10.2792 19.6512C10.2753 19.6489 10.2714 19.6466 10.2682 19.644C10.125 19.5317 10.0012 19.4057 9.93158 19.2409C9.83453 19.0112 9.86607 18.7885 9.97764 18.5714C10.1122 18.3096 10.3176 18.0979 10.5524 17.9123C10.82 17.7006 11.1051 17.5094 11.39 17.3182C11.4714 17.2637 11.5527 17.2091 11.6336 17.1541C11.8813 16.9857 12.1666 16.9222 12.4742 16.9626Z" fill="#4F4E50"/>
<path d="M17.8097 16.0476C18.1386 16.1278 18.4275 16.2735 18.6609 16.5049C18.7605 16.6037 18.8443 16.7129 18.8749 16.8491C18.9092 17.0015 18.8506 17.1221 18.7246 17.2192C18.6428 17.2823 18.5467 17.3189 18.4459 17.3469C18.4329 17.3505 18.4202 17.3545 18.4047 17.3593L18.3783 17.3676L18.4744 17.4166L18.4989 17.4291C18.5557 17.458 18.6104 17.4861 18.6646 17.515C18.9588 17.6719 19.2312 17.8554 19.4794 18.0707C19.6784 18.2434 19.8587 18.4278 19.9762 18.6578C20.0955 18.8912 20.124 19.1292 20.01 19.3729C19.9893 19.4171 19.9611 19.4571 19.933 19.497L19.9164 19.5206C19.8858 19.5647 19.8543 19.6083 19.8229 19.6519C19.7729 19.7212 19.7227 19.7909 19.676 19.8621C19.6093 19.9639 19.5141 20.0284 19.3969 20.0691C19.2562 20.118 19.1098 20.1417 18.9601 20.1476C18.6496 20.1598 18.3454 20.1307 18.0557 20.0192C17.9316 19.9714 17.8145 19.9123 17.7308 19.8105C17.6427 19.7035 17.6439 19.6078 17.7324 19.5023L18.0983 19.0659C18.2629 18.8689 18.2735 18.676 18.1268 18.4671C17.9864 18.2673 17.7899 18.1242 17.5663 18.0116C17.213 17.8335 16.8349 17.7348 16.4326 17.7112C16.0089 17.6865 15.6034 17.7462 15.2214 17.9208C15.0909 17.9804 14.9733 18.0581 14.8694 18.1541C14.6891 18.3209 14.5072 18.4864 14.3225 18.6492C14.1938 18.7628 14.0306 18.8159 13.8604 18.8486C13.5648 18.9057 13.2723 18.9014 12.988 18.7953C12.9286 18.7731 12.8757 18.7409 12.827 18.7014C12.6658 18.571 12.6973 18.4096 12.8187 18.2923C12.869 18.2437 12.9244 18.1996 12.9797 18.1554C13.0006 18.1388 13.0214 18.1221 13.042 18.1053C13.0962 18.0609 13.1501 18.0163 13.2041 17.9718C13.3432 17.857 13.4826 17.7419 13.6244 17.6301C14.027 17.3124 14.4919 17.1038 14.9993 16.972C15.3019 16.8934 15.6095 16.8463 15.9242 16.8306C16.1748 16.818 16.4223 16.8344 16.6701 16.8616C16.6739 16.8621 16.6778 16.8628 16.6817 16.8635L16.6874 16.8645C16.7009 16.8667 16.7142 16.8674 16.7242 16.8557C16.7321 16.8464 16.726 16.8366 16.7203 16.8275C16.7189 16.8253 16.7176 16.8231 16.7165 16.821C16.544 16.4948 16.7149 16.1773 17.0846 16.056C17.3254 15.9769 17.5676 15.9885 17.8097 16.0476Z" fill="#4F4E50"/>
<path fill-rule="evenodd" clip-rule="evenodd" d="M7.90798 13.75H5.75V16C5.75 16.4142 5.41421 16.75 5 16.75C4.58579 16.75 4.25 16.4142 4.25 16V13C4.25 12.5858 4.58579 12.25 5 12.25H25C25.4142 12.25 25.75 12.5858 25.75 13V16C25.75 16.4142 25.4142 16.75 25 16.75C24.5858 16.75 24.25 16.4142 24.25 16V13.75H22.092L26.7 25.7308C26.7887 25.9614 26.7581 26.2209 26.6182 26.4246C26.4783 26.6283 26.2471 26.75 26 26.75H4C3.75291 26.75 3.52166 26.6283 3.38177 26.4246C3.24188 26.2209 3.21129 25.9614 3.29999 25.7308L7.90798 13.75ZM9.5151 13.75L5.09203 25.25H24.908L20.4849 13.75H9.5151Z" fill="#4F4E50"/>
</svg>
