<svg width="30" height="30" viewBox="0 0 30 30" fill="none" xmlns="http://www.w3.org/2000/svg">
<path fill-rule="evenodd" clip-rule="evenodd" d="M22.9883 4.65495C22.7978 4.28715 22.3452 4.14344 21.9774 4.33395L15.6551 7.60892C15.2873 7.79944 15.1436 8.25205 15.3341 8.61985L15.4152 8.7765L12.6246 10.1291C12.6085 10.1369 12.5927 10.1453 12.5773 10.1542L6.90213 13.4242C6.3855 13.7219 5.98583 14.1867 5.77652 14.7442L3.37403 21.1429C2.98302 22.1843 3.5458 23.3107 4.57745 23.6747C5.20062 23.8945 5.87297 23.7933 6.39035 23.4473C6.79585 24.7801 8.03472 25.7499 9.50012 25.7499C10.608 25.7499 11.5864 25.1956 12.1731 24.3491C12.3678 24.4943 12.5922 24.6064 12.839 24.6751C13.8828 24.9652 15.0004 24.3867 15.3129 23.3303L17.1564 17.0981C17.162 17.079 17.1669 17.0597 17.171 17.0403L17.2726 16.5594C17.3224 16.3235 17.4569 16.107 17.659 15.9503L18.7338 15.1167C18.9581 15.3505 19.3177 15.4197 19.6199 15.2631L21.6636 14.2045L22.2543 15.3449C22.4448 15.7127 22.8974 15.8564 23.2652 15.6659L26.878 13.7945C27.0546 13.703 27.1876 13.5451 27.2478 13.3555C27.308 13.1659 27.2904 12.9602 27.1989 12.7836L22.9883 4.65495ZM16.1054 10.1089L18.0078 13.7815L16.7398 14.7649C16.2626 15.135 15.9296 15.6592 15.8049 16.2494L15.7095 16.7011L13.8745 22.9048C13.8045 23.1414 13.5309 23.3105 13.2408 23.2298C12.9591 23.1515 12.8308 22.8854 12.8978 22.659L14.4494 17.4135C14.7224 16.4907 14.3186 15.5184 13.495 15.0359L13.4045 14.9829C12.8915 14.6822 12.2794 14.5925 11.7011 14.7302L11.3884 14.8047L11.3821 14.8062L9.0063 15.3721L8.98627 15.377C8.45962 15.5092 8.02154 15.8876 7.82775 16.4036L5.735 21.976C5.64694 22.2104 5.35888 22.3597 5.07654 22.2601C4.80427 22.1641 4.69474 21.8928 4.77831 21.6702L7.1808 15.2714C7.26523 15.0465 7.42937 14.8516 7.65101 14.7239L13.3029 11.4672L16.1054 10.1089ZM19.6416 13.5626L20.9736 12.8726L18.3886 7.88223L17.221 8.48706C17.2744 8.54403 17.3191 8.6095 17.3528 8.68153L19.6416 13.5626ZM22.0014 6.01083L19.7206 7.19229L23.2413 13.989L25.5221 12.8075L22.0014 6.01083ZM11.9963 20.4185L12.1459 19.9129C11.8782 19.9243 11.6093 19.8955 11.3487 19.8265C11.5904 19.994 11.8083 20.1933 11.9963 20.4185ZM12.3875 16.5711C12.615 16.5861 12.8297 16.643 13.0249 16.7334C12.9963 16.5737 12.8979 16.4245 12.7367 16.3301L12.6462 16.2771C12.4846 16.1823 12.2909 16.1469 12.1026 16.1785L12.0295 16.3561L12.3875 16.5711ZM10.344 16.5955L9.50436 16.7954C9.50742 16.821 9.51246 16.8503 9.52022 16.8832C9.53909 16.963 9.56993 17.0456 9.6081 17.1194L9.61829 17.1391C9.72257 17.3408 9.89383 17.5087 10.1106 17.6138L11.5262 18.3C11.84 18.4521 12.2112 18.4539 12.5267 18.3047L12.5661 18.286C12.521 18.1537 12.3911 18.0563 12.2363 18.0683C12.0811 18.0802 11.926 18.0436 11.7925 17.9635L10.7046 17.3102C10.4514 17.1582 10.3169 16.8769 10.344 16.5955ZM9.45636 18.9636C9.16361 18.8217 8.9015 18.6277 8.68307 18.3925L8.27072 19.4905C8.64997 19.3354 9.06506 19.2499 9.50012 19.2499C9.74232 19.2499 9.97833 19.2764 10.2054 19.3267L9.45636 18.9636ZM7.75012 22.4999C7.75012 21.5334 8.53362 20.7499 9.50012 20.7499C10.4666 20.7499 11.2501 21.5334 11.2501 22.4999C11.2501 23.4664 10.4666 24.2499 9.50012 24.2499C8.53362 24.2499 7.75012 23.4664 7.75012 22.4999Z" fill="#4F4E50"/>
</svg>
