<svg width="30" height="30" viewBox="0 0 30 30" fill="none" xmlns="http://www.w3.org/2000/svg">
<path d="M6.14885 13.3022V9.82979H7.51056V13.3022H6.14885Z" fill="#4F4E50"/>
<path d="M6.14885 16.5702V20.0426H7.51056V16.5702H6.14885Z" fill="#4F4E50"/>
<path d="M7.86129 16.5702V20.0426H8.76909V16.5702H7.86129Z" fill="#4F4E50"/>
<path d="M9.63564 16.5702V20.0426H11.4512V16.5702H9.63564Z" fill="#4F4E50"/>
<path d="M11.4512 13.3022H9.63564V9.82979H11.4512V13.3022Z" fill="#4F4E50"/>
<path d="M12.3178 16.5702V20.0426H13.2256V16.5702H12.3178Z" fill="#4F4E50"/>
<path d="M13.2256 13.3022H12.3178V9.82979H13.2256V13.3022Z" fill="#4F4E50"/>
<path d="M14.0921 16.5702V20.0426H15.9077V16.5702H14.0921Z" fill="#4F4E50"/>
<path d="M15.9077 13.3022H14.0921V9.82979H15.9077V13.3022Z" fill="#4F4E50"/>
<path d="M16.7743 16.5702V20.0426H17.6821V16.5702H16.7743Z" fill="#4F4E50"/>
<path d="M17.6821 13.3022H16.7743V9.82979H17.6821V13.3022Z" fill="#4F4E50"/>
<path d="M18.5486 16.5702V20.0426H20.3642V16.5702H18.5486Z" fill="#4F4E50"/>
<path d="M20.3642 13.3022H18.5486V9.82979H20.3642V13.3022Z" fill="#4F4E50"/>
<path d="M21.2307 16.5702V20.0426H22.1385V16.5702H21.2307Z" fill="#4F4E50"/>
<path d="M22.1385 13.3022H21.2307V9.82979H22.1385V13.3022Z" fill="#4F4E50"/>
<path d="M22.4893 16.5702V20.0426H23.851V16.5702H22.4893Z" fill="#4F4E50"/>
<path d="M23.851 13.3022H22.4893V9.82979H23.851V13.3022Z" fill="#4F4E50"/>
<path d="M8.76909 13.3022H7.86129V9.82979H8.76909V13.3022Z" fill="#4F4E50"/>
<path fill-rule="evenodd" clip-rule="evenodd" d="M4.02128 14.9362C4.02128 14.5131 4.36421 14.1702 4.78723 14.1702H25.2128C25.6358 14.1702 25.9787 14.5131 25.9787 14.9362C25.9787 15.3592 25.6358 15.7021 25.2128 15.7021H4.78723C4.36421 15.7021 4.02128 15.3592 4.02128 14.9362Z" fill="#4F4E50"/>
<path fill-rule="evenodd" clip-rule="evenodd" d="M3 6.76596C3 6.34293 3.34293 6 3.76596 6H7.85106C8.27409 6 8.61702 6.34293 8.61702 6.76596C8.61702 7.18898 8.27409 7.53191 7.85106 7.53191H4.53191V10.8511C4.53191 11.2741 4.18898 11.617 3.76596 11.617C3.34293 11.617 3 11.2741 3 10.8511V6.76596Z" fill="#4F4E50"/>
<path fill-rule="evenodd" clip-rule="evenodd" d="M3.76596 18.2553C4.18898 18.2553 4.53191 18.5983 4.53191 19.0213V22.3404H7.85106C8.27409 22.3404 8.61702 22.6834 8.61702 23.1064C8.61702 23.5294 8.27409 23.8723 7.85106 23.8723H3.76596C3.34293 23.8723 3 23.5294 3 23.1064V19.0213C3 18.5983 3.34293 18.2553 3.76596 18.2553Z" fill="#4F4E50"/>
<path fill-rule="evenodd" clip-rule="evenodd" d="M21.383 6.76596C21.383 6.34293 21.7259 6 22.1489 6L26.234 6C26.4372 6 26.632 6.0807 26.7757 6.22434C26.9193 6.36799 27 6.56281 27 6.76596V10.8511C27 11.2741 26.6571 11.617 26.234 11.617C25.811 11.617 25.4681 11.2741 25.4681 10.8511V7.53192L22.1489 7.53191C21.7259 7.53191 21.383 7.18898 21.383 6.76596Z" fill="#4F4E50"/>
<path fill-rule="evenodd" clip-rule="evenodd" d="M26.234 18.2553C26.6571 18.2553 27 18.5982 27 19.0213V23.1064C27 23.3095 26.9193 23.5044 26.7757 23.648C26.632 23.7916 26.4372 23.8723 26.234 23.8723H22.1489C21.7259 23.8723 21.383 23.5294 21.383 23.1064C21.383 22.6834 21.7259 22.3404 22.1489 22.3404H25.4681V19.0213C25.4681 18.5983 25.811 18.2553 26.234 18.2553Z" fill="#4F4E50"/>
</svg>
