<svg width="48" height="48" viewBox="0 0 48 48" fill="none" xmlns="http://www.w3.org/2000/svg">
<path opacity="0.3" d="M1.09783 27.8556C1.09783 27.8556 -7.85849 6.74187 25.3921 4.85835C58.6426 2.97483 50.3362 36.9608 31.5841 42.031C14.7193 46.591 4.71511 37.1739 1.09447 27.8556" fill="#00B7D2"/>
<path d="M32.6882 22.6079C32.6865 22.6032 32.6835 22.5992 32.6794 22.5964C32.6754 22.5936 32.6706 22.592 32.6657 22.592H15.354C15.3491 22.5921 15.3444 22.5935 15.3404 22.5963C15.3363 22.599 15.3332 22.6029 15.3314 22.6074L8.14102 42.0858C8.08741 42.2309 8.06967 42.3868 8.08931 42.5403C8.10896 42.6938 8.1654 42.8402 8.25383 42.9672C8.34227 43.0941 8.46007 43.1978 8.59722 43.2694C8.73436 43.341 8.88678 43.3784 9.0415 43.3784H38.9887C39.1433 43.3782 39.2955 43.3407 39.4325 43.2691C39.5694 43.1974 39.6871 43.0938 39.7754 42.9669C39.8637 42.84 39.9201 42.6937 39.9397 42.5404C39.9594 42.3871 39.9417 42.2313 39.8882 42.0863L32.6882 22.6079ZM28.1599 31.5661L27.3751 32.4872C26.0853 33.7885 22.9135 34.436 19.8751 34.1917L19.8607 34.3026C19.6946 35.0298 18.161 35.6197 16.4349 35.6197C14.7089 35.6197 13.6245 35.0298 14.0129 34.3026C14.2855 33.7919 15.1365 33.3493 16.1321 33.1309C15.2916 32.5108 15.1241 31.7044 15.5777 30.8807C15.8753 30.3402 16.398 29.793 17.1209 29.2852L18.3506 28.364C18.8522 27.9628 19.6509 27.8144 20.1717 28.0319C20.7122 28.2493 20.8121 28.7519 20.3575 29.1517L19.2377 30.0733C18.1423 30.8999 18.3401 31.9372 19.8343 32.385C21.414 32.8333 23.5529 32.5256 24.4457 31.6991L25.3399 30.778C25.6961 30.3767 26.5581 30.2279 27.3031 30.4458C28.0682 30.6632 28.4681 31.1658 28.1599 31.5661ZM33.0669 32.6533L32.4641 33.5744C32.1679 33.9752 31.1273 34.124 30.1764 33.9066C29.2452 33.6892 28.7993 33.1866 29.1425 32.7863L29.8562 31.8652C30.1313 31.4672 30.0511 31.0064 29.6585 30.5692C29.2783 30.1304 28.6644 29.77 27.9343 29.554C27.2281 29.3381 26.4808 29.2927 25.7537 29.4215C25.0337 29.5516 24.4375 29.8424 24.065 30.2404L23.1271 31.1615C22.685 31.5628 21.7077 31.7116 20.981 31.4941C20.4924 31.3444 20.2697 31.0621 20.3431 30.7669C20.3762 30.6335 20.4669 30.4991 20.6172 30.3733L21.6655 29.4522C22.4748 28.6664 23.6143 28.0928 24.8945 27.837C25.7278 27.6683 26.5846 27.651 27.4241 27.7861C27.3546 27.6808 27.3032 27.5646 27.2719 27.4424C27.0929 26.7148 27.6986 26.1253 28.6241 26.1253C29.5495 26.1253 30.6247 26.7148 31.0241 27.4424C31.3562 28.0448 31.0073 28.5527 30.2177 28.7092C30.9933 29.0932 31.6889 29.5674 32.237 30.1012C33.1682 30.9599 33.497 31.8671 33.0669 32.6533Z" fill="white"/>
<path d="M35.0404 22.4609H36.7919L38.5976 26.9192C38.7153 27.2095 38.9169 27.4581 39.1767 27.6332C39.4365 27.8082 39.7426 27.9017 40.0559 27.9017C40.2057 27.9018 40.3541 27.8723 40.4925 27.815C40.6309 27.7577 40.7567 27.6736 40.8626 27.5677C40.9686 27.4617 41.0526 27.3359 41.1098 27.1974C41.1671 27.059 41.1965 26.9106 41.1964 26.7608V21.4366C41.1965 21.2867 41.1671 21.1383 41.1098 20.9998C41.0525 20.8614 40.9684 20.7355 40.8625 20.6296C40.7565 20.5236 40.6307 20.4395 40.4922 20.3822C40.3537 20.325 40.2053 20.2955 40.0554 20.2957H7.94341C7.79366 20.2957 7.64539 20.3252 7.50707 20.3825C7.36875 20.4399 7.2431 20.524 7.13731 20.63C7.03151 20.7359 6.94765 20.8617 6.89052 21.0001C6.83339 21.1386 6.80412 21.2869 6.80437 21.4366V26.7608C6.80424 26.9105 6.8336 27.0587 6.89078 27.1971C6.94795 27.3355 7.03182 27.4612 7.13759 27.5672C7.24336 27.6731 7.36896 27.7572 7.50722 27.8146C7.64548 27.872 7.7937 27.9016 7.94341 27.9017C8.25667 27.9017 8.5628 27.8082 8.82259 27.6332C9.08238 27.4581 9.28401 27.2095 9.40165 26.9192L11.2069 22.4609H12.9604L4.04437 43.5867C3.95202 43.8056 3.91528 44.044 3.93742 44.2805C3.95955 44.5171 4.03988 44.7445 4.17123 44.9425C4.30259 45.1405 4.48089 45.3029 4.69024 45.4152C4.89959 45.5276 5.13349 45.5864 5.37109 45.5864H42.6296C42.8672 45.5864 43.1011 45.5276 43.3105 45.4152C43.5198 45.3029 43.6981 45.1405 43.8295 44.9425C43.9609 44.7445 44.0412 44.5171 44.0633 44.2805C44.0854 44.044 44.0487 43.8056 43.9564 43.5867L35.0404 22.4609ZM38.9855 43.3793H9.03829C8.88357 43.3793 8.73115 43.3419 8.59401 43.2703C8.45686 43.1987 8.33906 43.095 8.25062 42.9681C8.16219 42.8411 8.10575 42.6947 8.0861 42.5412C8.06646 42.3878 8.0842 42.2318 8.13781 42.0867L15.3301 22.6078C15.3319 22.6033 15.3351 22.5994 15.3391 22.5967C15.3431 22.594 15.3478 22.5925 15.3527 22.5925H32.6644C32.6693 22.5925 32.6741 22.594 32.6781 22.5968C32.6822 22.5996 32.6852 22.6037 32.6869 22.6083L39.8884 42.0862C39.9421 42.2314 39.9599 42.3874 39.9403 42.5409C39.9207 42.6944 39.8643 42.8409 39.7758 42.9679C39.6874 43.0949 39.5695 43.1987 39.4323 43.2703C39.2951 43.342 39.1427 43.3794 38.9879 43.3793" fill="#00B7D2"/>
<path d="M24.151 17.5415C24.2218 17.6149 24.3067 17.6732 24.4006 17.713C24.4945 17.7529 24.5955 17.7734 24.6974 17.7734C24.7994 17.7734 24.9004 17.7529 24.9943 17.713C25.0882 17.6732 25.1731 17.6149 25.2439 17.5415L31.0275 10.8733C31.2425 10.6257 31.1715 10.281 30.87 10.1053C30.5686 9.92967 30.15 9.98679 29.934 10.2345L25.4143 15.4453V2.96535C25.4143 2.66055 25.1143 2.41431 24.7423 2.41431C24.3703 2.41431 24.0703 2.66055 24.0703 2.96535V15.5519L19.458 10.234C19.243 9.98631 18.8234 9.92823 18.522 10.1049C18.3386 10.2124 18.2402 10.3813 18.2402 10.5537C18.2416 10.6719 18.286 10.7855 18.365 10.8733L24.151 17.5415Z" fill="#00B7D2"/>
<path d="M27.3032 30.4459C26.5582 30.228 25.6961 30.3768 25.34 30.7781L24.4457 31.6992C23.5529 32.5258 21.414 32.8335 19.8344 32.3851C18.3401 31.9373 18.1424 30.9 19.2377 30.0735L20.3576 29.1519C20.8121 28.7511 20.7123 28.2495 20.1718 28.032C19.651 27.8146 18.8523 27.9629 18.3507 28.3642L17.1209 29.2853C16.398 29.7931 15.8753 30.3413 15.5777 30.8808C15.1246 31.7045 15.2897 32.5128 16.1321 33.1311C15.1366 33.3495 14.2856 33.792 14.0129 34.3027C13.6246 35.0299 14.7084 35.6199 16.435 35.6199C18.1616 35.6199 19.6947 35.0299 19.8608 34.3027L19.8752 34.1919C22.9136 34.4362 26.0854 33.7887 27.3752 32.4874L28.16 31.5663C28.4681 31.165 28.0683 30.6634 27.3032 30.4459Z" fill="#00B7D2"/>
<path d="M32.2372 30.0958C31.6891 29.5678 30.9935 29.0926 30.2179 28.7081C31.0075 28.5516 31.3564 28.0438 31.0243 27.4414C30.623 26.7137 29.5478 26.1243 28.6243 26.1243C27.7007 26.1243 27.0931 26.7137 27.2721 27.4414C27.3034 27.5636 27.3548 27.6797 27.4243 27.7851C26.5849 27.65 25.728 27.6672 24.8947 27.8359C23.6145 28.0918 22.475 28.6649 21.6657 29.4511L20.6174 30.3723C20.4671 30.4975 20.3774 30.6324 20.3433 30.7654C20.2699 31.0591 20.4926 31.3414 20.9812 31.4931C21.7079 31.7105 22.6852 31.5617 23.1273 31.1604L24.0633 30.2398C24.4358 29.8414 25.0334 29.551 25.7519 29.4209C26.4791 29.2922 27.2264 29.3376 27.9326 29.5534C28.6627 29.7694 29.2766 30.1294 29.6567 30.5686C30.0494 31.0068 30.1295 31.4676 29.8545 31.8646L29.1422 32.7857C28.799 33.187 29.2449 33.6886 30.1761 33.906C31.127 34.1235 32.1676 33.9747 32.4638 33.5739L33.0667 32.6527C33.4987 31.8665 33.1665 30.9588 32.2372 30.0972" fill="#00B7D2"/>
</svg>
