<svg width="48" height="48" viewBox="0 0 48 48" fill="none" xmlns="http://www.w3.org/2000/svg">
<g clip-path="url(#clip0)">
<path opacity="0.3" d="M24 7.87209C29.6765 7.87209 36.2204 0.04809 42.7848 9.99801C53.2675 25.886 46.284 45.8166 36.4623 42.8036C26.9103 39.8756 23.7121 38.8638 13.7487 42.445C0.0850336 47.3559 -4.29928 25.7228 4.72759 11.293C12.3169 -0.839429 18.5453 7.87209 24 7.87209Z" fill="#00B7D2"/>
<path d="M14.4028 31.3512L14.7744 30.8804L14.4072 31.3455L14.4028 31.3512Z" fill="white"/>
<path d="M22.5417 42.3369L22.2676 41.8152L22.5417 42.3374V42.3369Z" fill="white"/>
<path d="M19.6597 31.0133C19.505 31.0386 19.3488 31.0538 19.1922 31.0589C19.0954 31.061 18.9987 31.0513 18.9042 31.0301L18.8835 31.0248C18.8062 31.0025 18.731 30.9737 18.6584 30.9389C18.5859 30.9058 18.4967 30.8626 18.3963 30.8117C18.1967 30.7095 17.9437 30.5717 17.6907 30.4114C17.4299 30.2516 17.1835 30.0693 16.9544 29.8666C16.7658 29.6943 16.5003 29.4135 16.4336 29.0544V29.0482C16.4338 29.0465 16.4338 29.0447 16.4336 29.0429C16.4024 28.873 16.4115 28.7007 16.4461 28.4703C16.4538 28.4204 16.4629 28.3652 16.4735 28.3047C15.8624 28.4626 15.2581 28.6186 14.7747 28.7424L14.0826 28.922C14.0206 29.3784 14.0413 29.7197 14.121 29.9909C14.217 30.3125 14.409 30.5938 14.7743 30.8799C15.3728 31.3527 16.3583 31.9253 17.2223 32.3923C17.649 32.6223 18.0383 32.8215 18.3171 32.9631C18.4578 33.0341 18.5715 33.0903 18.6498 33.1291L18.6949 33.1512C18.7799 33.1541 19.389 33.1992 20.6586 32.5066L21.1813 30.8117C21.1885 30.7858 21.1967 30.757 21.2053 30.7253C20.4373 30.8823 19.9635 30.9682 19.6583 31.0133" fill="white"/>
<path d="M7.2851 25.1169L6.71582 24.9287L7.2851 25.1169Z" fill="white"/>
<path d="M34.2421 22.3694L35.7493 21.6811L31.015 11.2637L29.5098 11.952L34.2421 22.3694Z" fill="white"/>
<path d="M38.5003 15.5155C38.1263 15.6868 37.9516 16.1529 38.1398 16.5662C38.326 16.9775 38.7897 17.1527 39.1651 16.9819C39.5405 16.811 39.7133 16.3439 39.5261 15.9331C39.4638 15.7906 39.3616 15.6692 39.2319 15.5835C39.1022 15.4979 38.9505 15.4515 38.795 15.4502C38.694 15.4504 38.5943 15.4725 38.5027 15.515L38.5003 15.5155Z" fill="white"/>
<path d="M39.7496 15.8318L39.5264 15.9326L39.7433 15.8347L39.7496 15.8318Z" fill="white"/>
<path d="M38.1497 14.7471L38.0537 14.5364L38.1473 14.7418L38.1497 14.7471Z" fill="white"/>
<path d="M20.0884 41.5344L20.0869 41.5349L20.0884 41.5344Z" fill="white"/>
<path d="M38.3999 15.2947L38.5031 15.5145L38.3989 15.2932L38.3999 15.2947Z" fill="white"/>
<path d="M11.3479 33.9706L11.1943 33.6274L11.3479 33.9706Z" fill="white"/>
<path d="M11.7275 30.4163L12.0722 30.5262L11.7275 30.4163Z" fill="white"/>
<path d="M36.4467 4.34106L31.3496 6.66858L37.7543 20.7652L42.8514 18.4377L36.4467 4.34106ZM39.6147 17.9615C39.3839 18.0668 39.1335 18.1219 38.8799 18.1233C38.5167 18.1234 38.1612 18.0185 37.8563 17.8212C37.5514 17.6238 37.3101 17.3425 37.1615 17.0111C36.7357 16.0727 37.1269 14.9606 38.0538 14.5363C38.9807 14.1134 40.0765 14.5463 40.5042 15.4867L40.2815 15.5879L40.5042 15.4867C40.9304 16.4236 40.5387 17.5372 39.6123 17.9615" fill="white"/>
<path d="M16.3608 45.2639L16.3642 45.2716L16.3608 45.2639Z" fill="white"/>
<path d="M4.79539 41.2268L4.79443 41.2306L4.79587 41.2268H4.79539Z" fill="white"/>
<path d="M19.0118 26.0644L18.873 25.4812L19.0108 26.0606L19.0118 26.0644Z" fill="white"/>
<path d="M22.6338 31.2744L22.6395 31.2763L23.2084 31.4482L22.6338 31.2744Z" fill="white"/>
<path d="M29.2103 5.8374L28.6641 6.08556L29.2103 5.8374Z" fill="white"/>
<path d="M3.1831 37.5312H3.18262L3.1831 37.5317V37.5312Z" fill="white"/>
<path d="M22.6372 27.5788L22.6607 27.5687L23.1854 27.3354L22.6372 27.5788Z" fill="white"/>
<path d="M39.5107 17.7388L39.612 17.962L39.5107 17.7392V17.7388Z" fill="white"/>
<path d="M40.9575 21.1905L41.1749 21.6657L40.9272 21.1233L40.9575 21.1905Z" fill="white"/>
<path d="M21.165 42.4636L21.3556 41.8943L21.165 42.4636Z" fill="white"/>
<path d="M20.6918 15.7081L20.4475 15.1604L20.6918 15.7081L20.3735 15.1993L20.6918 15.7081Z" fill="white"/>
<path d="M45.5389 19.0129L44.9927 19.2611L45.2418 19.8069L44.9927 19.2611L45.5389 19.0129Z" fill="white"/>
<path d="M22.9766 43.187L22.9809 43.1952L22.9766 43.187Z" fill="white"/>
<path d="M19.9365 40.0354L19.9394 40.0359L19.937 40.0354H19.9365Z" fill="white"/>
<path d="M18.4969 37.5476L17.9487 37.7914L18.4556 37.5658L18.4969 37.5476Z" fill="white"/>
<path d="M4.04834 37.8652L4.61186 38.0716L4.0493 37.8652H4.04834Z" fill="white"/>
<path d="M15.7353 43.8566C17.9783 42.8563 18.9935 40.1424 17.9485 37.7913C16.9036 35.4393 14.2151 34.38 11.9716 35.3798C9.72806 36.3796 8.71814 39.095 9.76358 41.447C10.8071 43.7966 13.4956 44.855 15.7353 43.8566L15.9676 44.3764L15.7353 43.8566ZM11.5785 38.3088C11.4825 38.4878 11.2717 38.5848 11.0836 38.5089C11.0406 38.4932 11.0014 38.4687 10.9684 38.437C10.9353 38.4054 10.9092 38.3672 10.8916 38.325C10.874 38.2827 10.8654 38.2373 10.8662 38.1916C10.867 38.1458 10.8773 38.1007 10.8964 38.0592C11.2258 37.3783 11.7853 36.8357 12.4761 36.5274C13.1668 36.2191 13.9443 36.1649 14.6711 36.3744C14.7149 36.388 14.7555 36.4106 14.7901 36.4407C14.8248 36.4708 14.8528 36.5078 14.8725 36.5493C14.8921 36.5908 14.9029 36.6359 14.9042 36.6818C14.9054 36.7277 14.8972 36.7734 14.8799 36.816C14.8098 37.008 14.5962 37.0992 14.3999 37.0502C13.8565 36.9164 13.284 36.9678 12.773 37.1961C12.262 37.4244 11.8418 37.8166 11.5789 38.3107L11.5785 38.3088ZM13.0333 42.8639C12.9897 42.8503 12.9493 42.8278 12.9148 42.7979C12.8802 42.7679 12.8522 42.7311 12.8326 42.6899C12.8129 42.6486 12.802 42.6037 12.8006 42.558C12.7991 42.5122 12.8071 42.4667 12.8241 42.4243C12.8937 42.2323 13.1068 42.142 13.3041 42.19C13.8475 42.3235 14.4199 42.2721 14.9309 42.0441C15.442 41.816 15.8624 41.4242 16.126 40.9305C16.222 40.7524 16.4317 40.656 16.6194 40.7313C16.6622 40.7471 16.7014 40.7715 16.7343 40.8031C16.7672 40.8347 16.7933 40.8728 16.8107 40.915C16.8282 40.9571 16.8368 41.0024 16.8359 41.0481C16.8351 41.0937 16.8248 41.1387 16.8057 41.1801C16.4755 41.8597 15.9162 42.4012 15.2262 42.7091C14.5362 43.0171 13.7597 43.0719 13.0333 42.8639Z" fill="white"/>
<path d="M28.2783 28.7837L28.8582 28.9349L28.2783 28.7837Z" fill="white"/>
<path d="M9.21484 41.6904L9.2182 41.6889L9.76301 41.447L9.21484 41.6904Z" fill="white"/>
<path d="M22.8903 41.0558C22.8903 41.0481 22.8936 41.04 22.896 41.0323L26.821 28.3123C26.8887 28.0848 28.0066 24.5121 31.6378 22.8916L31.9916 22.7332L28.069 14.1057L21.4143 17.0716L9.66915 24.4214C9.18915 24.7502 8.83443 25.3665 8.71251 25.6694L4.61811 38.0534C4.61811 38.0596 4.61379 38.0659 4.61187 38.0716C4.36131 38.7537 4.71987 39.5505 5.34051 39.7996C5.96019 40.0511 6.69123 39.7377 6.95043 39.0427L10.2912 29.89C10.8 28.32 11.8128 27.2812 13.3095 26.9049L14.2344 26.6649C15.6533 26.2982 18.0264 25.6876 18.8693 25.4812H18.8732C20.294 25.1452 22.3109 25.3665 23.1855 27.3355C23.5824 28.2307 23.5762 29.2593 23.4912 30.0235C23.4384 30.5065 23.3437 30.984 23.208 31.4505C23.208 31.4505 23.208 31.4505 23.208 31.4529L20.5114 40.2067C20.4107 40.5581 20.4494 40.9348 20.6194 41.2584C20.7712 41.5583 21.0348 41.7865 21.3533 41.8939H21.3557C21.5051 41.9437 21.6631 41.9624 21.8199 41.9487C21.9768 41.9351 22.1292 41.8895 22.2677 41.8147C22.4175 41.7367 22.5499 41.6293 22.6572 41.4989C22.7644 41.3685 22.8442 41.2178 22.8917 41.0558" fill="white"/>
<path d="M16.8046 41.1782C16.8237 41.1368 16.834 41.0918 16.8349 41.0462C16.8357 41.0006 16.8272 40.9552 16.8097 40.9131C16.7922 40.8709 16.7661 40.8329 16.7332 40.8012C16.7003 40.7696 16.6612 40.7452 16.6183 40.7294C16.4306 40.6541 16.2204 40.7506 16.1249 40.9286C15.8612 41.4222 15.4407 41.8139 14.9298 42.042C14.4188 42.27 13.8464 42.3215 13.303 42.1882C13.1067 42.1402 12.8935 42.2323 12.823 42.4224C12.806 42.4649 12.798 42.5104 12.7995 42.5561C12.801 42.6018 12.8119 42.6467 12.8315 42.688C12.8512 42.7293 12.8791 42.7661 12.9137 42.796C12.9482 42.826 12.9886 42.8485 13.0323 42.8621C13.7585 43.0697 14.5348 43.0148 15.2245 42.7068C15.9142 42.3988 16.4734 41.8576 16.8036 41.1782" fill="#00B7D2"/>
<path d="M14.4 37.0483C14.5972 37.0963 14.8108 37.0047 14.88 36.8141C14.8969 36.7716 14.9049 36.7261 14.9035 36.6804C14.902 36.6347 14.8911 36.5898 14.8714 36.5485C14.8518 36.5072 14.8238 36.4704 14.7893 36.4405C14.7547 36.4105 14.7143 36.388 14.6707 36.3744C13.9439 36.165 13.1664 36.2192 12.4757 36.5275C11.7849 36.8358 11.2254 37.3783 10.896 38.0592C10.8769 38.1008 10.8666 38.1459 10.8658 38.1917C10.865 38.2374 10.8736 38.2828 10.8912 38.3251C10.9088 38.3673 10.9349 38.4055 10.9679 38.4371C11.001 38.4688 11.0402 38.4932 11.0832 38.509C11.2713 38.5848 11.483 38.4879 11.578 38.3088C11.841 37.8146 12.2614 37.4222 12.7725 37.1939C13.2837 36.9656 13.8564 36.9144 14.4 37.0483Z" fill="#00B7D2"/>
<path d="M38.2562 14.9818C37.5842 15.289 37.2866 16.1046 37.6063 16.8087C37.7157 17.0541 37.8938 17.2626 38.1191 17.409C38.3444 17.5554 38.6072 17.6335 38.8759 17.6338C39.0596 17.6326 39.241 17.5927 39.4082 17.5167C40.0802 17.2095 40.3783 16.3921 40.0586 15.6898C39.7389 14.9876 38.9282 14.6766 38.2562 14.9818ZM39.3688 17.4274L39.2666 17.2052L39.3684 17.4279C38.7295 17.7188 37.984 17.4097 37.6936 16.7689C37.4023 16.1276 37.6591 15.3634 38.2941 15.0716H38.2965C38.4508 15.0002 38.6185 14.9625 38.7885 14.9612C39.0389 14.9617 39.2837 15.0348 39.4934 15.1715C39.7031 15.3082 39.8687 15.5028 39.9703 15.7316C40.2626 16.3724 40.0024 17.138 39.3679 17.4284" fill="#00B7D2"/>
<path d="M40.2815 15.5879L40.2402 15.6066L40.2815 15.5879Z" fill="#00B7D2"/>
<path d="M38.7924 15.205L38.7905 14.9602L38.7924 15.1992V15.205Z" fill="#00B7D2"/>
<path d="M38.8784 17.8747L38.8765 17.6338L38.8784 17.8786V17.8747Z" fill="#00B7D2"/>
<path d="M39.5078 17.7332L39.5107 17.7389L39.5078 17.7332Z" fill="#00B7D2"/>
<path d="M40.5042 15.4868L40.2815 15.5881L40.2402 15.6068L40.2815 15.5881L40.5042 15.4868C40.0765 14.5465 38.9807 14.1136 38.0538 14.5364L38.1498 14.7472V14.7419L38.0538 14.5364C37.1269 14.9608 36.7357 16.0724 37.1615 17.0113C37.3101 17.3427 37.5514 17.624 37.8563 17.8213C38.1612 18.0187 38.5167 18.1236 38.8799 18.1235C39.1322 18.1217 39.3813 18.0667 39.6109 17.9622L39.5101 17.739L39.5073 17.7332L39.5101 17.739L39.6109 17.9617C40.5373 17.5374 40.929 16.4257 40.5028 15.4868H40.5042ZM39.4079 17.5168C39.2408 17.5927 39.0596 17.6326 38.8761 17.6339V17.8739V17.8777V17.6329C38.6074 17.6326 38.3445 17.5545 38.1193 17.4081C37.894 17.2617 37.7159 17.0532 37.6065 16.8078C37.2868 16.1036 37.5863 15.2881 38.2564 14.9809C38.9284 14.6752 39.7372 14.9833 40.0583 15.6884C40.3794 16.3936 40.0799 17.2096 39.4079 17.5168Z" fill="#00B7D2"/>
<path d="M39.9724 15.7306C39.8709 15.5018 39.7052 15.3072 39.4955 15.1705C39.2858 15.0338 39.041 14.9607 38.7906 14.9602V15.205V15.1992V14.9592C38.6206 14.9606 38.4529 14.9982 38.2986 15.0696H38.2962C37.6612 15.3615 37.4044 16.1256 37.6957 16.7669C37.9861 17.4077 38.7316 17.7168 39.3705 17.4259L39.2687 17.2032L39.3709 17.4255C40.0055 17.1351 40.2657 16.3695 39.9734 15.7287L39.9724 15.7306ZM38.4004 15.2928L38.5045 15.5146C38.5961 15.4721 38.6959 15.45 38.7969 15.4498C38.9523 15.4511 39.1041 15.4975 39.2338 15.5831C39.3635 15.6688 39.4657 15.7902 39.5279 15.9327L39.7511 15.8319H39.754H39.7511L39.7449 15.8347L39.5279 15.9307C39.7151 16.3416 39.5404 16.8082 39.1669 16.9795C38.7935 17.1509 38.3279 16.9752 38.1416 16.5639C37.9535 16.1506 38.1282 15.684 38.5021 15.5131L38.4004 15.2947V15.2928Z" fill="#00B7D2"/>
<path d="M36.9353 2.97594L36.932 2.96826L36.9233 2.9721L36.9353 2.97594Z" fill="#00B7D2"/>
<path d="M4.91925 40.9224L4.79829 41.2209L4.79541 41.2272H4.79589L4.91925 40.9224Z" fill="#00B7D2"/>
<path d="M33.3366 23.2771C33.3313 23.2896 33.3256 23.3016 33.3193 23.3136L33.3587 23.3246L33.3366 23.2771Z" fill="#00B7D2"/>
<path d="M16.3609 45.2639L16.2222 44.9534L16.3609 45.2639Z" fill="#00B7D2"/>
<path d="M21.1677 33.7196C21.191 33.74 21.2127 33.7622 21.2325 33.7859L21.3156 33.5156C21.2311 33.5636 21.149 33.6068 21.0684 33.6486C21.1038 33.6688 21.1371 33.6926 21.1677 33.7196Z" fill="#00B7D2"/>
<path d="M21.0016 43.0408L20.896 43.3547L20.895 43.3571L21.0016 43.0408Z" fill="#00B7D2"/>
<path d="M3.4927 37.634L3.18262 37.5312L3.4927 37.634Z" fill="#00B7D2"/>
<path d="M36.5591 3.13965L36.7444 3.54525L36.5591 3.13965Z" fill="#00B7D2"/>
<path d="M32.127 23.9885L32.2594 24.2866L32.2633 24.2957L32.127 23.9885Z" fill="#00B7D2"/>
<path d="M12.7875 28.4932C12.8351 28.5154 12.8795 28.544 12.9195 28.5782C12.9323 28.5004 12.9467 28.4217 12.9627 28.342C12.9656 28.3271 12.9704 28.3132 12.9742 28.2988C12.8783 28.3469 12.7853 28.4006 12.6958 28.4596C12.7272 28.4682 12.7579 28.4795 12.7875 28.4932Z" fill="#00B7D2"/>
<path d="M28.5122 12.7325C28.5261 12.7358 28.54 12.7401 28.554 12.7445L28.5304 12.6926C28.5247 12.7061 28.5189 12.7195 28.5122 12.7325Z" fill="#00B7D2"/>
<path d="M17.6772 27.0528C17.6811 27.0566 17.6839 27.0609 17.6878 27.0648C17.6926 27.047 17.6979 27.0297 17.7041 27.0129L17.6475 27.0273C17.6575 27.036 17.6676 27.0437 17.6772 27.0528Z" fill="#00B7D2"/>
<path d="M11.1666 30.2012L10.8599 30.0894H10.8594L11.1666 30.2012Z" fill="#00B7D2"/>
<path d="M14.4461 27.4863L14.471 27.5814L14.4062 27.3308L14.4461 27.4863Z" fill="#00B7D2"/>
<path d="M31.4992 9.89864L31.4334 9.75464C31.4155 9.79637 31.3929 9.83597 31.3662 9.87272C31.4115 9.87657 31.4561 9.88575 31.4992 9.90008" fill="#00B7D2"/>
<path d="M33.478 23.376L33.9446 23.1638L33.478 23.376Z" fill="#00B7D2"/>
<path d="M10.0064 35.2507C9.88104 35.2147 9.77104 35.1385 9.69342 35.0337L9.35742 35.9548C9.55305 35.7018 9.77017 35.4662 10.0064 35.2507Z" fill="#00B7D2"/>
<path d="M37.6389 21.9609L37.4565 21.561L37.6389 21.9609Z" fill="#00B7D2"/>
<path d="M7.51562 39.251L7.52042 39.2529L8.07915 39.4564L7.51562 39.251Z" fill="#00B7D2"/>
<path d="M43.6455 18.7349L43.8279 19.1337L43.6455 18.7349Z" fill="#00B7D2"/>
<path d="M30.8823 9.5169L31.25 9.34985L30.8823 9.5169Z" fill="#00B7D2"/>
<path d="M19.3492 41.28C19.3237 41.3712 19.2964 41.4624 19.2671 41.5522C19.2918 41.5472 19.3168 41.5437 19.342 41.5416C19.3728 41.5392 19.4038 41.5392 19.4346 41.5416C19.4017 41.4558 19.3732 41.3683 19.3492 41.2795" fill="#00B7D2"/>
<path d="M27.396 28.4871L27.7128 28.5792L27.396 28.4871Z" fill="#00B7D2"/>
<path d="M37.2479 22.1228C37.2093 22.1084 37.1723 22.0901 37.1375 22.0681C37.13 22.1165 37.1167 22.1637 37.0977 22.2088L37.27 22.13C37.2628 22.1276 37.2551 22.1257 37.2479 22.1228Z" fill="#00B7D2"/>
<path d="M20.0871 41.5349L20.0847 41.5364L19.7856 41.6924L20.0871 41.5349Z" fill="#00B7D2"/>
<path d="M8.15991 39.8635C8.14781 39.6557 8.14653 39.4474 8.15607 39.2395L8.07735 39.4555V39.4589C8.03352 39.5776 7.98073 39.6928 7.91943 39.8035C7.96815 39.8047 8.01652 39.8119 8.06343 39.8251C8.09749 39.8345 8.13059 39.847 8.16231 39.8625" fill="#00B7D2"/>
<path d="M7.65137 40.1985L7.90289 40.4039L7.65137 40.1985Z" fill="#00B7D2"/>
<path d="M19.6512 41.9797L19.3877 42.141L19.6512 41.9797Z" fill="#00B7D2"/>
<path d="M28.3496 11.8214L28.7159 11.6549L28.5306 11.2498L28.7159 11.6549L28.3496 11.8214Z" fill="#00B7D2"/>
<path d="M21.1314 16.5408L20.9937 16.2307L21.1314 16.5408Z" fill="#00B7D2"/>
<path d="M8.14903 25.4601H8.14951L7.84375 25.3391L8.14903 25.4601Z" fill="#00B7D2"/>
<path d="M19.6074 38.544C19.5491 38.5434 19.4912 38.5343 19.4355 38.5171C19.4876 38.767 19.5235 39.02 19.5431 39.2745L19.7759 38.5209C19.7213 38.5362 19.665 38.5438 19.6083 38.5435" fill="#00B7D2"/>
<path d="M24.3472 41.5055L24.0352 41.4128L24.3491 41.506L24.3472 41.5055Z" fill="#00B7D2"/>
<path d="M22.8164 42.8823L22.9767 43.1871L22.8164 42.8823Z" fill="#00B7D2"/>
<path d="M19.9233 38.0396L19.6123 37.9436L19.9233 38.0396Z" fill="#00B7D2"/>
<path d="M22.0897 27.8242L21.8214 27.9433L21.8013 27.9524L22.0897 27.8242Z" fill="#00B7D2"/>
<path d="M19.9368 40.0353L19.5562 39.9182L19.9363 40.0353L19.5562 39.9225L19.9363 40.0353H19.9368Z" fill="#00B7D2"/>
<path d="M13.853 32.0836L14.0469 31.835L13.8511 32.0855L13.853 32.0836Z" fill="#00B7D2"/>
<path d="M10.1744 34.6746L9.86572 34.5623L10.1744 34.6746L10.3779 34.94L10.1744 34.6746Z" fill="#00B7D2"/>
<path d="M17.6133 28.8163C17.6477 28.8638 17.6866 28.9079 17.7294 28.9478L17.9363 28.7112L17.6306 28.656C17.622 28.7085 17.6162 28.7613 17.6133 28.8144" fill="#00B7D2"/>
<path d="M21.7578 30.9827L21.7593 30.9831L22.0684 31.0734L21.7578 30.9827Z" fill="#00B7D2"/>
<path d="M14.6221 28.1521V28.1516L14.5381 27.8271L14.6221 28.1521Z" fill="#00B7D2"/>
<path d="M17.7139 27.0935L18.2659 27.2226L17.7139 27.0935Z" fill="#00B7D2"/>
<path d="M19.2369 26.9823L19.235 26.9736L19.1567 26.6472L19.2369 26.9823Z" fill="#00B7D2"/>
<path d="M19.2024 37.2346L19.0449 37.3042L19.0454 37.3047L19.2024 37.2346Z" fill="#00B7D2"/>
<path d="M13.5508 28.4596H13.5513L13.4395 28.1145L13.5508 28.4596Z" fill="#00B7D2"/>
<path d="M11.5884 34.5208L11.7213 34.8193L11.7271 34.8313L11.5884 34.5208Z" fill="#00B7D2"/>
<path d="M21.9639 29.9543L22.2864 29.9956L21.9639 29.9543Z" fill="#00B7D2"/>
<path d="M11.4067 34.1015L11.3481 33.9705L11.4067 34.1015Z" fill="#00B7D2"/>
<path d="M21.3834 33.2981L21.1621 32.9141L21.3834 33.2981Z" fill="#00B7D2"/>
<path d="M21.8926 29.6174L21.9641 29.9544L21.8926 29.6174Z" fill="#00B7D2"/>
<path d="M9.1543 41.7178L9.21526 41.6904L9.1543 41.7178Z" fill="#00B7D2"/>
<path d="M20.448 15.1604C20.4226 15.1716 20.3981 15.1846 20.3745 15.1993L20.6923 15.7081L20.448 15.1604Z" fill="#00B7D2"/>
<path d="M44.9927 19.2611L45.2418 19.8069C45.3863 19.7408 45.4987 19.6201 45.5544 19.4713C45.6101 19.3225 45.6045 19.1577 45.5389 19.0129L44.9927 19.2611Z" fill="#00B7D2"/>
<path d="M44.9929 19.2611L45.5391 19.0129L38.0242 2.47211C37.9582 2.3273 37.8374 2.21459 37.6884 2.15871C37.5394 2.10283 37.3743 2.10834 37.2293 2.17403C37.1966 2.10237 37.1501 2.03785 37.0924 1.98418C37.0348 1.9305 36.9671 1.88872 36.8933 1.86121C36.8195 1.83371 36.7409 1.82102 36.6622 1.82388C36.5835 1.82674 36.5061 1.84509 36.4345 1.87787L28.9609 5.29163C28.8164 5.35772 28.704 5.47842 28.6484 5.62726C28.5928 5.77609 28.5985 5.94091 28.6642 6.08555L29.2105 5.83739L28.6642 6.08555L30.0884 9.21995L27.1229 10.5735C26.9784 10.6395 26.8659 10.7602 26.8102 10.9091C26.7545 11.0579 26.7601 11.2228 26.8258 11.3675L27.1825 12.1537L20.4481 15.1604L20.6924 15.7081L20.3746 15.1993L8.50998 22.6163L8.48982 22.6292C7.31958 23.4284 6.79878 24.7153 6.72246 24.9092L6.73446 24.9347L7.28502 25.1171L6.71574 24.9289L2.61366 37.3441C1.98342 39.0932 2.84166 41.0881 4.57014 41.7841C5.05022 41.9793 5.57007 42.0568 6.08622 42.0101C6.60238 41.9633 7.09984 41.7936 7.53702 41.5153C7.61838 41.7846 7.716 42.0488 7.82934 42.3063C9.33942 45.7071 13.2653 47.3031 16.6033 45.8103C17.8157 45.2688 18.8305 44.365 19.5082 43.2231C19.8515 43.5391 20.2583 43.7781 20.7015 43.9239H20.7049C21.1208 44.064 21.5609 44.1178 21.9983 44.082C22.4357 44.0462 22.8613 43.9215 23.2489 43.7156C23.6491 43.5059 24.003 43.2176 24.2893 42.868C24.5757 42.5184 24.7886 42.1146 24.9154 41.6809L28.8514 28.9331L28.2716 28.7819L28.8514 28.9331C29.052 28.3784 29.3192 27.8502 29.6473 27.3601C30.2257 26.475 31.1405 25.4603 32.5105 24.8483L32.8801 24.6865L32.9151 24.7643C32.9506 24.845 33.0028 24.9173 33.0682 24.9764C33.1553 25.0532 33.2627 25.1031 33.3775 25.1202C33.4924 25.1372 33.6097 25.1206 33.7153 25.0724L41.1764 21.6644L40.9594 21.1892L40.9287 21.122L41.1764 21.6644L45.2434 19.8054L44.9929 19.2611ZM22.2682 41.8148L22.5413 42.3361L22.2673 41.8139C22.1287 41.8887 21.9763 41.9343 21.8195 41.9479C21.6626 41.9616 21.5046 41.9429 21.3553 41.8931L21.1633 42.4623L21.3553 41.8931H21.3529C21.0343 41.7857 20.7707 41.5575 20.6189 41.2575C20.4489 40.9339 20.4102 40.5572 20.5109 40.2059L23.2071 31.4502C23.2071 31.4502 23.2071 31.4502 23.2071 31.4478L22.6383 31.2755H22.6325L23.2085 31.4497C23.3442 30.9831 23.4389 30.5057 23.4917 30.0227C23.5767 29.2604 23.5829 28.2318 23.186 27.3347L22.6613 27.5679L22.6378 27.578L23.1841 27.3356C22.3095 25.3676 20.2925 25.1439 18.8717 25.4814L19.0119 26.0641V26.0603L18.8741 25.4809H18.8703C18.0255 25.6873 15.6543 26.2969 14.2354 26.6646L13.3105 26.9046C11.8129 27.2814 10.8001 28.3201 10.2937 29.8907L6.95286 39.0433C6.69366 39.7383 5.96262 40.0513 5.34294 39.8003C4.7223 39.5516 4.36374 38.7548 4.6143 38.0723L4.05078 37.8659L4.61334 38.0723C4.61334 38.0665 4.61766 38.0603 4.61958 38.054L8.71398 25.67C8.8359 25.3676 9.1911 24.7513 9.67062 24.422L21.4143 17.0718L28.069 14.1059L31.9916 22.7353L31.6378 22.8932C28.0066 24.5137 26.8887 28.0863 26.821 28.3139L22.8961 41.0324C22.8937 41.0401 22.8927 41.0483 22.8903 41.0559C22.8428 41.2179 22.763 41.3687 22.6558 41.4991C22.5485 41.6295 22.4161 41.7369 22.2663 41.8148H22.2682ZM19.9345 40.0355L19.5543 39.9227L19.9345 40.0355L19.5543 39.9183L19.9345 40.0355ZM9.76374 41.4471L9.21894 41.6871H9.21558L9.15462 41.7145L9.21558 41.6871L9.76374 41.4438C8.71878 39.0918 9.73302 36.3769 11.9717 35.3766C14.2105 34.3763 16.9037 35.4356 17.9487 37.7881L18.4969 37.5443L18.4556 37.5625L17.9487 37.7881C18.9937 40.1401 17.9785 42.8531 15.7354 43.8534L15.9677 44.3732L15.7354 43.8534C13.4957 44.8532 10.8073 43.7934 9.76374 41.4438V41.4471ZM19.5433 39.2708C19.5237 39.0163 19.4878 38.7633 19.4357 38.5134C19.4914 38.5306 19.5493 38.5397 19.6076 38.5403C19.6642 38.5406 19.7206 38.533 19.7751 38.5177L19.5433 39.2708ZM10.1761 34.6748L9.8679 34.5625L10.1761 34.6748L10.3796 34.9403L10.1761 34.6748ZM22.0897 27.8247L21.8017 27.9524L21.8218 27.9433L22.0897 27.8247ZM21.7589 30.9831L22.0695 31.0739L21.7589 30.9831ZM22.0066 28.9791L22.0906 29.3689L22.0066 28.9791ZM21.1825 30.8123L20.6597 32.5071C19.3901 33.1983 18.781 33.1547 18.6961 33.1518L18.6509 33.1297C18.5727 33.0908 18.4589 33.0337 18.3183 32.9636C18.0375 32.8196 17.6501 32.6228 17.2234 32.3929C16.3594 31.9259 15.373 31.3532 14.7754 30.8809L14.4034 31.3513L14.4082 31.3455L14.7754 30.8809C14.4106 30.5929 14.2153 30.3126 14.1207 29.991C14.041 29.7198 14.0204 29.3785 14.0823 28.922L14.7745 28.7425C15.2151 28.6297 15.7561 28.49 16.3105 28.3465C16.3279 28.342 16.3463 28.3419 16.3638 28.3462C16.3814 28.3505 16.3975 28.3592 16.4109 28.3713C16.4243 28.3834 16.4344 28.3987 16.4405 28.4158C16.4465 28.4328 16.4481 28.4511 16.4453 28.4689C16.4108 28.6993 16.4017 28.8716 16.4329 29.0415C16.4331 29.0433 16.4331 29.0451 16.4329 29.0468V29.0531C16.4996 29.4121 16.765 29.6929 16.9537 29.8652C17.1828 30.0679 17.4291 30.2502 17.69 30.41C17.9429 30.5689 18.1959 30.7081 18.3956 30.8103C18.4959 30.8612 18.5876 30.9063 18.6577 30.9375C18.7302 30.9724 18.8055 31.0011 18.8828 31.0235L18.9034 31.0287C18.9979 31.0502 19.0946 31.0599 19.1914 31.0575C19.3481 31.0524 19.5042 31.0372 19.6589 31.0119C19.9642 30.9673 20.4394 30.8814 21.206 30.7239C21.1973 30.7556 21.1892 30.7844 21.182 30.8103L21.1825 30.8123ZM19.5154 36.2166C19.3217 35.8875 19.1007 35.5752 18.8549 35.283C19.1902 35.2728 19.5232 35.2245 19.8476 35.139L19.5154 36.2166ZM18.2425 34.2659H18.2449H18.2425ZM14.0492 31.8351L13.8572 32.0838L14.0492 31.8351ZM13.4809 32.5551C13.609 32.6569 13.7492 32.7601 13.8975 32.8647C13.0089 32.8406 12.125 33.0018 11.3021 33.338L12.1921 30.8886C12.4234 31.4742 12.8242 32.0459 13.4765 32.5566L13.4809 32.5551ZM19.3753 27.5646C19.5697 27.5166 19.969 27.4503 20.3612 27.5199C20.7289 27.5852 21.0567 27.7599 21.2501 28.1953C21.2927 28.2949 21.3249 28.3987 21.3461 28.5049C20.5009 28.683 19.969 28.7862 19.6359 28.8457C19.4737 28.8745 19.3642 28.8937 19.2932 28.9023L19.2692 28.8884C19.1761 28.8332 19.0575 28.7603 18.9332 28.6811C18.8089 28.6019 18.698 28.5279 18.5972 28.4588C18.638 28.2707 18.6932 28.0215 18.7647 27.7143C19.0105 27.6529 19.2202 27.6015 19.3743 27.5646H19.3753ZM19.1617 29.8489L19.1689 29.5187L19.1617 29.8489ZM17.0204 28.9369L17.6093 28.8231C17.6096 28.8242 17.6096 28.8254 17.6093 28.8265V28.8332L17.0204 28.9369ZM17.9324 28.7075L17.7255 28.9441C17.6826 28.9041 17.6437 28.8601 17.6093 28.8126C17.6123 28.7595 17.618 28.7066 17.6266 28.6542L17.9324 28.7075ZM12.0721 30.5281L11.7274 30.4187L12.0721 30.5281ZM11.1946 33.6294L11.3482 33.9726L11.1946 33.6289L11.3482 33.9726L11.4068 34.1036L11.3482 33.9726L11.1946 33.6294ZM21.1623 32.9137L21.3836 33.2977L21.1623 32.9137ZM21.9639 29.9545L21.8924 29.6185L21.9639 29.9545L22.2865 29.9958L21.9639 29.9545ZM19.2351 26.9732V26.9823L19.1549 26.6463L19.2351 26.9732ZM18.266 27.2228L17.7121 27.0937L18.2641 27.2228H18.266ZM14.6223 28.1516L14.5383 27.8267L14.6223 28.1516ZM13.5514 28.4598L13.4401 28.1147L13.5514 28.4598ZM11.5882 34.5207L11.7269 34.8313L11.7212 34.8193L11.5882 34.5207ZM19.2025 37.2347L19.0455 37.3047L19.2025 37.2347ZM19.6124 37.9436L19.9234 38.0396L19.6124 37.9436ZM21.2333 33.7859C21.2135 33.7621 21.1918 33.74 21.1685 33.7196C21.1379 33.6926 21.1046 33.6688 21.0692 33.6486C21.1498 33.6068 21.2319 33.5627 21.3164 33.5156L21.2333 33.7859ZM17.6876 27.0659C17.6837 27.062 17.6809 27.0577 17.677 27.0539C17.6732 27.05 17.6573 27.0371 17.6473 27.0284L17.7039 27.014C17.6977 27.0308 17.6924 27.0481 17.6876 27.0659ZM14.4716 27.5823L14.4471 27.4863L14.4068 27.3308L14.4716 27.5823ZM12.9634 28.3431C12.9477 28.4228 12.9333 28.5015 12.9202 28.5793C12.8553 28.5237 12.7789 28.4833 12.6965 28.4607C12.7861 28.4017 12.879 28.348 12.9749 28.2999C12.9711 28.3143 12.9663 28.3283 12.9634 28.3431ZM11.1673 30.2022L10.8601 30.0903L11.1673 30.2022ZM9.69606 35.0339C9.77332 35.139 9.88345 35.2153 10.009 35.2508C9.77281 35.4664 9.55568 35.702 9.36006 35.955L9.69606 35.0339ZM33.9447 23.1649L33.4781 23.3761L33.9447 23.1649ZM35.7495 21.6812L34.2423 22.3681L29.51 11.9521L31.0153 11.2638L35.7495 21.6812ZM31.3498 6.66875L36.4469 4.34123L42.8516 18.4379L37.7545 20.7654L31.3498 6.66875ZM31.4991 9.89867C31.4562 9.88438 31.4117 9.87519 31.3666 9.87131C31.393 9.83443 31.4154 9.79485 31.4333 9.75323L31.4991 9.89867ZM28.5101 12.7307C28.5169 12.7177 28.5226 12.7043 28.5284 12.6908L28.5519 12.7427C28.538 12.7383 28.5241 12.734 28.5101 12.7307ZM33.3365 23.2772L33.3586 23.3252L33.3193 23.3142C33.3255 23.3022 33.3313 23.2902 33.3365 23.2777V23.2772ZM37.4569 21.5617L37.6393 21.9615L37.4569 21.5617ZM36.7445 3.54539L36.5593 3.13979L36.7445 3.54539ZM31.25 9.35339L30.8823 9.52043L31.25 9.35339ZM28.5308 11.2532L28.7161 11.6583L28.3498 11.8249L28.7161 11.6583L28.5308 11.2532ZM21.1316 16.5409L20.9938 16.2308L21.1316 16.5409ZM9.33654 23.9223L9.14454 23.6372L9.33654 23.9223ZM8.1495 25.4583L7.84422 25.3374L8.1495 25.4583ZM8.07798 39.458V39.4547L7.51926 39.2511H7.51446L8.07942 39.4561L8.15862 39.2401C8.14859 39.448 8.14987 39.6563 8.16246 39.8641C8.13053 39.8486 8.09728 39.8361 8.0631 39.8267C8.01622 39.8134 7.96781 39.8063 7.9191 39.8055C7.9803 39.6946 8.03309 39.5792 8.07702 39.4604L8.07798 39.458ZM19.3441 41.5431C19.3189 41.5452 19.2939 41.5487 19.2692 41.5537C19.2985 41.4639 19.3258 41.3727 19.3513 41.2815C19.3753 41.3703 19.4038 41.4577 19.4367 41.5436C19.4059 41.5412 19.3749 41.5412 19.3441 41.5436V41.5431ZM19.7876 41.6929L20.0866 41.5369H20.089L19.7876 41.6943V41.6929ZM27.3961 28.4871L27.7129 28.5793L27.3961 28.4871ZM33.6452 23.6843L33.1786 23.8964L33.6452 23.6843ZM37.1362 22.0681C37.1712 22.09 37.2081 22.1085 37.2466 22.1233L37.2687 22.13L37.0964 22.2087C37.1154 22.1637 37.1288 22.1164 37.1362 22.0681ZM43.6455 18.735L44.018 18.5655L43.6455 18.735L43.8279 19.1339L43.6455 18.735ZM36.9356 2.97611L36.9236 2.97227L36.9322 2.96843L36.9356 2.97611ZM7.65174 40.1987L7.90326 40.4041L7.65174 40.1987ZM19.3877 42.1412L19.6513 41.9799L19.3877 42.1412ZM21.0015 43.0407L20.8954 43.3571L21.0015 43.0407ZM32.2594 24.2881L32.1269 23.99L32.2633 24.2972L32.2594 24.2881ZM3.18294 37.5318L3.49302 37.6321L3.18294 37.5299L3.48966 37.6422L3.18294 37.5299V37.5318ZM4.79574 41.2278L4.79862 41.2215L4.91958 40.923L4.79622 41.2278V41.2311L4.79574 41.2278ZM16.3609 45.2641L16.2241 44.9535L16.3628 45.2641L16.3661 45.2718L16.3609 45.2641ZM22.9767 43.1871L22.8164 42.8823L22.9767 43.1871L22.8173 42.8819L22.9767 43.1871L22.981 43.1953L22.9767 43.1871ZM24.3495 41.5071L24.0356 41.414L24.3476 41.5066L24.3495 41.5071Z" fill="#00B7D2"/>
</g>
<defs>
<clipPath id="clip0">
<rect width="48" height="48" fill="white"/>
</clipPath>
</defs>
</svg>
