<svg width="48" height="48" viewBox="0 0 48 48" fill="none" xmlns="http://www.w3.org/2000/svg">
<g clip-path="url(#clip0)">
<path opacity="0.3" d="M24.0548 4.83594C46.4031 4.83594 56.1222 47.7033 39.9908 41.638C24.3495 35.7556 20.1001 38.1119 11.2844 41.9582C-9.76361 51.1444 1.01239 4.83594 24.0524 4.83594" fill="#00B7D2"/>
<path d="M10.4873 25.7544L9.52726 26.2661C9.31215 26.3808 9.14876 26.5731 9.07022 26.8039C8.99169 27.0347 9.0039 27.2867 9.10438 27.5088L13.9553 38.2387C14.0093 38.3584 14.0874 38.4656 14.1845 38.5539C14.2817 38.6422 14.3959 38.7096 14.5202 38.752C14.6445 38.7944 14.7761 38.8108 14.9069 38.8003C15.0378 38.7898 15.1651 38.7525 15.281 38.6909L15.3372 38.6611C15.5526 38.5465 15.7163 38.3543 15.795 38.1233C15.8737 37.8924 15.8616 37.6402 15.761 37.4179L10.4873 25.7544Z" fill="white"/>
<path d="M44.7027 16.2022C45.3099 15.8792 45.2048 15.3329 45.116 15.1356C45.0447 14.981 44.9268 14.8526 44.7788 14.7683C44.6309 14.684 44.4603 14.6482 44.2909 14.6657L43.9727 16.5262L44.7027 16.2022Z" fill="white"/>
<path d="M5.60156 28.512C5.41846 28.547 5.24977 28.6353 5.11667 28.7658C4.98358 28.8963 4.89201 29.0633 4.85346 29.2456C4.81491 29.428 4.8311 29.6177 4.89999 29.7909C4.96889 29.9642 5.08742 30.1132 5.24071 30.2192C5.39399 30.3253 5.5752 30.3837 5.76158 30.3872C5.94797 30.3906 6.13121 30.339 6.28832 30.2386C6.44542 30.1383 6.56938 29.9938 6.64464 29.8232C6.7199 29.6527 6.74309 29.4637 6.71131 29.28C6.68906 29.1566 6.64267 29.0388 6.57481 28.9334C6.50695 28.828 6.41894 28.737 6.31585 28.6657C6.21275 28.5943 6.09659 28.544 5.97402 28.5176C5.85144 28.4913 5.72487 28.4894 5.60156 28.512Z" fill="white"/>
<path d="M24.7468 28.905L25.3847 25.1835C24.4881 25.6669 22.9165 26.2693 20.5012 26.3979C20.5012 26.3979 24.1857 25.1946 25.6621 23.5587L26.7047 17.4839L25.1125 18.1919L24.3839 16.9439L27.9945 14.2199C28.3756 13.9319 28.5282 13.4927 28.6382 13.0232C28.7524 12.537 28.6929 12.0267 28.4586 11.4968L19.8239 16.4994C18.9397 17.0125 16.1759 18.9555 17.7599 22.4557L18.0585 23.1171L12.1357 25.7437L16.0765 34.4586L22.2105 31.7379L22.5119 32.3999C23.1119 33.7275 24.6887 34.4111 26.4354 34.1034C26.8269 34.034 27.2084 33.9171 27.5716 33.7554L29.9673 32.6931L27.1276 32.2333C26.752 32.1725 26.3923 32.0379 26.069 31.8373C25.7458 31.6367 25.4655 31.374 25.2444 31.0644C25.0233 30.7549 24.8656 30.4046 24.7806 30.0338C24.6956 29.663 24.685 29.279 24.7492 28.904" fill="white"/>
<path d="M7.38184 26.6126C7.32945 26.4968 7.25458 26.3926 7.16157 26.3059C7.06857 26.2193 6.95928 26.152 6.84006 26.1079C6.72083 26.0638 6.59404 26.0439 6.46704 26.0492C6.34005 26.0545 6.21537 26.085 6.10024 26.1389L2.74505 27.708C2.51643 27.815 2.33914 28.0076 2.25155 28.2444C2.16396 28.4811 2.17312 28.7428 2.27705 28.9728L8.96296 43.7635C9.01531 43.8793 9.09014 43.9835 9.18309 44.0702C9.27603 44.1568 9.38526 44.2242 9.50444 44.2683C9.62361 44.3124 9.75035 44.3324 9.87732 44.3272C10.0043 44.3219 10.129 44.2915 10.2441 44.2377L13.6012 42.6691C13.8299 42.5621 14.0073 42.3694 14.0949 42.1325C14.1825 41.8957 14.1733 41.6339 14.0692 41.4038L7.38184 26.6126ZM6.13816 31.5566C5.72038 31.6273 5.29102 31.5728 4.90421 31.3998C4.5174 31.2268 4.19046 30.9432 3.96463 30.5847C3.73879 30.2261 3.62417 29.8088 3.63521 29.3852C3.64625 28.9616 3.78246 28.5508 4.02667 28.2045C4.27088 27.8583 4.61215 27.592 5.00744 27.4395C5.40274 27.2869 5.83436 27.2547 6.24789 27.3471C6.66142 27.4395 7.03834 27.6523 7.33111 27.9586C7.62389 28.2649 7.81942 28.651 7.89304 29.0683C7.9413 29.3469 7.93418 29.6323 7.8721 29.9082C7.81001 30.1841 7.69417 30.445 7.5312 30.6761C7.36823 30.9072 7.16132 31.1039 6.9223 31.255C6.68327 31.4061 6.41682 31.5086 6.13816 31.5566Z" fill="white"/>
<path d="M45.0024 19.3169C44.9544 19.3256 43.8984 19.784 43.3762 20.0148L43.0488 21.9228L45.4757 20.8457C46.1664 20.4617 45.9773 19.9764 45.889 19.7796C45.8135 19.6151 45.6854 19.4803 45.5249 19.3966C45.3644 19.3128 45.1806 19.2848 45.0024 19.3169Z" fill="white"/>
<path d="M42.126 27.3L43.4738 26.7019C43.5711 26.6592 43.6591 26.5977 43.7326 26.521C43.8061 26.4442 43.8637 26.3536 43.9021 26.2545C43.9405 26.1554 43.9589 26.0497 43.9564 25.9435C43.9538 25.8372 43.9302 25.7325 43.8871 25.6354C43.8116 25.4708 43.6835 25.336 43.523 25.2523C43.3625 25.1685 43.1787 25.1405 43.0005 25.1726C42.9588 25.1798 42.6693 25.2994 42.4524 25.3939L42.126 27.3Z" fill="white"/>
<path d="M43.2 5.89422L31.608 4.01886C31.3582 3.97854 31.1026 4.03847 30.8968 4.18562C30.6909 4.33276 30.5515 4.55522 30.5088 4.80462L29.5556 10.363L29.6112 10.447C30.3116 11.4877 30.5424 12.5374 30.2962 13.567C30.0135 14.7574 29.1485 15.6051 28.5792 16.0515L26.3396 29.1118C26.3181 29.2368 26.3216 29.3648 26.3499 29.4885C26.3781 29.6121 26.4306 29.7289 26.5043 29.8322C26.578 29.9354 26.6714 30.023 26.7792 30.0899C26.8869 30.1569 27.0068 30.2018 27.132 30.2221L38.7216 32.0979C38.9714 32.1384 39.2271 32.0786 39.433 31.9315C39.639 31.7844 39.7785 31.562 39.8213 31.3126L43.9906 7.00398C44.012 6.87915 44.0085 6.75132 43.9803 6.62784C43.9521 6.50436 43.8998 6.38769 43.8263 6.28453C43.7528 6.18137 43.6597 6.09378 43.5522 6.02679C43.4447 5.9598 43.325 5.91475 43.2 5.89422ZM31.2927 13.9102C31.4083 13.2454 32.052 12.8029 32.7327 12.9209C32.998 12.9657 33.2417 13.0952 33.4272 13.2901C33.6128 13.4849 33.7301 13.7347 33.7618 14.0019C34.3262 13.63 34.9927 13.4439 35.6682 13.4697C36.3436 13.4955 36.994 13.732 37.5283 14.1459L38.304 14.7497C38.3845 14.8111 38.4519 14.8879 38.5022 14.9756C38.5525 15.0634 38.5848 15.1604 38.597 15.2608C38.6093 15.3612 38.6013 15.4631 38.5736 15.5604C38.5458 15.6577 38.4989 15.7485 38.4355 15.8273C38.3046 15.9869 38.1165 16.0889 37.9114 16.1115C37.7063 16.1342 37.5004 16.0758 37.3378 15.9488L36.5568 15.3425C36.2195 15.0804 35.7928 14.9609 35.3683 15.0099C35.1593 15.0314 34.9565 15.0939 34.7717 15.1939C34.5869 15.2939 34.4236 15.4294 34.2912 15.5926C34.1605 15.7544 34.0638 15.941 34.0069 16.1411C33.95 16.3412 33.934 16.5507 33.96 16.7571C33.9852 16.965 34.0514 17.1658 34.1548 17.3479C34.2582 17.53 34.3968 17.6898 34.5624 17.8179L35.3419 18.4241C35.4222 18.4856 35.4894 18.5626 35.5395 18.6504C35.5896 18.7382 35.6217 18.8352 35.6338 18.9356C35.6459 19.036 35.6378 19.1378 35.6101 19.235C35.5823 19.3322 35.5353 19.4229 35.472 19.5017C35.341 19.6612 35.1529 19.7631 34.9478 19.7858C34.7428 19.8084 34.5369 19.7501 34.3743 19.6232L33.5943 19.0165C33.2676 18.7646 32.9944 18.4503 32.7904 18.0919C32.5865 17.7334 32.4559 17.3379 32.4063 16.9285C32.3391 16.3885 32.4178 15.8403 32.6343 15.3411C32.5248 15.3504 32.4146 15.3455 32.3064 15.3267C31.6282 15.2081 31.1727 14.5736 31.2888 13.9093L31.2927 13.9102ZM39.0648 21.5681C38.9487 22.232 38.3045 22.675 37.6248 22.5565C37.4 22.5184 37.19 22.4195 37.0174 22.2705C36.8449 22.1215 36.7165 21.928 36.6461 21.7112C36.0865 22.0503 35.4371 22.2118 34.7839 22.1741C34.1306 22.1365 33.5041 21.9016 32.9871 21.5005L32.208 20.8942C32.1275 20.8329 32.0601 20.756 32.0098 20.6682C31.9595 20.5804 31.9272 20.4834 31.915 20.3829C31.9027 20.2824 31.9107 20.1805 31.9384 20.0832C31.9662 19.9859 32.0131 19.8951 32.0765 19.8161C32.2074 19.6566 32.3955 19.5546 32.6007 19.5319C32.8058 19.5092 33.0116 19.5677 33.1743 19.6947L33.9538 20.3009C34.6527 20.8457 35.6698 20.7329 36.2194 20.0504C36.35 19.8877 36.4468 19.7005 36.5041 19.4999C36.5615 19.2992 36.5782 19.0892 36.5533 18.882C36.5284 18.6749 36.4624 18.4747 36.3591 18.2934C36.2559 18.1121 36.1175 17.9532 35.952 17.8261L35.1725 17.2198C35.092 17.1585 35.0246 17.0817 34.9742 16.9939C34.9238 16.9061 34.8915 16.8091 34.8791 16.7087C34.8668 16.6082 34.8747 16.5063 34.9023 16.409C34.9299 16.3116 34.9768 16.2207 35.04 16.1417C35.171 15.9822 35.3591 15.8802 35.5642 15.8575C35.7693 15.8348 35.9752 15.8933 36.1378 16.0203L36.9168 16.627C37.4378 17.0277 37.8179 17.5835 38.0023 18.2143C38.1866 18.8451 38.1657 19.5182 37.9426 20.1363C37.9771 20.1397 38.0117 20.144 38.0467 20.1497C38.3698 20.2029 38.6585 20.3822 38.8495 20.6482C39.0405 20.9141 39.1181 21.245 39.0653 21.5681" fill="white"/>
<path d="M32.6355 15.3413C32.419 15.8405 32.3403 16.3886 32.4075 16.9286C32.4571 17.3381 32.5877 17.7336 32.7916 18.092C32.9956 18.4505 33.2688 18.7648 33.5955 19.0166L34.3755 19.6233C34.5381 19.7498 34.7436 19.8079 34.9483 19.7852C35.153 19.7625 35.3408 19.6609 35.4718 19.5019C35.535 19.423 35.5819 19.3322 35.6095 19.2349C35.6372 19.1376 35.6451 19.0358 35.6329 18.9354C35.6206 18.835 35.5884 18.7381 35.5382 18.6503C35.4879 18.5625 35.4207 18.4857 35.3403 18.4243L34.5608 17.8181C34.3951 17.69 34.2566 17.5303 34.1532 17.3481C34.0499 17.166 33.9838 16.9652 33.9588 16.7573C33.9326 16.5509 33.9484 16.3414 34.0053 16.1413C34.0621 15.9411 34.1588 15.7546 34.2896 15.5928C34.4219 15.4296 34.5852 15.294 34.77 15.194C34.9549 15.094 35.1576 15.0315 35.3667 15.0101C35.7911 14.9611 36.2178 15.0805 36.5552 15.3427L37.3347 15.949C37.4973 16.076 37.7032 16.1344 37.9083 16.1117C38.1134 16.089 38.3015 15.987 38.4324 15.8275C38.496 15.7488 38.5431 15.6582 38.5711 15.561C38.599 15.4638 38.6073 15.362 38.5953 15.2616C38.5833 15.1612 38.5513 15.0642 38.5013 14.9763C38.4512 14.8884 38.3841 14.8114 38.3038 14.7499L37.5248 14.1432C36.9904 13.7293 36.34 13.4928 35.6646 13.467C34.9892 13.4412 34.3226 13.6273 33.7582 13.9992C33.7266 13.732 33.6093 13.4822 33.4237 13.2873C33.2382 13.0924 32.9944 12.9629 32.7291 12.9182C32.0508 12.8002 31.4072 13.2427 31.2891 13.9075C31.171 14.5723 31.6284 15.2064 32.3067 15.325C32.4149 15.3438 32.5251 15.3486 32.6345 15.3394" fill="#00B7D2"/>
<path d="M38.0471 20.1498C38.012 20.1441 37.9775 20.1397 37.9429 20.1364C38.1661 19.5182 38.187 18.8452 38.0026 18.2144C37.8182 17.5836 37.4381 17.0277 36.9172 16.6271L36.1372 16.0204C35.9746 15.8936 35.769 15.8354 35.5641 15.8581C35.3592 15.8808 35.1713 15.9826 35.0404 16.1418C34.977 16.2208 34.9301 16.3116 34.9024 16.4089C34.8747 16.5062 34.8668 16.6081 34.879 16.7086C34.8913 16.809 34.9235 16.906 34.9738 16.9938C35.0241 17.0816 35.0914 17.1585 35.1719 17.2199L35.9524 17.8261C36.1181 17.953 36.2568 18.1117 36.3604 18.2929C36.464 18.474 36.5304 18.6741 36.5557 18.8813C36.5809 19.0884 36.5646 19.2986 36.5075 19.4994C36.4505 19.7001 36.354 19.8875 36.2236 20.0505C35.674 20.733 34.6568 20.8458 33.958 20.301L33.1784 19.6948C33.0158 19.5677 32.81 19.5093 32.6048 19.532C32.3997 19.5547 32.2116 19.6567 32.0807 19.8162C32.0171 19.8949 31.9699 19.9855 31.9418 20.0827C31.9138 20.1799 31.9055 20.2817 31.9174 20.3822C31.9293 20.4826 31.9611 20.5797 32.0111 20.6676C32.0611 20.7556 32.1282 20.8326 32.2084 20.8943L32.9874 21.5005C33.5044 21.9017 34.1309 22.1366 34.7842 22.1742C35.4375 22.2118 36.0868 22.0504 36.6464 21.7112C36.7168 21.9281 36.8452 22.1215 37.0178 22.2705C37.1903 22.4196 37.4004 22.5185 37.6252 22.5565C38.3034 22.6751 38.9475 22.232 39.0651 21.5682C39.118 21.2451 39.0404 20.9142 38.8494 20.6482C38.6584 20.3823 38.3697 20.203 38.0466 20.1498" fill="#00B7D2"/>
<path d="M5.39259 27.3316C4.9758 27.408 4.59095 27.6061 4.28659 27.9009C3.98223 28.1957 3.77197 28.574 3.68234 28.9882C3.59271 29.4023 3.62771 29.8337 3.78293 30.228C3.93816 30.6223 4.20665 30.9618 4.55456 31.2037C4.90247 31.4456 5.31421 31.579 5.73786 31.5872C6.16152 31.5954 6.57812 31.478 6.93512 31.2498C7.29213 31.0215 7.57356 30.6927 7.74393 30.3047C7.91429 29.9167 7.96596 29.487 7.89242 29.0697C7.84242 28.7914 7.73809 28.5257 7.5854 28.2877C7.43271 28.0498 7.23464 27.8442 7.0025 27.6829C6.77037 27.5215 6.50871 27.4074 6.23248 27.3471C5.95625 27.2868 5.67085 27.2816 5.39259 27.3316ZM5.92923 30.3762C5.745 30.4059 5.55609 30.3805 5.38628 30.3031C5.21647 30.2257 5.07334 30.0998 4.9749 29.9413C4.87645 29.7828 4.82708 29.5987 4.83301 29.4122C4.83894 29.2256 4.8999 29.045 5.00821 28.8931C5.11653 28.7411 5.26736 28.6246 5.44174 28.5581C5.61612 28.4917 5.80626 28.4783 5.98824 28.5196C6.17021 28.561 6.33589 28.6552 6.46444 28.7905C6.59298 28.9258 6.67865 29.0961 6.71067 29.2799C6.73151 29.4033 6.72782 29.5297 6.69983 29.6517C6.67183 29.7737 6.62007 29.8889 6.5475 29.9909C6.47493 30.0929 6.38297 30.1796 6.27689 30.2461C6.1708 30.3125 6.05267 30.3574 5.92923 30.3781" fill="#00B7D2"/>
<path d="M44.7499 17.8862C44.6285 17.9078 44.0779 18.1295 43.668 18.3004L45.3 17.5252C46.896 16.929 46.7107 15.0892 46.4621 14.5386C46.2915 14.165 46.023 13.8445 45.6849 13.6113C45.3468 13.378 44.9519 13.2407 44.5421 13.2138L45.5721 7.20999C45.6365 6.83471 45.6258 6.4504 45.5406 6.07929C45.4555 5.70817 45.2976 5.35762 45.0761 5.04792C44.8546 4.73822 44.5739 4.47551 44.2502 4.275C43.9265 4.07449 43.5663 3.94015 43.1904 3.87975L32.2363 2.10711C31.4868 1.98574 30.7196 2.16527 30.1018 2.60664C29.484 3.04802 29.0654 3.71552 28.9373 4.46391L27.971 10.0982L19.0805 15.2495C16.9555 16.4807 15.0144 19.0458 16.1429 22.378L11.4413 24.4646C11.4097 24.3945 11.3643 24.3315 11.3079 24.2793C11.2514 24.2272 11.185 24.1869 11.1127 24.161C11.0403 24.135 10.9635 24.1239 10.8868 24.1283C10.81 24.1327 10.735 24.1526 10.6661 24.1866L8.15998 25.4246L7.97278 25.0108C7.92043 24.8949 7.84559 24.7906 7.75261 24.7039C7.65962 24.6173 7.55034 24.5499 7.43112 24.5058C7.31189 24.4617 7.18508 24.4417 7.05806 24.4469C6.93104 24.4522 6.80634 24.4827 6.69118 24.5366L1.1635 27.1228C0.93489 27.2298 0.757599 27.4225 0.67001 27.6592C0.58242 27.8959 0.591579 28.1576 0.695504 28.3876L8.36926 45.3652C8.42157 45.481 8.49636 45.5853 8.58929 45.672C8.68222 45.7587 8.79144 45.8261 8.91062 45.8703C9.0298 45.9144 9.15656 45.9345 9.28355 45.9293C9.41054 45.9241 9.53523 45.8937 9.65038 45.8399L15.1824 43.2546C15.4112 43.1478 15.5887 42.955 15.6764 42.7182C15.7641 42.4813 15.7549 42.2195 15.6509 41.9894L14.9462 40.4318L17.1518 39.3412C17.3749 39.231 17.5465 39.0385 17.6304 38.8042C17.7143 38.57 17.704 38.3123 17.6016 38.0855L16.5806 35.8257L21.5203 33.634C22.5585 35.1585 24.5405 35.9121 26.6851 35.5338C27.1954 35.4429 27.693 35.2908 28.1669 35.0807L32.5872 33.1199L38.0793 34.0094C38.8285 34.13 39.595 33.9502 40.2123 33.5089C40.8296 33.0676 41.2478 32.4005 41.376 31.6525L41.8277 29.0193L44.0673 28.0266C45.2193 27.5135 45.7421 26.1748 45.2294 25.0396C44.807 24.1031 43.7568 23.5814 42.731 23.7479L46.0689 22.1692C47.6342 21.4012 47.4797 19.7327 47.231 19.1822C47.0198 18.7211 46.6612 18.3434 46.2116 18.1087C45.762 17.874 45.247 17.7957 44.748 17.8862H44.7499ZM45.1147 15.1358C45.203 15.333 45.3067 15.8793 44.7009 16.2023L43.9728 16.5263L44.291 14.6658C44.4605 14.6482 44.6312 14.684 44.7793 14.7683C44.9273 14.8525 45.0453 14.981 45.1166 15.1358H45.1147ZM13.6008 42.669L10.2437 44.2377C10.1285 44.2915 10.0039 44.3219 9.8769 44.3271C9.74994 44.3324 9.62319 44.3123 9.50402 44.2682C9.38485 44.2241 9.27562 44.1568 9.18267 44.0701C9.08972 43.9835 9.0149 43.8792 8.96254 43.7634L2.27662 28.9727C2.1727 28.7427 2.16354 28.481 2.25113 28.2443C2.33872 28.0076 2.51601 27.8149 2.74462 27.7079L6.09982 26.1388C6.21495 26.0849 6.33963 26.0544 6.46662 26.0491C6.59362 26.0438 6.72041 26.0637 6.83964 26.1078C6.95886 26.1519 7.06815 26.2192 7.16115 26.3058C7.25416 26.3925 7.32903 26.4967 7.38142 26.6126L14.0688 41.4038C14.1729 41.6338 14.1821 41.8956 14.0945 42.1325C14.0069 42.3693 13.8295 42.5621 13.6008 42.669ZM15.3369 38.661L15.2808 38.6908C15.1649 38.7525 15.0376 38.7897 14.9067 38.8002C14.7758 38.8107 14.6442 38.7943 14.52 38.7519C14.3957 38.7095 14.2815 38.6421 14.1843 38.5538C14.0871 38.4655 14.0091 38.3583 13.955 38.2386L9.10366 27.5087C9.00318 27.2866 8.99097 27.0346 9.06951 26.8038C9.14804 26.573 9.31144 26.3807 9.52654 26.266L10.4865 25.7543L15.7603 37.4183C15.8609 37.6406 15.873 37.8928 15.7943 38.1237C15.7155 38.3547 15.5519 38.5469 15.3365 38.6615L15.3369 38.661ZM27.5693 33.7564C27.2061 33.9181 26.8246 34.035 26.4331 34.1044C24.6864 34.4121 23.1096 33.7286 22.512 32.3999L22.2129 31.737L16.0766 34.4586L12.1358 25.7438L18.0557 23.1172L17.7571 22.4558C16.1731 18.9556 18.9374 17.0126 19.8211 16.4994L28.4563 11.4969C28.6905 12.0249 28.7501 12.537 28.6363 13.0228C28.5259 13.4927 28.3733 13.9348 27.9921 14.2199L24.384 16.9439L25.1145 18.1919L26.7067 17.4839L25.6627 23.5588C24.1857 25.1946 20.5013 26.3999 20.5013 26.3999C22.9166 26.2713 24.4881 25.6689 25.3848 25.1855L24.7469 28.9069C24.6826 29.2819 24.6933 29.6659 24.7783 30.0367C24.8633 30.4075 25.0209 30.7578 25.2421 31.0674C25.4632 31.3769 25.7435 31.6396 26.0667 31.8402C26.3899 32.0408 26.7497 32.1754 27.1253 32.2362L29.9649 32.6961L27.5693 33.7564ZM43.0003 25.1726C43.1785 25.1404 43.3623 25.1684 43.5228 25.2522C43.6833 25.336 43.8114 25.4707 43.8869 25.6353C43.9301 25.7324 43.9537 25.8371 43.9563 25.9434C43.9589 26.0496 43.9405 26.1554 43.902 26.2545C43.8636 26.3536 43.806 26.4442 43.7325 26.5209C43.6589 26.5977 43.571 26.6592 43.4736 26.7018L42.1262 27.2999L42.4521 25.3919C42.6691 25.2959 42.9585 25.1778 43.0003 25.1706V25.1726ZM39.8213 31.3127C39.7785 31.5621 39.6389 31.7845 39.433 31.9316C39.227 32.0787 38.9714 32.1385 38.7216 32.098L27.1325 30.2222C27.0072 30.2019 26.8872 30.157 26.7794 30.0901C26.6716 30.0232 26.5782 29.9356 26.5044 29.8324C26.4307 29.7292 26.3782 29.6123 26.3498 29.4887C26.3215 29.365 26.318 29.2369 26.3395 29.1119L28.5792 16.0516C29.1485 15.6052 30.0134 14.7556 30.2961 13.5671C30.5424 12.5375 30.3115 11.4878 29.6112 10.4471L29.5555 10.3631L30.5088 4.80471C30.5515 4.55522 30.691 4.33268 30.8969 4.18552C31.1029 4.03836 31.3586 3.9785 31.6085 4.01895L43.2 5.89431C43.3252 5.91456 43.4451 5.95941 43.5529 6.02628C43.6606 6.09314 43.7541 6.1807 43.8278 6.28388C43.9015 6.38707 43.9541 6.50384 43.9824 6.62746C44.0108 6.75107 44.0144 6.87907 43.9929 7.00407L39.8213 31.3127ZM45.4757 20.8458L43.0488 21.923L43.3761 20.0159C43.8979 19.785 44.9525 19.3266 45.0024 19.318C45.1803 19.286 45.3638 19.314 45.5241 19.3976C45.6844 19.4811 45.8124 19.6156 45.888 19.7798C45.9763 19.9766 46.1654 20.4604 45.4747 20.8458" fill="#00B7D2"/>
</g>
<defs>
<clipPath id="clip0">
<rect width="48" height="48" fill="white"/>
</clipPath>
</defs>
</svg>
