<svg width="48" height="48" viewBox="0 0 48 48" fill="none" xmlns="http://www.w3.org/2000/svg">
<g clip-path="url(#clip0)">
<path opacity="0.3" d="M2.33691 23.9452C2.33691 1.59687 50.7948 -8.12217 43.9385 8.00918C37.2891 23.6519 39.9512 27.9013 44.3004 36.717C54.6848 57.765 2.33691 46.989 2.33691 23.949" fill="#00B7D2"/>
<path d="M40.3261 24.011C40.3247 20.2327 39.0133 16.5719 36.6155 13.6521C34.2176 10.7323 30.8815 8.73429 27.1756 7.99837C23.4698 7.26245 19.6234 7.8342 16.2918 9.6162C12.9603 11.3982 10.3496 14.2802 8.90464 17.7712C7.45968 21.2622 7.26982 25.1462 8.36741 28.7615C9.465 32.3767 11.7821 35.4996 14.924 37.5981C18.0659 39.6965 21.8382 40.6407 25.5982 40.2697C29.3581 39.8987 32.8731 38.2356 35.5444 35.5636C37.0653 34.0495 38.2711 32.2489 39.0918 30.266C39.9126 28.283 40.3321 26.157 40.3261 24.011ZM18.7554 20.3462C18.3297 20.4608 17.8796 20.4471 17.4617 20.3066C17.0439 20.1662 16.6768 19.9053 16.4068 19.5567C16.1368 19.2082 15.9759 18.7877 15.9443 18.3479C15.9127 17.9082 16.0119 17.4689 16.2293 17.0854C16.4467 16.7019 16.7726 16.3912 17.1662 16.1924C17.5597 15.9937 18.0032 15.9157 18.4409 15.9684C18.8786 16.021 19.291 16.2019 19.6261 16.4883C19.9613 16.7747 20.2043 17.1538 20.3245 17.578C21.1999 16.732 22.3215 16.186 23.5274 16.019C24.7333 15.852 25.9611 16.0725 27.0335 16.6487L28.6002 17.4969C28.9272 17.6745 29.1702 17.9748 29.2758 18.3316C29.3814 18.6884 29.3409 19.0726 29.1633 19.3996C29.0753 19.5615 28.9563 19.7045 28.8131 19.8204C28.6698 19.9363 28.5052 20.0229 28.3285 20.0752C27.9717 20.1808 27.5875 20.1403 27.2605 19.9626L25.6938 19.115C25.021 18.7704 24.2403 18.7025 23.5181 18.9257C22.796 19.149 22.1897 19.6457 21.8288 20.3098C21.4678 20.9739 21.3808 21.7528 21.5863 22.4802C21.7918 23.2076 22.2735 23.8258 22.9285 24.203L24.4953 25.0506C24.8217 25.2286 25.0641 25.5289 25.1694 25.8855C25.2746 26.2421 25.2341 26.6259 25.0566 26.9527C24.8792 27.2794 24.5793 27.5224 24.2229 27.6283C23.8665 27.7341 23.4826 27.6942 23.1556 27.5174L21.5889 26.6687C20.4892 26.0702 19.6166 25.1273 19.1049 23.9847C18.5933 22.8421 18.471 21.5631 18.7568 20.3442L18.7554 20.3462ZM29.84 31.8503C29.4281 31.8505 29.0241 31.7371 28.6725 31.5225C28.3209 31.3079 28.0353 31.0004 27.8471 30.634C26.7941 31.574 25.4321 32.0937 24.0205 32.0942C23.0729 32.0943 22.1403 31.8575 21.3076 31.4054L19.7408 30.5567C19.5761 30.4703 19.4302 30.3521 19.3116 30.2088C19.193 30.0655 19.1041 29.9001 19.05 29.7221C18.9959 29.5441 18.9777 29.3572 18.9965 29.1721C19.0154 28.9871 19.0708 28.8076 19.1596 28.6442C19.2484 28.4808 19.3688 28.3366 19.5139 28.2202C19.6589 28.1037 19.8256 28.0172 20.0044 27.9658C20.1831 27.9144 20.3703 27.899 20.5551 27.9205C20.7398 27.9421 20.9184 28.0002 21.0805 28.0914L22.6458 28.9439C23.3212 29.3106 24.1145 29.394 24.8514 29.1758C25.2162 29.0677 25.5562 28.8888 25.8519 28.6494C26.1476 28.4099 26.3933 28.1145 26.5749 27.7802C26.7564 27.4458 26.8703 27.0789 26.9101 26.7004C26.9499 26.322 26.9148 25.9395 26.8067 25.5746C26.6986 25.2098 26.5198 24.8698 26.2803 24.5741C26.0408 24.2783 25.7455 24.0327 25.4111 23.8511L23.8444 23.003C23.6791 22.9169 23.5326 22.7987 23.4134 22.6554C23.2943 22.5121 23.2049 22.3465 23.1504 22.1682C23.096 21.99 23.0776 21.8027 23.0963 21.6173C23.115 21.4318 23.1705 21.252 23.2594 21.0882C23.3484 20.9244 23.4691 20.78 23.6144 20.6634C23.7598 20.5468 23.9269 20.4603 24.1061 20.4089C24.2853 20.3576 24.4729 20.3425 24.6579 20.3644C24.843 20.3863 25.0219 20.4449 25.184 20.5367L26.7513 21.3854C27.803 21.9558 28.6488 22.8425 29.169 23.92C29.6892 24.9975 29.8574 26.2113 29.65 27.3897C29.7124 27.3849 29.7753 27.381 29.8386 27.381C30.135 27.3767 30.4292 27.4313 30.7042 27.5417C30.9793 27.6521 31.2296 27.8161 31.4407 28.0241C31.6518 28.2321 31.8195 28.4801 31.9339 28.7535C32.0483 29.0268 32.1072 29.3203 32.1072 29.6166C32.1072 29.913 32.0483 30.2064 31.9339 30.4798C31.8195 30.7532 31.6518 31.0011 31.4407 31.2091C31.2296 31.4172 30.9793 31.5812 30.7042 31.6916C30.4292 31.802 30.135 31.8566 29.8386 31.8522" fill="white"/>
<path d="M0.233763 9.56064L0.226562 9.552L0.233763 9.56064Z" fill="white"/>
<path d="M7.20117 15.8755L7.20789 15.8793L7.21557 15.8836L7.20117 15.8755Z" fill="white"/>
<path d="M45.9268 37.3594L45.9378 37.3469L45.9268 37.3594Z" fill="#00B7D2"/>
<path d="M43.6179 38.6035H45.823L45.7889 38.6333L40.9299 42.8573C40.7043 43.0536 40.6505 43.4386 40.8123 43.7155C40.9083 43.8835 41.0638 43.9719 41.2179 43.9719C41.3244 43.9705 41.4268 43.9304 41.5059 43.8591L47.7555 38.4255C47.8223 38.3603 47.8755 38.2825 47.9117 38.1965C47.948 38.1105 47.9667 38.0181 47.9667 37.9248C47.9667 37.8315 47.948 37.7391 47.9117 37.6531C47.8755 37.5671 47.8223 37.4893 47.7555 37.4242L41.5068 31.9887C41.4575 31.9434 41.3982 31.9105 41.3337 31.8924C41.2693 31.8743 41.2015 31.8716 41.1358 31.8845C41.0674 31.9006 41.0031 31.931 40.9473 31.9737C40.8915 32.0164 40.8453 32.0704 40.8118 32.1322C40.65 32.4091 40.7038 32.7941 40.9294 32.9904L45.9363 37.3469L45.9704 37.3762H35.7123C35.2145 37.8144 34.6924 38.2241 34.1484 38.6035H43.6179Z" fill="#00B7D2"/>
<path d="M9.62646 37.9901C9.62646 38.3324 9.85302 38.6036 10.1266 38.6036H13.8495C13.3065 38.224 12.7852 37.8142 12.2881 37.3762H10.1281C9.85446 37.3762 9.6279 37.6474 9.6279 37.9901" fill="#00B7D2"/>
<path d="M47.7772 37.3988L41.5286 31.9633C41.4753 31.9147 41.4114 31.8792 41.342 31.8598C41.2725 31.8404 41.1995 31.8375 41.1288 31.8514C41.0557 31.8685 40.9871 31.9009 40.9275 31.9464C40.8678 31.9919 40.8185 32.0495 40.7827 32.1154C40.6133 32.4034 40.6684 32.8081 40.907 33.0159L45.8822 37.3441H35.7542L35.7163 37.3777H45.972L45.9379 37.3484L45.9268 37.3609L45.9379 37.3484L40.9291 32.9905C40.704 32.7942 40.6497 32.4092 40.8115 32.1322C40.845 32.0704 40.8911 32.0164 40.947 31.9737C41.0028 31.931 41.0671 31.9006 41.1355 31.8846C41.2012 31.8716 41.269 31.8743 41.3334 31.8924C41.3979 31.9105 41.4572 31.9435 41.5065 31.9887L47.7552 37.4242C47.822 37.4893 47.8752 37.5672 47.9114 37.6532C47.9477 37.7392 47.9664 37.8315 47.9664 37.9249C47.9664 38.0182 47.9477 38.1106 47.9114 38.1966C47.8752 38.2825 47.822 38.3604 47.7552 38.4255L41.5065 43.8596C41.4274 43.9309 41.325 43.971 41.2185 43.9724C41.064 43.9724 40.9104 43.8841 40.8125 43.7161C40.6502 43.4401 40.704 43.0561 40.9296 42.8578L45.7886 38.6338L45.8227 38.6041H34.1501C34.1342 38.6156 34.1179 38.6266 34.1021 38.6377H45.7325L40.9075 42.8329C40.6675 43.0407 40.6137 43.4439 40.7827 43.7333C40.8864 43.91 41.0501 44.0065 41.2181 44.0065C41.3328 44.0052 41.4432 43.9622 41.5286 43.8855L47.7772 38.4509C47.8477 38.3827 47.9038 38.3009 47.9421 38.2105C47.9803 38.1202 48.0001 38.023 48.0001 37.9249C48.0001 37.8267 47.9803 37.7296 47.9421 37.6392C47.9038 37.5488 47.8477 37.4671 47.7772 37.3988Z" fill="#00B7D2"/>
<path d="M13.8494 38.6035H10.128C9.8544 38.6035 9.62784 38.3323 9.62784 37.9901C9.62784 37.6478 9.8544 37.3761 10.128 37.3761H12.288L12.2501 37.3425H10.128C9.82992 37.3425 9.59424 37.6353 9.59424 37.9901C9.59424 38.3448 9.82992 38.6371 10.128 38.6371H13.8994L13.8514 38.6035" fill="#00B7D2"/>
<path d="M6.4911 4.13952L6.49206 4.14096L6.48438 4.13232L6.4911 4.13952Z" fill="#00B7D2"/>
<path d="M7.19995 15.8756L7.18555 15.8669L7.19995 15.8756Z" fill="#00B7D2"/>
<path d="M2.15293 9.41767L2.18701 9.38839L7.06909 5.1423C7.29469 4.94646 7.34845 4.5615 7.18669 4.28454C7.15354 4.22266 7.10766 4.16851 7.05206 4.12565C6.99646 4.08279 6.93241 4.05221 6.86413 4.0359C6.79845 4.02315 6.73069 4.02601 6.66632 4.04427C6.60195 4.06254 6.54277 4.09568 6.49357 4.14102L0.244931 9.57367C0.178078 9.63879 0.124944 9.71663 0.0886634 9.80262C0.052383 9.8886 0.0336914 9.98098 0.0336914 10.0743C0.0336914 10.1676 0.052383 10.26 0.0886634 10.346C0.124944 10.432 0.178078 10.5098 0.244931 10.5749L6.49213 16.0105C6.5713 16.0817 6.67364 16.1218 6.78013 16.1233C6.93469 16.1233 7.08781 16.035 7.18621 15.867C7.34797 15.59 7.29421 15.205 7.06861 15.0087L2.08621 10.6743L2.05261 10.645H12.2881C12.7861 10.207 13.3082 9.79723 13.852 9.41767H2.15293Z" fill="#00B7D2"/>
<path d="M7.20092 4.27588L7.19612 4.27876L7.18652 4.28452L7.20092 4.27588Z" fill="#00B7D2"/>
<path d="M38.3734 10.0319C38.3734 9.68917 38.1473 9.41797 37.8737 9.41797H34.1499C34.6931 9.79754 35.2147 10.2071 35.7123 10.6448H37.8723C38.1459 10.6448 38.372 10.3736 38.372 10.0314" fill="#00B7D2"/>
<path d="M0.233887 9.56055L0.244927 9.57351L0.234367 9.56103L0.233887 9.56055Z" fill="#00B7D2"/>
<path d="M2.19805 9.40091L2.18701 9.38843L2.19805 9.40091Z" fill="#00B7D2"/>
<path d="M7.20009 15.8755L7.18569 15.8669C7.08729 16.0349 6.93417 16.1232 6.77961 16.1232C6.67311 16.1217 6.57078 16.0816 6.49161 16.0104L0.244887 10.5749C0.178033 10.5098 0.124899 10.4319 0.0886188 10.3459C0.0523384 10.2599 0.0336469 10.1676 0.0336469 10.0742C0.0336469 9.98091 0.0523384 9.88853 0.0886188 9.80255C0.124899 9.71656 0.178033 9.63871 0.244887 9.5736L0.233847 9.56064L0.226647 9.552L0.233847 9.56016L0.244407 9.57216L6.49209 4.14096L6.48537 4.13376L6.49305 4.1424C6.54217 4.09673 6.60136 4.06328 6.66583 4.04476C6.73029 4.02625 6.79822 4.02319 6.86409 4.03584C6.93263 4.05196 6.99696 4.08246 7.05282 4.12533C7.10868 4.16819 7.15478 4.22244 7.18809 4.28448L7.19769 4.27872L7.20249 4.27584L7.18809 4.28448C7.34985 4.56144 7.29609 4.9464 7.07049 5.14224L2.18697 9.38832L2.19801 9.4008L2.18697 9.38832L2.15289 9.4176H13.8505L13.8985 9.384H2.24265L7.09065 5.16768C7.33065 4.95984 7.38441 4.55712 7.21497 4.2672C7.17936 4.20113 7.13007 4.1434 7.0704 4.09788C7.01072 4.05235 6.94202 4.02008 6.86889 4.0032C6.79817 3.98936 6.7252 3.99231 6.65584 4.01182C6.58647 4.03133 6.52266 4.06685 6.46953 4.11552L0.222807 9.54816C0.152318 9.61645 0.0962726 9.6982 0.0579978 9.78858C0.0197231 9.87895 0 9.97609 0 10.0742C0 10.1724 0.0197231 10.2695 0.0579978 10.3599C0.0962726 10.4503 0.152318 10.532 0.222807 10.6003L6.47001 16.0353C6.55525 16.1124 6.6657 16.1555 6.78057 16.1568C6.94857 16.1568 7.11225 16.0608 7.21545 15.8837L7.20777 15.8793L7.20009 15.8755Z" fill="#00B7D2"/>
<path d="M34.1496 9.41763H37.872C38.1451 9.41763 38.3716 9.68883 38.3716 10.0316C38.3716 10.3743 38.1451 10.645 37.872 10.645H35.712L35.7499 10.6786H37.872C38.1696 10.6786 38.4052 10.3858 38.4052 10.0316C38.4052 9.67731 38.171 9.38403 37.872 9.38403H34.1011L34.1491 9.41763" fill="#00B7D2"/>
<path d="M12.2878 10.645H2.05273L2.08633 10.6748L7.06874 15.0087C7.29434 15.205 7.3481 15.59 7.18634 15.8669L7.20074 15.8756L7.21514 15.8837C7.38458 15.5957 7.32938 15.1911 7.09082 14.9837L2.14249 10.6786H12.2484L12.2863 10.645" fill="#00B7D2"/>
<path d="M34.15 38.6035C34.6932 38.2241 35.2147 37.8143 35.7119 37.3762L35.7498 37.3426C36.0263 37.0978 36.2964 36.8442 36.56 36.5818C38.2116 34.9313 39.5217 32.9716 40.4155 30.8146C41.3093 28.6576 41.7694 26.3457 41.7694 24.0108C41.7694 21.676 41.3093 19.364 40.4155 17.207C39.5217 15.05 38.2116 13.0903 36.56 11.4399C36.297 11.1768 36.0266 10.9231 35.7489 10.6786L35.7114 10.645C35.2134 10.2071 34.6913 9.7973 34.1476 9.41762L34.0996 9.38402C31.1322 7.3284 27.6083 6.22705 23.9984 6.22705C20.3886 6.22705 16.8647 7.3284 13.8973 9.38402L13.8493 9.41762C13.3063 9.79725 12.785 10.207 12.2879 10.645L12.25 10.6786C11.9735 10.9234 11.7023 11.1768 11.4392 11.4399C9.78763 13.0903 8.47743 15.05 7.58351 17.2069C6.6896 19.3639 6.22949 21.6759 6.22949 24.0108C6.22949 26.3457 6.6896 28.6577 7.58351 30.8147C8.47743 32.9717 9.78763 34.9314 11.4392 36.5818C11.7023 36.8448 11.9724 37.0984 12.2495 37.3426L12.2874 37.3762C12.7851 37.8142 13.3071 38.224 13.8508 38.6035L13.8988 38.6371C16.8661 40.6937 20.3903 41.7955 24.0006 41.7955C27.6109 41.7955 31.1352 40.6937 34.1024 38.6371C34.1188 38.6261 34.1351 38.6151 34.1504 38.6035H34.15ZM23.9999 40.3488C20.7703 40.3456 17.614 39.3854 14.9297 37.5895C12.2455 35.7936 10.1536 33.2426 8.91833 30.2585C7.68306 27.2744 7.35977 23.9912 7.98931 20.8235C8.61885 17.6559 10.173 14.7458 12.4554 12.4608C15.5247 9.42467 19.6712 7.72729 23.9884 7.7398C28.3056 7.75231 32.4423 9.4737 35.4939 12.5276C38.5455 15.5815 40.2638 19.7194 40.2731 24.0366C40.2823 28.3538 38.5819 32.4991 35.5434 35.5661C34.0312 37.0871 32.2323 38.293 30.2508 39.114C28.2694 39.935 26.1447 40.3547 23.9999 40.3488Z" fill="#00B7D2"/>
<path d="M29.8385 27.3811C29.7751 27.3811 29.7122 27.385 29.6498 27.3898C29.8573 26.2114 29.689 24.9976 29.1689 23.9201C28.6487 22.8426 27.8029 21.9559 26.7511 21.3854L25.1839 20.5368C25.0217 20.445 24.8429 20.3864 24.6578 20.3645C24.4727 20.3426 24.2851 20.3577 24.106 20.409C23.9268 20.4604 23.7597 20.5469 23.6143 20.6635C23.4689 20.7801 23.3483 20.9245 23.2593 21.0883C23.1703 21.2521 23.1149 21.4319 23.0962 21.6174C23.0775 21.8028 23.0959 21.9901 23.1503 22.1683C23.2048 22.3466 23.2942 22.5122 23.4133 22.6555C23.5325 22.7988 23.679 22.9169 23.8443 23.003L25.411 23.8512C25.7454 24.0328 26.0407 24.2784 26.2802 24.5741C26.5196 24.8699 26.6985 25.2099 26.8066 25.5747C26.9146 25.9395 26.9498 26.3221 26.91 26.7005C26.8702 27.0789 26.7563 27.4458 26.5747 27.7802C26.3932 28.1146 26.1475 28.41 25.8518 28.6494C25.5561 28.8889 25.2161 29.0678 24.8512 29.1758C24.1144 29.3941 23.321 29.3107 22.6457 28.944L21.079 28.0958C20.9169 28.0046 20.7383 27.9465 20.5535 27.9249C20.3688 27.9034 20.1816 27.9188 20.0028 27.9702C19.8241 28.0216 19.6573 28.1081 19.5123 28.2246C19.3673 28.341 19.2469 28.4852 19.1581 28.6486C19.0692 28.812 19.0138 28.9915 18.995 29.1765C18.9762 29.3616 18.9943 29.5485 19.0484 29.7265C19.1025 29.9045 19.1914 30.0699 19.31 30.2132C19.4287 30.3565 19.5746 30.4747 19.7393 30.5611L21.306 31.4097C22.1388 31.8619 23.0714 32.0987 24.019 32.0985C25.4305 32.0981 26.7925 31.5784 27.8455 30.6384C28.0263 30.9929 28.2982 31.2927 28.6334 31.5072C28.9685 31.7216 29.3548 31.8428 29.7524 31.8583C30.15 31.8738 30.5445 31.783 30.8953 31.5953C31.2462 31.4077 31.5406 31.1299 31.7484 30.7905C31.9562 30.4512 32.0697 30.0626 32.0774 29.6648C32.085 29.267 31.9865 28.8743 31.792 28.5273C31.5974 28.1802 31.3138 27.8913 30.9705 27.6902C30.6271 27.4892 30.2364 27.3833 29.8385 27.3835" fill="#00B7D2"/>
<path d="M21.5894 26.6708L23.1561 27.5195C23.3181 27.6078 23.4959 27.6633 23.6794 27.6829C23.8629 27.7024 24.0484 27.6856 24.2254 27.6334C24.4023 27.5811 24.5673 27.4945 24.7107 27.3785C24.8542 27.2624 24.9734 27.1192 25.0614 26.9571C25.1495 26.7949 25.2047 26.617 25.2239 26.4335C25.2432 26.25 25.226 26.0645 25.1735 25.8876C25.1209 25.7107 25.034 25.546 24.9178 25.4027C24.8015 25.2594 24.6581 25.1405 24.4958 25.0527L22.9291 24.2051C22.274 23.8279 21.7923 23.2097 21.5868 22.4823C21.3813 21.7549 21.4684 20.976 21.8293 20.3119C22.1902 19.6478 22.7965 19.1511 23.5186 18.9278C24.2408 18.7046 25.0216 18.7725 25.6943 19.1171L27.2611 19.9647C27.423 20.0527 27.6006 20.1079 27.7838 20.1272C27.9671 20.1465 28.1523 20.1296 28.329 20.0773C28.5057 20.025 28.6704 19.9384 28.8136 19.8225C28.9568 19.7066 29.0758 19.5636 29.1638 19.4017C29.2517 19.2398 29.307 19.0621 29.3263 18.8789C29.3456 18.6957 29.3286 18.5104 29.2763 18.3337C29.224 18.157 29.1375 17.9924 29.0215 17.8492C28.9056 17.7059 28.7626 17.5869 28.6007 17.499L27.0345 16.6508C25.9621 16.0744 24.7343 15.8539 23.5284 16.0209C22.3225 16.1879 21.2009 16.7339 20.3255 17.5801C20.2056 17.155 19.9627 16.7749 19.6272 16.4876C19.2917 16.2004 18.8788 16.0188 18.4403 15.9657C18.0018 15.9126 17.5575 15.9904 17.1631 16.1894C16.7688 16.3883 16.4422 16.6995 16.2243 17.0837C16.0065 17.4679 15.9072 17.908 15.9389 18.3485C15.9706 18.789 16.132 19.2103 16.4026 19.5593C16.6733 19.9083 17.0411 20.1695 17.4599 20.3099C17.8787 20.4503 18.3296 20.4636 18.7559 20.3483C18.4701 21.5671 18.5924 22.8461 19.104 23.9887C19.6156 25.1313 20.4883 26.0743 21.5879 26.6727" fill="#00B7D2"/>
</g>
<defs>
<clipPath id="clip0">
<rect width="48" height="48" fill="white"/>
</clipPath>
</defs>
</svg>
