<svg width="68" height="117" viewBox="0 0 68 117" fill="none" xmlns="http://www.w3.org/2000/svg">
<path fill-rule="evenodd" clip-rule="evenodd" d="M0.0111108 5.98598C0.0111108 5.52341 0.0118057 5.06083 0.0125004 4.59843C0.0145834 3.21193 0.016664 1.82701 0 0.448388C0 0.100887 0.0666645 0 0.422209 0C3.12212 0.0112097 5.82204 0.0112097 8.52195 0C8.84416 0 8.93305 0.100887 8.91083 0.403549C8.88861 0.885567 8.88861 1.37879 8.91083 1.86081C8.93305 2.1971 8.79972 2.25315 8.49973 2.25315C7.60531 2.24755 6.70812 2.24755 5.81093 2.24755C4.91373 2.24755 4.01654 2.24755 3.12212 2.24194C2.74436 2.24194 2.59992 2.33162 2.63325 2.72396C2.66658 3.2396 2.66658 3.76646 2.63325 4.29332C2.61103 4.68566 2.73325 4.79775 3.12212 4.79775C3.91654 4.78654 4.71095 4.78654 5.50537 4.78654C6.29979 4.78654 7.09421 4.78654 7.88864 4.77533C8.27751 4.77533 8.41084 4.88743 8.37751 5.26856C8.34418 5.6609 8.34418 6.05324 8.37751 6.44558C8.41084 6.8155 8.2664 6.87155 7.94419 6.86034C7.13865 6.85473 6.33311 6.85473 5.52896 6.85473C4.72483 6.85473 3.92209 6.85473 3.12212 6.84913C2.74436 6.84913 2.61103 6.93881 2.63325 7.33115C2.66658 8.00373 2.66658 8.67631 2.63325 9.34889C2.62214 9.69639 2.72214 9.78607 3.06657 9.77486C3.98314 9.76365 4.89971 9.76365 5.81489 9.76365H5.81512C6.73036 9.76365 7.64421 9.76365 8.55528 9.75244C8.92194 9.75244 9.0886 9.80849 9.05527 10.2232C9.01082 10.6828 9.03304 11.1537 9.05527 11.6245C9.06638 11.9047 8.99971 12.0056 8.69972 12.0056C5.92203 11.9944 3.15545 11.9944 0.377766 12.0056C0.0202346 12.0056 0.0209886 11.8449 0.0220951 11.6092L0.0222215 11.5684C0.0111108 9.71881 0.0111108 7.84679 0.0111108 5.98598ZM16.2552 3.14994C14.9219 2.8809 13.8219 3.25082 12.8441 4.43905C12.8441 4.31771 12.8425 4.21982 12.8411 4.13761L12.8411 4.13752C12.8389 4.00714 12.8373 3.91622 12.8441 3.83373C12.9219 3.37413 12.7108 3.26203 12.2886 3.29566C11.8442 3.32929 11.3998 3.31808 10.9553 3.29566C10.6776 3.28445 10.5664 3.36292 10.5664 3.66558C10.5776 6.33349 10.5776 9.0014 10.5664 11.6693C10.5664 11.9271 10.622 12.0392 10.8998 12.028C11.4775 12.0056 12.0553 12.0056 12.6219 12.028C12.933 12.0504 12.9997 11.9271 12.9886 11.6469C12.9719 11.0584 12.974 10.4699 12.9761 9.88144V9.88135C12.9768 9.68519 12.9775 9.48902 12.9775 9.29285C12.9775 9.03663 12.9757 8.78041 12.9739 8.52419V8.52413C12.9693 7.88359 12.9648 7.24306 12.9886 6.60253C13.0219 5.63849 13.733 4.96591 14.6219 4.97712C15.4885 4.98833 15.8885 5.43672 15.9218 6.54648C15.9536 7.55504 15.957 8.56932 15.9604 9.58115V9.58121V9.5816C15.9617 9.98662 15.9631 10.3912 15.9663 10.795C15.9663 11.4039 15.9663 11.7066 16.1176 11.857C16.2671 12.0056 16.5643 12.0056 17.1551 12.0056C17.7405 12.0056 18.0323 12.0056 18.1803 11.8597C18.3274 11.7148 18.3325 11.4258 18.3428 10.8498L18.344 10.7837C18.3556 10.2724 18.347 9.7596 18.3383 9.24643V9.24633V9.24624V9.24614V9.24605V9.24596V9.24586V9.24577V9.24567V9.24558V9.24548V9.24539V9.24529V9.2452V9.24511V9.24501V9.24492V9.24482V9.24473V9.24463V9.24454V9.24444V9.24435C18.3221 8.28465 18.306 7.32351 18.4217 6.36712C18.544 5.40309 19.1439 4.90986 20.0328 4.96591C20.8883 5.02196 21.3105 5.50397 21.3217 6.52406C21.3439 8.18309 21.355 9.84213 21.3328 11.5012C21.3217 11.9383 21.455 12.0504 21.855 12.0168C22.3772 11.9832 22.8883 11.9944 23.4105 12.0168C23.666 12.0168 23.7549 11.9383 23.7549 11.6693C23.7507 10.9631 23.7513 10.2569 23.7518 9.55069V9.55038C23.7527 8.37346 23.7535 7.19654 23.7327 6.01962C23.7105 4.82018 23.3105 3.74405 22.0661 3.31808C20.6439 2.82486 19.2995 2.94816 18.2329 4.19244L18.2241 4.2025C18.0739 4.37587 17.9853 4.47819 17.8218 4.18123C17.4884 3.5647 16.9218 3.28445 16.2552 3.14994ZM0.0898682 55.1293C0.0898682 36.1849 15.2783 20.8388 34.0555 20.8612C52.9215 20.8837 68.1544 36.3418 67.9988 55.432C67.8433 74.2194 52.7326 89.4198 34.0221 89.4086C15.2227 89.4086 0.0898682 74.0849 0.0898682 55.1293ZM33.9999 84.9023C50.266 84.9023 63.5656 71.4843 63.499 55.1405C63.4323 38.6847 50.2772 25.4236 34.011 25.4348C17.856 25.446 4.81194 38.5614 4.57861 54.737C4.3564 71.1928 17.4338 84.8126 33.9999 84.9023ZM33.9774 101.145C31.2085 101.145 28.4396 101.144 25.6708 101.144C17.3622 101.142 9.05367 101.14 0.745133 101.156C0.156263 101.156 0.0451556 100.988 0.0673771 100.45C0.105461 99.48 0.0945929 98.5015 0.0837118 97.5219C0.0818949 97.3584 0.0800776 97.1948 0.0784879 97.0312C0.0784879 96.7173 0.156263 96.5716 0.478475 96.6164C0.537926 96.6239 0.602348 96.6214 0.665091 96.6189H0.665122H0.665152H0.665182H0.66521H0.665237H0.665264H0.665289H0.665314H0.665338H0.665362H0.665384H0.665406H0.665428H0.665448H0.665468H0.665487H0.665505H0.665524H0.665541H0.665558H0.665574H0.66559H0.665745H0.665834H0.665925H0.666016H0.666108H0.666201H0.666296H0.666392H0.666488H0.666586H0.666683H0.666782H0.666882H0.666983H0.667085H0.667188H0.667291H0.667396H0.667503H0.66761H0.667718H0.667827H0.667938C0.698028 96.6176 0.727709 96.6164 0.756244 96.6164C22.8889 96.6164 45.0215 96.6164 67.1652 96.6052C67.6986 96.6052 67.8986 96.6837 67.8652 97.289C67.8097 98.3651 67.8208 99.4525 67.8652 100.54C67.8763 101.022 67.7763 101.156 67.2764 101.156C62.0346 101.14 56.7928 101.142 51.551 101.144C49.8041 101.144 48.0572 101.145 46.3103 101.145H33.9774ZM27.6398 12.0872V12.0868V12.0863V12.0858V12.0853V12.0848V12.0843V12.0838V12.0833V12.0828V12.0823V12.0818L27.6398 12.0812C27.6416 11.7326 27.6435 11.376 27.6435 11.008C29.2657 12.9921 32.9323 12.6222 33.7989 9.38256C34.11 8.17191 34.0989 6.97247 33.7322 5.79546C33.2545 4.27094 32.2434 3.29569 30.6212 3.09392C29.4324 2.94819 28.3769 3.25085 27.5435 4.32698C27.5435 4.23351 27.5403 4.15613 27.5376 4.08937C27.5331 3.98001 27.5297 3.89912 27.5435 3.82255C27.6213 3.36295 27.4102 3.25085 26.988 3.28448C26.5436 3.31811 26.0991 3.3069 25.6547 3.28448C25.3658 3.27327 25.2325 3.32932 25.2325 3.67682C25.2436 7.3536 25.2436 11.0192 25.2325 14.696C25.2325 14.9762 25.3103 15.0547 25.5769 15.0435C26.0991 15.021 26.6213 15.0098 27.1324 15.0435C27.5324 15.0771 27.6658 14.9762 27.6546 14.539C27.6311 13.7379 27.6353 12.9369 27.6398 12.0881V12.0881V12.088V12.088V12.088V12.0879V12.0879V12.0878V12.0878V12.0878V12.0877V12.0877V12.0876V12.0876V12.0875V12.0875V12.0874V12.0874V12.0873V12.0873V12.0872ZM27.7991 9.18079C27.6102 8.68756 27.5213 8.17191 27.5435 7.64506C27.5547 7.08457 27.6213 6.5353 27.8658 6.01965C28.188 5.31344 28.7324 4.93231 29.5101 4.90989C30.2879 4.88747 30.8768 5.22376 31.2212 5.91876C31.7879 7.05094 31.7767 8.22796 31.2879 9.37135C30.9657 10.1112 30.3323 10.4475 29.5435 10.4251C28.6991 10.4026 28.1102 9.95426 27.7991 9.18079ZM67.7202 12.0168C67.5212 12.0168 67.3277 12.0124 67.1382 12.008C66.7249 11.9986 66.331 11.9896 65.9424 12.028C65.3647 12.0841 65.1202 11.8711 65.1758 11.2321C63.9981 12.1737 62.7203 12.3979 61.3426 12.1289C60.076 11.8823 59.3649 11.0191 59.3093 9.7076C59.2649 8.46332 59.9315 7.55534 61.1648 7.20784C61.7338 7.04682 62.3158 6.97325 62.8973 6.89974C63.2468 6.85554 63.5962 6.81137 63.9425 6.74824L63.9608 6.74489C64.4446 6.65624 64.9655 6.56079 65.0314 5.91872C65.0869 5.30219 64.7091 4.8538 64.0869 4.75291C62.9314 4.56235 62.5092 4.77533 61.9981 5.82904C61.9178 6.00117 61.8104 5.99953 61.6839 5.9976C61.6703 5.9974 61.6566 5.99719 61.6426 5.99719C61.4771 5.99719 61.3126 5.99535 61.1484 5.99351C60.7393 5.98894 60.3327 5.9844 59.9204 6.0084C59.5649 6.03082 59.576 5.85146 59.6093 5.60485C59.7982 4.48388 60.5093 3.77767 61.5315 3.41896C62.9092 2.93694 64.3314 2.93694 65.7313 3.36291C66.9424 3.73283 67.4202 4.45025 67.4313 5.7842L67.4646 10.9295C67.4757 11.277 67.5646 11.6245 67.7202 12.0168ZM65.0314 7.83558C64.4647 8.0934 63.8981 8.16066 63.3314 8.22792C62.9648 8.27276 62.5981 8.35122 62.2759 8.53058C61.8426 8.77719 61.6759 9.15832 61.7204 9.65155C61.7537 10.0663 61.9759 10.3353 62.3537 10.4811C63.7314 11.0303 64.9314 10.2681 65.0314 8.79961C65.0458 8.6101 65.0415 8.41584 65.0367 8.20143V8.20137V8.20131V8.20125V8.20118V8.20112V8.20105L65.0366 8.2002C65.0341 8.08525 65.0314 7.9645 65.0314 7.83558ZM45.6271 8.26299C45.8542 8.26229 46.0817 8.26158 46.3098 8.26158C46.5437 8.26158 46.7768 8.25907 47.0093 8.25656C47.6271 8.2499 48.2406 8.24328 48.8541 8.284C49.343 8.30642 49.4875 8.13828 49.4097 7.68989C49.393 7.60584 49.3951 7.52178 49.3972 7.43773V7.43768C49.3979 7.40965 49.3986 7.38163 49.3986 7.3536C49.3097 5.43674 48.1986 3.80012 46.6209 3.28448C44.0876 2.45496 41.521 3.8898 40.9433 6.50166C40.3877 8.9678 41.4544 11.8151 44.5543 12.2074C46.6764 12.4764 48.4875 11.5012 49.1208 9.69643C49.2208 9.40497 49.2208 9.29288 48.8764 9.30409C48.4653 9.32651 48.0542 9.32651 47.6542 9.30409C47.332 9.28167 47.1431 9.38256 46.932 9.65159C46.2987 10.4363 45.4431 10.5596 44.5209 10.313C43.6988 10.0888 43.3765 9.46102 43.2321 8.66513C43.1654 8.32884 43.2654 8.23917 43.5876 8.25037C44.2706 8.26718 44.9473 8.26509 45.6271 8.26299ZM45.6098 6.72336C45.432 6.72461 45.2543 6.72586 45.0765 6.72586C44.902 6.72586 44.7288 6.7246 44.5565 6.72335H44.5564H44.5563H44.5562H44.5561H44.5561H44.556H44.5559H44.5558H44.5557H44.5557H44.5556H44.5555H44.5554H44.5553H44.5553H44.5552H44.5551C44.2119 6.72086 43.872 6.7184 43.5321 6.72586C43.2432 6.73707 43.1988 6.64739 43.2543 6.37836C43.4654 5.44795 44.1765 4.88746 45.1876 4.89867C46.132 4.90988 46.7764 5.45916 46.9542 6.41198C46.9986 6.6586 46.9209 6.73707 46.6764 6.72586C46.3209 6.71838 45.9653 6.72087 45.6098 6.72336ZM51.6854 9.16334H51.6855C51.8077 9.16831 51.9283 9.17321 52.0538 9.15831C52.4205 9.11347 52.6204 9.19194 52.7316 9.62912C52.876 10.2344 53.3871 10.4923 53.976 10.5819C54.6426 10.6716 55.287 10.6492 55.7648 10.0999C56.1648 9.64033 55.987 9.06864 55.3648 8.7996C54.8346 8.56901 54.2742 8.43709 53.7086 8.3039L53.7085 8.3039C53.5867 8.27522 53.4647 8.24649 53.3426 8.2167C52.876 8.1046 52.4093 7.98129 51.9649 7.81315C51.1427 7.49928 50.5872 6.92758 50.5427 6.00839C50.4983 5.05556 50.7761 4.19241 51.6427 3.72161C53.3093 2.82483 55.0426 2.84725 56.7425 3.63193C57.487 3.97943 57.8869 4.65201 58.0536 5.47032C58.1092 5.76177 58.0647 5.92992 57.7092 5.89629C57.4711 5.87227 57.233 5.87684 56.9949 5.88142C56.8997 5.88325 56.8044 5.88508 56.7092 5.88508C56.6643 5.88508 56.6199 5.88584 56.5761 5.8866C56.1765 5.89347 55.8318 5.8994 55.6315 5.31339C55.387 4.60717 53.5982 4.48387 53.0982 5.05556C52.8093 5.38064 52.8871 5.82903 53.2871 6.09806C53.6859 6.36345 54.143 6.45885 54.5991 6.55403C54.7402 6.58348 54.8812 6.61291 55.0204 6.64734C55.1287 6.67406 55.2376 6.70026 55.3466 6.72649C55.7408 6.82134 56.1374 6.91675 56.5203 7.03968C57.5203 7.36476 58.2758 7.93646 58.3314 9.10226C58.3869 10.2905 57.9092 11.2209 56.8425 11.7478C55.7648 12.2858 54.6093 12.3307 53.4315 12.1737C52.5093 12.0504 51.676 11.7702 51.0316 11.0528C50.665 10.638 50.465 10.156 50.3761 9.6067C50.3205 9.24799 50.4094 9.12468 50.765 9.16952C50.8872 9.16952 51.0094 9.16672 51.1316 9.16392C51.2538 9.16112 51.376 9.15831 51.4983 9.15831C51.5615 9.15831 51.6235 9.16084 51.6851 9.16334H51.6852H51.6852H51.6852H51.6853H51.6853H51.6853H51.6854H51.6854H51.6854ZM7.73155 110.287C7.78092 110.29 7.82987 110.292 7.87761 110.292C7.94367 110.292 8.01094 110.29 8.07862 110.287L8.07924 110.287C8.21627 110.282 8.35497 110.277 8.48871 110.292C8.88869 110.337 8.94425 110.18 8.85536 109.81C8.6887 109.126 8.39982 108.521 7.91095 108.005C6.37766 106.391 3.34443 106.313 1.64448 107.86C0.18897 109.205 -0.166574 110.942 0.0778629 112.814C0.300078 114.496 1.12227 115.819 2.72222 116.547C5.34436 117.747 8.22205 116.469 8.88869 113.823C8.99508 113.394 9.04785 113.181 8.96453 113.075C8.88252 112.971 8.66865 112.971 8.24427 112.971C8.16166 112.971 8.07806 112.974 7.99435 112.977L7.99403 112.977L7.99372 112.977H7.9934H7.99309H7.99278H7.99247C7.79537 112.984 7.59772 112.992 7.41096 112.96C7.02208 112.904 6.91098 113.083 6.8332 113.42C6.61099 114.35 6.07767 115 5.08881 115.124C4.12218 115.247 3.29998 114.933 2.73333 114.092C1.92225 112.893 1.96669 110.707 2.81111 109.53C3.78886 108.162 6.03323 108.297 6.67765 109.799C6.84431 110.191 7.02209 110.36 7.43318 110.292C7.52988 110.277 7.63156 110.282 7.73155 110.287ZM58.2537 115.919C56.8648 117.522 54.0205 117.186 53.2539 114.899C52.8316 113.655 52.7983 112.411 53.3761 111.211C54.276 109.306 56.5093 108.891 58.0648 110.371C58.1451 110.032 58.1343 109.703 58.1237 109.381C58.1182 109.212 58.1127 109.045 58.1204 108.88C58.1277 108.791 58.1253 108.706 58.1229 108.62C58.1216 108.577 58.1204 108.533 58.1204 108.487C58.1237 108.342 58.1109 108.181 58.0981 108.021C58.0683 107.648 58.0385 107.274 58.2093 107.086C58.3843 106.888 58.7094 106.922 59.0483 106.957H59.0484H59.0484H59.0485H59.0486C59.2473 106.978 59.4507 106.999 59.6314 106.974C60.0203 106.929 60.0759 107.097 60.0759 107.445C60.0647 110.259 60.0647 113.072 60.0647 115.886C60.0647 116.307 60.0647 116.518 59.9597 116.622C59.8552 116.727 59.6469 116.727 59.2314 116.727C59.2023 116.727 59.1719 116.725 59.1411 116.724H59.141H59.1409C59.078 116.722 59.0133 116.719 58.9537 116.727C58.4426 116.805 58.0759 116.715 58.2537 115.919ZM58.2204 113.173C58.2054 113.075 58.1942 112.975 58.1829 112.875C58.1608 112.679 58.1386 112.481 58.087 112.288C57.887 111.447 57.3537 110.987 56.5982 110.965C55.8316 110.942 55.2649 111.368 55.0316 112.198C54.8094 112.994 54.8205 113.79 55.1871 114.541C55.4871 115.168 56.0538 115.482 56.7204 115.426C57.4204 115.37 57.8204 114.944 58.0315 114.328C58.1648 113.969 58.1981 113.577 58.2204 113.173ZM67.2045 116.723C67.3673 116.725 67.5317 116.727 67.6979 116.727C67.5312 116.2 67.4868 115.684 67.4979 115.157C67.509 113.98 67.509 112.814 67.4979 111.637C67.4979 110.584 67.0424 109.967 66.0313 109.687C64.9758 109.396 63.9091 109.396 62.8647 109.709C62.0092 109.967 61.3648 110.505 61.1759 111.447C61.1716 111.47 61.1641 111.499 61.1561 111.529C61.1222 111.656 61.0786 111.819 61.2314 111.828C61.8203 111.862 62.4092 111.85 62.998 111.839C63.012 111.839 63.0302 111.791 63.0501 111.738C63.062 111.707 63.0745 111.674 63.0869 111.649C63.4536 110.853 64.2536 110.561 65.0535 110.92C65.4535 111.099 65.6868 111.694 65.4646 112.052C65.2881 112.353 64.9694 112.41 64.6604 112.466L64.6535 112.467C64.3936 112.511 64.1322 112.549 63.8704 112.586C63.4049 112.652 62.9381 112.718 62.4758 112.826C61.4203 113.061 60.8648 113.812 60.8981 114.866C60.9425 115.964 61.5425 116.648 62.6314 116.85C63.7091 117.052 64.698 116.839 65.5757 116.189C65.6397 116.257 65.659 116.35 65.6778 116.441C65.7112 116.601 65.7427 116.752 66.0202 116.738C66.4071 116.714 66.7997 116.718 67.2019 116.723H67.202H67.2021H67.2022H67.2022H67.2023H67.2024H67.2025H67.2026H67.2027H67.2028H67.2029H67.203H67.2031H67.2032L67.2045 116.723ZM65.5303 113.717C65.5238 113.809 65.5172 113.903 65.5424 113.958C65.4424 115.314 64.5535 115.942 63.398 115.516C63.0647 115.393 62.8869 115.18 62.8425 114.832C62.798 114.496 62.898 114.193 63.1869 114.003C63.6156 113.719 64.102 113.66 64.5872 113.601C64.8692 113.566 65.1507 113.532 65.4202 113.453C65.5513 113.419 65.541 113.566 65.5303 113.717ZM52.5429 116.727C52.3673 116.727 52.1995 116.724 52.0369 116.721C51.7264 116.717 51.4346 116.712 51.1429 116.727C50.754 116.749 50.4318 116.727 50.5096 116.11C49.5096 116.85 48.4986 117.052 47.3986 116.839C46.432 116.659 45.8098 115.976 45.7431 115.012C45.6653 113.913 46.1209 113.207 47.1208 112.871C47.6185 112.701 48.1373 112.637 48.6553 112.574C48.8891 112.545 49.1226 112.517 49.3541 112.478L49.3822 112.473C49.5516 112.441 49.7295 112.407 49.8874 112.344C50.4429 112.131 50.554 111.436 50.1096 111.043C49.4985 110.505 48.2541 110.797 47.9652 111.57C47.8875 111.794 47.7875 111.862 47.5764 111.862C47.1542 111.85 46.7208 111.839 46.2986 111.862C45.9764 111.884 45.9209 111.75 45.9875 111.469C46.1986 110.539 46.7986 109.978 47.6653 109.709C48.7319 109.384 49.8207 109.384 50.8874 109.687C51.8762 109.956 52.2984 110.573 52.2984 111.604L52.3318 115.572C52.354 115.953 52.4095 116.312 52.5429 116.727ZM50.3874 113.375C49.9874 113.521 49.643 113.599 49.2985 113.644C48.9874 113.689 48.6763 113.745 48.3763 113.835C47.8986 113.991 47.643 114.317 47.6986 114.843C47.7541 115.37 48.1319 115.538 48.5763 115.606C49.6874 115.751 50.3429 115.169 50.3763 114.036C50.3874 113.835 50.3874 113.622 50.3874 113.375ZM12.8885 116.917C14.6107 117.085 15.8662 116.267 16.455 114.541H15.6884C15.1995 114.541 14.7995 114.563 14.3773 115C13.4774 115.942 11.8663 115.404 11.5996 114.171C11.5219 113.812 11.5885 113.689 11.9885 113.7C13.038 113.717 14.0936 113.715 15.1462 113.713H15.1464H15.1467H15.1469H15.1471H15.1474H15.1476H15.1478H15.1481H15.1483H15.1485H15.1488H15.149H15.1501H15.1511H15.1521H15.1532C15.5024 113.712 15.8513 113.711 16.1995 113.711L16.2273 113.711L16.2624 113.712L16.263 113.712C16.4359 113.716 16.5796 113.72 16.5995 113.42C16.7995 110.707 14.3996 108.779 11.9107 109.687C10.2552 110.281 9.3886 111.94 9.66637 113.947C9.91081 115.673 11.0663 116.738 12.8885 116.917ZM13.4757 112.453C13.3399 112.455 13.2037 112.456 13.0663 112.456C12.9337 112.456 12.8 112.455 12.6655 112.453C12.3939 112.451 12.119 112.448 11.8441 112.456C11.5663 112.467 11.533 112.355 11.5885 112.119C11.7441 111.436 12.3996 110.942 13.1551 110.965C13.8996 110.976 14.4218 111.424 14.5662 112.142C14.6218 112.411 14.5218 112.467 14.2884 112.456C14.0148 112.448 13.7461 112.451 13.4757 112.453ZM44.2318 112.198C44.1684 112.198 44.1063 112.197 44.0446 112.195C43.9224 112.193 43.8018 112.19 43.6763 112.198C43.443 112.22 43.3207 112.153 43.2541 111.906C43.0874 111.312 42.6763 111.032 42.0763 110.987C41.4541 110.942 40.9653 111.178 40.6875 111.705C40.1542 112.702 40.1542 113.745 40.6764 114.754C40.9653 115.292 41.4764 115.494 42.0874 115.438C42.6874 115.381 43.1207 115.056 43.2652 114.496C43.3763 114.059 43.5985 113.98 43.9652 114.025C44.0832 114.04 44.2061 114.035 44.3307 114.03H44.3308H44.3309H44.331L44.3315 114.03C44.3943 114.028 44.4575 114.025 44.5207 114.025C45.3651 114.025 45.3651 114.025 45.0985 114.821C44.6318 116.222 43.5763 116.794 42.1986 116.928C40.3986 117.108 38.7764 115.92 38.4431 114.182C38.0431 112.019 39.032 110.124 40.8542 109.631C41.9874 109.328 43.0874 109.44 44.0985 110.102C44.6318 110.449 44.9762 110.942 45.1429 111.559C45.3096 112.164 45.2762 112.198 44.6874 112.198H44.2318ZM39.5211 3.13873C38.5878 3.3293 37.91 3.87857 37.3989 4.74172C37.3186 4.52259 37.3407 4.27916 37.3611 4.05446C37.3886 3.75041 37.4131 3.48063 37.1767 3.35171C36.9213 3.21114 36.5634 3.24467 36.2082 3.27795C36.0536 3.29244 35.8994 3.30688 35.7545 3.30688C35.7282 3.30688 35.7031 3.30816 35.6784 3.30943C35.6303 3.3119 35.5837 3.31429 35.5323 3.30688C35.1879 3.25083 35.0657 3.37413 35.0657 3.75526C35.0768 6.36713 35.0768 8.97899 35.0657 11.5908C35.0657 11.9159 35.1101 12.0504 35.4768 12.028C35.9545 11.9944 36.4434 11.9832 36.9212 12.028C37.3767 12.0729 37.4545 11.8935 37.4545 11.4788C37.4578 11.0526 37.448 10.6254 37.4382 10.1978V10.1976V10.1975V10.1973V10.1972V10.197V10.1968V10.1967V10.1965V10.1963V10.1962C37.4154 9.20717 37.3927 8.21599 37.5322 7.23027C37.6878 6.12051 38.3989 5.47035 39.4655 5.31341C39.6099 5.2926 39.7728 5.3259 39.9306 5.35819C40.1978 5.41284 40.4509 5.46459 40.5766 5.24615C40.7086 5.01901 40.6778 4.69883 40.6473 4.38121C40.6341 4.24426 40.621 4.10779 40.621 3.97946V3.81131C40.621 3.06026 40.5544 2.993 39.7877 3.08268C39.6988 3.09389 39.61 3.11631 39.5211 3.13873ZM31.5658 113.834C31.5658 113.61 31.5639 113.386 31.5621 113.162C31.5576 112.601 31.5531 112.041 31.5769 111.48C31.588 111.099 31.4991 110.954 31.0991 110.987C31.0577 110.992 31.0108 111 30.9616 111.009C30.7597 111.047 30.5194 111.091 30.4658 110.875C30.3658 110.528 30.3769 110.124 30.4547 109.765C30.4917 109.588 30.7215 109.628 30.9 109.66C30.9358 109.666 30.9694 109.672 30.9991 109.676C31.4324 109.72 31.5991 109.608 31.588 109.115C31.5546 107.961 32.1991 107.232 33.3212 107.019C33.5212 106.985 33.7212 106.974 33.9323 106.974C34.9323 106.963 35.2101 107.344 34.9434 108.319C34.8752 108.569 34.7151 108.528 34.5691 108.49C34.525 108.479 34.4821 108.468 34.4434 108.465C33.7546 108.443 33.5324 108.644 33.5324 109.317C33.5324 109.575 33.5879 109.709 33.8657 109.653C33.8883 109.646 33.916 109.648 33.9419 109.651H33.9419H33.942C33.9543 109.652 33.9661 109.653 33.9768 109.653C34.8545 109.664 35.0101 109.877 34.8434 110.763C34.7993 111.004 34.6638 110.996 34.5263 110.989C34.4909 110.987 34.4554 110.985 34.4212 110.987L34.3883 110.988C33.9633 111.004 33.7493 111.013 33.6416 111.124C33.5324 111.236 33.5324 111.455 33.5324 111.895C33.5324 112.26 33.5317 112.624 33.531 112.988C33.5289 114.081 33.5268 115.171 33.5435 116.256C33.5435 116.603 33.4768 116.76 33.099 116.727C32.7102 116.693 32.3213 116.704 31.9324 116.727C31.6324 116.749 31.5658 116.626 31.5658 116.345C31.5732 115.793 31.5707 115.235 31.5682 114.676C31.567 114.396 31.5658 114.115 31.5658 113.834ZM23.4179 112.802C23.4197 112.978 23.4215 113.154 23.4215 113.33C23.4215 113.522 23.4197 113.714 23.4179 113.907C23.4133 114.387 23.4088 114.867 23.4326 115.348C23.466 116.121 23.877 116.592 24.6326 116.727C24.9548 116.794 25.2881 116.828 25.6214 116.828L25.6221 116.828H25.6223C26.1942 116.839 26.4801 116.844 26.623 116.704C26.7659 116.564 26.7659 116.278 26.7659 115.706L26.7658 115.673C26.7658 115.348 26.7214 115.236 26.3547 115.269C25.5214 115.337 25.3437 115.157 25.3326 114.294C25.3251 113.786 25.3276 113.272 25.3301 112.76C25.3313 112.505 25.3326 112.25 25.3326 111.996C25.3326 111.021 25.3326 111.01 26.3103 111.021C26.677 111.021 26.777 110.909 26.7658 110.55L26.7654 110.517C26.7602 110.099 26.7575 109.888 26.651 109.783C26.5433 109.676 26.3294 109.676 25.8992 109.676C25.8906 109.676 25.8821 109.675 25.8735 109.675C25.8636 109.675 25.8536 109.674 25.8437 109.673C25.8066 109.671 25.7696 109.668 25.7325 109.676C25.4326 109.721 25.3103 109.608 25.3326 109.283C25.3563 108.947 25.3518 108.617 25.3473 108.285V108.285V108.285C25.3455 108.151 25.3437 108.017 25.3437 107.882C25.3437 107.692 25.3214 107.591 25.0881 107.557C23.5104 107.355 23.4215 107.423 23.4215 108.981C23.4215 108.993 23.4213 109.005 23.421 109.017C23.4205 109.035 23.4198 109.054 23.4191 109.072C23.4166 109.136 23.4141 109.201 23.4215 109.261C23.4882 109.62 23.3104 109.709 22.9882 109.687C22.9372 109.684 22.8786 109.676 22.8178 109.668C22.6135 109.641 22.384 109.61 22.3327 109.765C22.2215 110.102 22.2327 110.516 22.3104 110.864C22.3701 111.088 22.5868 111.047 22.7798 111.011C22.8383 111 22.8946 110.99 22.9437 110.987C23.3326 110.965 23.4548 111.088 23.4326 111.48C23.4088 111.921 23.4133 112.361 23.4179 112.802ZM19.0216 110.875C19.5327 110.023 20.1883 109.597 21.0327 109.485C21.4771 109.429 21.7549 109.53 21.666 110.068C21.6586 110.112 21.661 110.162 21.6635 110.213C21.6647 110.239 21.666 110.266 21.666 110.292C21.666 110.388 21.675 110.491 21.6841 110.593C21.7068 110.85 21.7295 111.107 21.6104 111.267C21.4998 111.424 21.2666 111.392 21.028 111.36L21.0279 111.36C20.9073 111.344 20.7853 111.327 20.6771 111.335C19.7883 111.402 19.1661 112.075 19.1216 113.117C19.0773 114.18 19.0882 115.231 19.0993 116.294L19.0994 116.301C19.1105 116.659 18.9994 116.749 18.6661 116.727C18.5027 116.715 18.3207 116.729 18.1396 116.743C17.7788 116.77 17.4214 116.797 17.2217 116.626C17.0017 116.435 17.0484 116.043 17.0946 115.656C17.1138 115.495 17.1328 115.335 17.1328 115.191C17.1272 114.345 17.1272 113.495 17.1272 112.646C17.1272 111.797 17.1272 110.948 17.1217 110.102C17.1217 109.765 17.1884 109.608 17.5439 109.664C17.625 109.679 17.711 109.674 17.7986 109.67L17.799 109.67C17.8433 109.667 17.888 109.664 17.9328 109.664H17.9328C18.4377 109.67 18.7011 109.673 18.8421 109.805C18.9959 109.95 19.0042 110.249 19.0216 110.875ZM29.6533 113.989C29.654 113.728 29.6547 113.467 29.6547 113.207C29.6547 112.974 29.656 112.743 29.6572 112.513V112.513V112.512V112.512V112.512V112.512V112.512C29.6597 112.054 29.6621 111.599 29.6547 111.144C29.6476 110.994 29.6667 110.825 29.6857 110.656C29.7261 110.298 29.7663 109.941 29.5547 109.765C29.3644 109.603 29.0295 109.63 28.6865 109.658C28.5088 109.673 28.3289 109.687 28.1659 109.676C27.7992 109.653 27.6992 109.765 27.6992 110.135C27.7119 111.103 27.7101 112.074 27.7083 113.044C27.7069 113.772 27.7056 114.499 27.7103 115.225C27.7103 115.367 27.6919 115.524 27.6734 115.683C27.6275 116.076 27.5809 116.476 27.8103 116.659C28.0135 116.82 28.3588 116.79 28.7132 116.759C28.9015 116.743 29.0923 116.726 29.2658 116.738C29.588 116.76 29.6769 116.648 29.6658 116.334C29.6492 115.552 29.6512 114.77 29.6533 113.989ZM37.6322 113.252C37.6322 113.51 37.6315 113.767 37.6308 114.024V114.025V114.025V114.025V114.025V114.025C37.6287 114.795 37.6266 115.561 37.6433 116.334C37.6544 116.659 37.5433 116.76 37.2322 116.727C37.0499 116.707 36.8492 116.728 36.6519 116.749C36.2959 116.787 35.9506 116.824 35.7434 116.615C35.569 116.431 35.6038 116.041 35.6381 115.658C35.6519 115.504 35.6656 115.351 35.6656 115.213C35.6656 114.787 35.6663 114.361 35.667 113.936C35.6691 112.662 35.6711 111.39 35.6545 110.113C35.6545 109.732 35.7656 109.62 36.1211 109.664C36.2956 109.684 36.4914 109.663 36.6836 109.642C37.0298 109.604 37.3647 109.568 37.5433 109.777C37.7176 109.976 37.6829 110.359 37.6486 110.736C37.6348 110.888 37.6211 111.039 37.6211 111.178C37.6322 111.873 37.6322 112.568 37.6322 113.252ZM63.6979 91.8187C63.709 92.9733 64.5868 93.8589 65.7423 93.8589C66.8867 93.8701 67.7978 92.9621 67.7978 91.8187C67.8089 90.6865 66.8978 89.7561 65.7756 89.7449C64.609 89.7337 63.6979 90.6417 63.6979 91.8187ZM65.7312 93.545C64.809 93.5338 64.0979 92.7715 64.109 91.7851C64.1201 90.8098 64.8423 90.0812 65.7756 90.1036C66.6756 90.1148 67.3867 90.8771 67.3867 91.8187C67.3867 92.7827 66.6534 93.5562 65.7312 93.545ZM28.7325 108.611C28.2303 108.611 27.9802 108.611 27.8517 108.486C27.7243 108.362 27.7166 108.115 27.7013 107.623L27.6992 107.557C27.6881 107.098 27.7992 106.896 28.2659 106.985C28.34 107 28.414 106.995 28.4881 106.99L28.4885 106.99C28.5254 106.988 28.5623 106.985 28.5992 106.985C28.7125 106.993 28.8475 106.98 28.9811 106.967C29.2537 106.94 29.521 106.914 29.5881 107.064C29.7057 107.341 29.6905 107.674 29.6753 108.007C29.6689 108.146 29.6626 108.285 29.6659 108.42C29.6659 108.611 29.5325 108.611 29.3992 108.611H28.7325ZM37.4811 107.106C37.3559 106.985 37.1141 106.985 36.6211 106.985C36.1467 106.985 35.916 106.985 35.7973 107.101C35.6849 107.21 35.6726 107.422 35.6488 107.835L35.6434 107.927C35.6212 108.488 35.7656 108.723 36.3323 108.622C36.5545 108.588 36.7767 108.588 36.9989 108.622C37.4878 108.689 37.6656 108.521 37.6433 107.994L37.6382 107.9C37.614 107.451 37.6017 107.223 37.4811 107.106ZM42.8875 53.9859L43.0777 54.0388L43.0778 54.0388C43.8414 54.2509 44.5064 54.4357 45.143 54.7257C48.2429 56.1605 49.8762 58.6827 50.254 62.0344C50.5984 65.1283 49.9317 68.0092 47.9874 70.4978C46.0096 73.0199 43.3431 74.2642 40.2209 74.6229C39.4099 74.7126 38.5988 74.7126 37.7877 74.7126C36.3382 74.7126 34.888 74.7119 33.4374 74.7112H33.4364H33.4322C29.0805 74.7091 24.7257 74.707 20.3771 74.7238C19.9216 74.7238 19.7994 74.6117 19.7994 74.1409C19.8105 61.4739 19.8105 48.7958 19.7994 36.1288C19.7994 35.6916 19.8994 35.5683 20.3438 35.5683C22.3356 35.5725 24.3258 35.572 26.3156 35.5715H26.3157C29.6316 35.5706 32.9464 35.5697 36.2655 35.5907C38.221 35.6019 40.1765 35.7028 42.0876 36.1848C45.5319 37.0592 48.254 40.2203 48.6318 43.8187C48.9318 46.6435 48.3985 49.2329 46.5207 51.4413C45.5541 52.5622 44.3653 53.3581 42.8875 53.9859ZM32.1323 70.3072H37.7877C39.0543 70.3072 40.2876 70.1278 41.4542 69.5786C44.1653 68.3007 45.2541 65.8233 45.1541 63.1218C45.043 59.9606 43.5431 58.1222 40.6209 57.2815C39.5876 56.9789 38.521 56.8219 37.4544 56.8219C35.4487 56.8163 33.443 56.8163 31.4374 56.8163C29.4321 56.8163 27.4267 56.8163 25.4214 56.8107C25.0659 56.8107 24.9992 56.9116 24.9992 57.2479C25.0103 61.4403 25.0103 65.644 24.9992 69.8364C24.9992 70.2287 25.0992 70.3296 25.4881 70.3184C27.1376 70.3016 28.7996 70.3037 30.4647 70.3058C31.0204 70.3065 31.5763 70.3072 32.1323 70.3072ZM31.6545 39.9961C31.0549 39.9961 30.4804 39.9969 29.9248 39.9976H29.9247C28.3289 39.9997 26.8888 40.0016 25.4547 39.9849C25.0992 39.9849 24.9992 40.0746 24.9992 40.4445C25.0103 44.267 25.0103 48.0896 24.9992 51.9233C24.9992 52.3156 25.1103 52.4053 25.4881 52.4053C28.7991 52.3941 32.1101 52.3941 35.41 52.3941C36.4655 52.3941 37.5099 52.3044 38.5543 52.1138C41.5098 51.5758 43.132 49.9728 43.4764 47.1143C43.6986 45.2647 43.5097 43.4487 42.1987 41.9578C41.0654 40.6799 39.521 40.31 37.921 40.1195C36.4752 39.9517 35.034 39.9738 33.6986 39.9942H33.6985H33.6984C32.9814 40.0052 32.2949 40.0157 31.6545 39.9961ZM66.7311 92.9397C66.5423 92.637 66.3534 92.3343 66.1312 91.9756C66.6756 91.8635 66.7867 91.5048 66.6978 91.0676C66.6423 90.8435 66.4756 90.6641 66.2311 90.6417C65.8089 90.5968 65.3867 90.552 64.9756 90.6641C64.9423 90.6753 64.9312 90.7986 64.9312 90.8659V92.7603C64.9312 92.9172 64.9645 93.0069 65.1423 92.9957C65.3201 92.9845 65.3756 92.906 65.3645 92.7491C65.3534 92.6146 65.3423 92.4801 65.3645 92.3568C65.3712 92.3163 65.3658 92.2718 65.3605 92.2275C65.348 92.1245 65.3358 92.0227 65.4756 91.9756C65.6694 91.9139 65.7508 92.0505 65.8316 92.1861C65.8389 92.1982 65.8461 92.2103 65.8534 92.2222C65.9756 92.4128 66.0978 92.6034 66.2089 92.7939C66.3312 93.0069 66.4867 93.063 66.7311 92.9397ZM65.3645 91.2918C65.3423 90.9555 65.509 90.9219 65.7201 90.9555L65.7451 90.9555C66.0365 90.9552 66.32 90.9549 66.32 91.3255C66.3017 91.6313 66.0859 91.646 65.8673 91.6609C65.8214 91.664 65.7755 91.6671 65.7312 91.673C65.4201 91.7066 65.3756 91.5609 65.3645 91.2918Z" fill="white"/>
</svg>
