<svg width="160" height="42" viewBox="0 0 160 42" fill="none" xmlns="http://www.w3.org/2000/svg">
<path d="M0 20.981C0.00378065 16.8284 1.24522 12.7701 3.56738 9.3192C5.88954 5.86827 9.18817 3.17961 13.0463 1.59309C16.9044 0.00656161 21.1488 -0.406596 25.243 0.40584C29.3371 1.21828 33.0972 3.21983 36.0479 6.15749C38.9986 9.09515 41.0075 12.837 41.8206 16.9101C42.6336 20.9832 42.2144 25.2046 40.6159 29.0407C39.0174 32.8769 36.3114 36.1555 32.8399 38.4622C29.3684 40.7688 25.2873 42 21.1124 42C15.5124 41.9915 10.1444 39.7737 6.18635 35.8332C2.2283 31.8926 0.00345807 26.5512 0 20.981H0ZM12.847 28.682C12.7009 28.9485 12.6092 29.241 12.5769 29.5429C12.5446 29.8447 12.5724 30.1499 12.6587 30.441C12.7451 30.7322 12.8883 31.0035 13.0801 31.2396C13.2719 31.4756 13.5087 31.6718 13.7768 31.8168L16.1364 33.0919C17.9352 34.0626 20.004 34.4206 22.0266 34.1109C24.0492 33.8013 25.9141 32.8412 27.3362 31.3774C27.5238 32.0768 27.9181 32.7041 28.4679 33.1783C29.0178 33.6525 29.6981 33.9517 30.4207 34.0373C31.1434 34.1229 31.8752 33.9909 32.5216 33.6584C33.1681 33.3259 33.6994 32.8082 34.0469 32.1722C34.3944 31.5362 34.5422 30.8111 34.471 30.0907C34.3999 29.3703 34.1131 28.6876 33.6478 28.131C33.1825 27.5744 32.5601 27.1695 31.8609 26.9684C31.1618 26.7674 30.4181 26.7796 29.726 27.0034C30.1863 25.0181 29.9815 22.9375 29.1428 21.0786C28.304 19.2198 26.8773 17.6847 25.0801 16.7071L22.7295 15.436C22.1905 15.1693 21.5685 15.1212 20.9945 15.3017C20.4205 15.4822 19.9393 15.8772 19.6524 16.4036C19.3654 16.93 19.295 17.5466 19.4561 18.1235C19.6171 18.7005 19.997 19.1928 20.5157 19.4966L22.8663 20.7698C23.9202 21.3896 24.6913 22.3917 25.0176 23.5654C25.3439 24.7391 25.1999 25.9929 24.6159 27.0632C24.0319 28.1335 23.0534 28.9368 21.8862 29.3042C20.7189 29.6716 19.454 29.5745 18.3573 29.0333L15.9976 27.7551C15.73 27.6096 15.4362 27.5181 15.133 27.4859C14.8298 27.4537 14.5232 27.4815 14.2308 27.5675C13.9384 27.6535 13.666 27.7962 13.4292 27.9873C13.1924 28.1784 12.9959 28.4141 12.851 28.681L12.847 28.682ZM17.1145 25.5221L19.4642 26.7952C20.0043 27.0731 20.6324 27.1291 21.2136 26.9514C21.7948 26.7736 22.2827 26.3762 22.5726 25.8445C22.8624 25.3128 22.9311 24.6893 22.7638 24.1078C22.5966 23.5263 22.2067 23.0333 21.6779 22.7346L19.3323 21.4614C18.2803 20.8409 17.5108 19.839 17.1855 18.6662C16.8602 17.4934 17.0044 16.2408 17.5878 15.1714C18.1711 14.1021 19.1483 13.2992 20.3142 12.9312C21.4801 12.5632 22.7439 12.6588 23.8404 13.1979L26.2011 14.4751C26.7401 14.7417 27.3621 14.7899 27.9361 14.6094C28.5101 14.4289 28.9913 14.0339 29.2782 13.5075C29.5652 12.9811 29.6356 12.3645 29.4745 11.7875C29.3135 11.2106 28.9336 10.7183 28.4149 10.4144L26.0622 9.13727C24.2636 8.1664 22.1946 7.8084 20.172 8.11805C18.1494 8.42769 16.2845 9.38792 14.8625 10.8518C14.6751 10.1518 14.2808 9.52378 13.7307 9.04901C13.1806 8.57425 12.4999 8.27457 11.7767 8.18873C11.0535 8.10289 10.3211 8.23483 9.6741 8.5675C9.02711 8.90017 8.49534 9.41826 8.14756 10.0548C7.79978 10.6913 7.65198 11.4169 7.72328 12.1379C7.79457 12.8589 8.08169 13.542 8.54749 14.0989C9.0133 14.6558 9.63636 15.0609 10.3361 15.2618C11.0359 15.4627 11.7801 15.4501 12.4726 15.2258C12.0121 17.2108 12.2165 19.2912 13.0547 21.15C13.8928 23.0088 15.3189 24.5441 17.1155 25.5221H17.1145ZM157.449 28.5248C157.165 28.262 156.921 27.9584 156.727 27.624L154.161 23.5913L153.084 24.5983V27.624C153.1 27.8011 153.073 27.9795 153.004 28.1438C152.936 28.3081 152.828 28.4533 152.691 28.5669C152.365 28.7752 151.981 28.8752 151.595 28.8521C150.557 28.8521 150.036 28.4588 150.036 27.668V14.6272C150.036 13.7671 150.562 13.3364 151.615 13.3351C151.974 13.329 152.327 13.4207 152.637 13.6003C152.788 13.6946 152.91 13.8287 152.989 13.9877C153.068 14.1467 153.101 14.3245 153.085 14.5011V21.1812L156.399 18.1114C156.636 17.8788 156.892 17.6665 157.165 17.4768C157.407 17.324 157.69 17.2469 157.976 17.2556C158.186 17.2545 158.393 17.3032 158.58 17.3977C158.754 17.4856 158.914 17.6001 159.052 17.7371C159.166 17.8514 159.259 17.9841 159.328 18.1294C159.396 18.2896 159.43 18.462 159.428 18.6359C159.412 18.8207 159.356 19 159.266 19.1624C159.175 19.3247 159.052 19.4665 158.903 19.5787L156.401 21.7697L159.715 26.8533C159.882 27.0853 159.981 27.3592 160 27.644C160 27.8097 159.961 27.9731 159.887 28.1214C159.813 28.2697 159.705 28.3989 159.572 28.4988C159.249 28.7455 158.848 28.8693 158.441 28.8481C158.081 28.8682 157.727 28.752 157.449 28.5228V28.5248ZM103.746 27.668V14.6022C103.746 13.7524 104.272 13.3301 105.325 13.3301C105.685 13.3247 106.04 13.4201 106.348 13.6053C106.499 13.7017 106.621 13.8373 106.701 13.9974C106.78 14.1575 106.815 14.3361 106.8 14.5141V27.619C106.816 27.7961 106.788 27.9743 106.72 28.1385C106.651 28.3027 106.544 28.448 106.406 28.5618C106.08 28.7737 105.694 28.8751 105.305 28.8511C104.27 28.8521 103.746 28.4588 103.746 27.668ZM76.4761 28.3146C75.826 28.0295 75.2507 27.5993 74.7946 27.0575C74.3616 26.5315 74.0448 25.9207 73.8648 25.2649C73.6733 24.5836 73.5775 23.8793 73.58 23.172C73.5659 22.3104 73.7021 21.4529 73.9825 20.6377C74.223 19.9364 74.6121 19.2947 75.1236 18.756C75.6203 18.2466 76.2226 17.8511 76.8886 17.5969C77.6182 17.3265 78.3913 17.1908 79.1698 17.1966C79.8571 17.1828 80.5413 17.2909 81.1904 17.5159C81.7014 17.6962 82.1817 17.9534 82.6143 18.2785C82.9585 18.5363 83.249 18.8582 83.4696 19.2264C83.6378 19.4924 83.7358 19.7964 83.7544 20.1102C83.7584 20.2809 83.7254 20.4505 83.6575 20.6074C83.5896 20.7642 83.4884 20.9046 83.3609 21.019C83.107 21.2559 82.7701 21.3845 82.4221 21.3773C82.1869 21.3882 81.9564 21.3091 81.7781 21.1561C81.6157 21.0093 81.4289 20.8375 81.2176 20.6407C80.9317 20.3754 80.6202 20.1387 80.2878 19.934C79.8844 19.7416 79.4395 19.6513 78.9926 19.671C78.5456 19.6907 78.1105 19.8199 77.7258 20.0471C77.3992 20.2854 77.1374 20.6008 76.9641 20.965C76.7962 21.3224 76.6851 21.7036 76.635 22.095C76.5906 22.4239 76.5661 22.7551 76.5616 23.0869C76.5646 23.4262 76.5959 23.7647 76.6552 24.0988C76.7166 24.4744 76.8465 24.8357 77.0386 25.1648C77.235 25.5038 77.5112 25.7902 77.8436 25.9995C78.2477 26.2417 78.7146 26.3597 79.1859 26.3388C79.6092 26.3615 80.0311 26.2735 80.4095 26.0836C80.7697 25.8625 81.0974 25.593 81.3836 25.2829C81.523 25.1272 81.6744 24.9826 81.8364 24.8505C82.0016 24.723 82.2072 24.6584 82.416 24.6683C82.5876 24.6683 82.7572 24.7052 82.9131 24.7764C83.0711 24.8437 83.2146 24.9405 83.3358 25.0617C83.4558 25.1824 83.5554 25.3216 83.6306 25.4741C83.7081 25.6246 83.7485 25.7913 83.7483 25.9605C83.7321 26.292 83.6176 26.6114 83.4193 26.8783C83.1689 27.242 82.8501 27.554 82.4804 27.7972C82.0199 28.1019 81.5181 28.3398 80.9902 28.5038C80.3434 28.7033 79.6688 28.7992 78.9917 28.788C78.1285 28.8141 77.27 28.6525 76.4761 28.3146V28.3146ZM50.1613 28.4347C49.5222 28.2525 48.9078 27.9933 48.3319 27.663C48.0383 27.509 47.7942 27.2759 47.6275 26.9904C47.5302 26.7928 47.4767 26.5768 47.4705 26.3569C47.4696 26.0369 47.5563 25.7228 47.7211 25.448C47.8463 25.2393 48.0156 25.06 48.2172 24.9226C48.4137 24.7847 48.6452 24.7046 48.8853 24.6913C49.1061 24.6863 49.3245 24.7369 49.5203 24.8385C49.7024 24.9386 49.9137 25.0637 50.1542 25.2168C50.3363 25.3449 50.5285 25.467 50.7248 25.5852C50.9371 25.7119 51.1607 25.8188 51.3929 25.9044C51.6652 26.0031 51.9447 26.0804 52.2291 26.1357C52.584 26.2025 52.9447 26.2337 53.3058 26.2287C53.9424 26.2685 54.5771 26.1254 55.1342 25.8164C55.3439 25.673 55.5119 25.4773 55.6214 25.2489C55.731 25.0205 55.7781 24.7675 55.7581 24.5152C55.7747 24.2601 55.7273 24.0049 55.6202 23.7725C55.513 23.5401 55.3495 23.3379 55.1443 23.184C54.5728 22.8273 53.9305 22.5979 53.2616 22.5114L52.1396 22.3002C51.5567 22.1905 50.9843 22.0311 50.4289 21.8237C49.9017 21.633 49.4087 21.3593 48.9688 21.013C48.5432 20.6725 48.1976 20.2434 47.9565 19.7559C47.6859 19.1855 47.5545 18.5596 47.5731 17.9292C47.5681 17.3077 47.6939 16.6919 47.9424 16.1216C48.1904 15.5635 48.5681 15.0719 49.0443 14.6873C49.5762 14.26 50.1876 13.9413 50.8435 13.7494C51.6422 13.5112 52.4731 13.3967 53.3068 13.4101C53.928 13.41 54.5475 13.4741 55.1553 13.6013C55.7247 13.7145 56.2791 13.8925 56.8076 14.1318C57.2498 14.3272 57.654 14.5982 58.0021 14.9325C58.1465 15.066 58.2621 15.2275 58.3415 15.407C58.4209 15.5865 58.4626 15.7803 58.4639 15.9765C58.4601 16.2119 58.403 16.4436 58.2969 16.6541C58.1945 16.857 58.0464 17.0337 57.8642 17.1705C57.6742 17.3189 57.4415 17.403 57.2001 17.4108C57.0027 17.4164 56.806 17.3848 56.6205 17.3177C56.4309 17.2378 56.2563 17.1264 56.1042 16.9884C55.7405 16.7067 55.3463 16.4663 54.9289 16.2717C54.3559 16.0349 53.7376 15.926 53.1177 15.9524C52.7207 15.9431 52.3246 15.9927 51.9423 16.0996C51.6643 16.1775 51.4051 16.311 51.1806 16.4919C50.9982 16.6431 50.8594 16.8396 50.7781 17.0614C50.7002 17.2755 50.6604 17.5014 50.6604 17.729C50.6557 17.9659 50.7188 18.1992 50.8425 18.4017C50.9647 18.6046 51.1312 18.7776 51.3295 18.9081C51.5496 19.0543 51.7859 19.1746 52.0339 19.2664C52.3164 19.3693 52.6078 19.4463 52.9043 19.4966L54.0796 19.7429C54.64 19.8584 55.1919 20.0109 55.7319 20.1993C56.2675 20.3818 56.7715 20.6455 57.2262 20.981C57.7206 21.3469 58.1169 21.8281 58.3802 22.3823C58.6434 22.9365 58.7655 23.5466 58.7356 24.1589C58.7562 24.8918 58.6014 25.6191 58.2838 26.2808C57.9914 26.8503 57.5663 27.3421 57.0441 27.7151C56.4898 28.1022 55.8656 28.3792 55.2057 28.5308C54.4642 28.7035 53.705 28.7891 52.9436 28.786C52.0035 28.8055 51.0656 28.6871 50.1602 28.4347H50.1613ZM85.783 27.596V18.5878C85.773 18.4035 85.8009 18.2192 85.8651 18.046C85.9293 17.8729 86.0284 17.7146 86.1563 17.5809C86.3227 17.4423 86.5152 17.3379 86.7225 17.2738C86.9297 17.2098 87.1477 17.1872 87.3638 17.2076C87.7498 17.1831 88.1327 17.2889 88.4506 17.5078C88.5835 17.625 88.6874 17.7712 88.7539 17.9349C88.8204 18.0987 88.8478 18.2756 88.834 18.4517V27.5479C88.85 27.7252 88.8225 27.9036 88.754 28.068C88.6855 28.2324 88.5779 28.3778 88.4405 28.4918C88.1127 28.6993 87.7276 28.7987 87.3397 28.776C86.2982 28.779 85.778 28.3877 85.778 27.595L85.783 27.596ZM63.7901 28.3597C63.1168 28.1043 62.5089 27.7037 62.01 27.1866C61.5105 26.6597 61.1285 26.0338 60.889 25.3499C60.6191 24.5831 60.4859 23.7752 60.4956 22.9628C60.4844 22.1519 60.6243 21.3459 60.9082 20.5856C61.1642 19.9062 61.5597 19.2871 62.0694 18.768C62.5775 18.2611 63.187 17.8662 63.8585 17.6089C64.5936 17.3256 65.3766 17.1856 66.1649 17.1966C66.9496 17.1851 67.7291 17.3251 68.4602 17.6089C69.1212 17.8687 69.7221 18.2596 70.2262 18.758C70.7329 19.2716 71.1218 19.8883 71.3663 20.5656C71.9039 22.1087 71.9039 23.7868 71.3663 25.3299C71.1178 26.0142 70.7296 26.6399 70.2262 27.1676C69.7226 27.6794 69.1183 28.0825 68.4511 28.3517C67.7173 28.6405 66.9339 28.784 66.1448 28.774C65.3389 28.7853 64.5381 28.6444 63.7851 28.3587L63.7901 28.3597ZM64.2127 20.5446C63.7018 21.2603 63.4532 22.1287 63.5083 23.0048C63.4521 23.8782 63.701 24.7441 64.2127 25.456C64.4449 25.7411 64.7412 25.9678 65.0776 26.118C65.4141 26.2682 65.7814 26.3377 66.1498 26.3208C66.5238 26.3386 66.8969 26.2697 67.2395 26.1194C67.5822 25.9692 67.885 25.7417 68.1241 25.455C68.6365 24.7453 68.8855 23.8808 68.8285 23.0088C68.8799 22.137 68.6343 21.2733 68.1311 20.5576C67.8867 20.2798 67.5856 20.0568 67.2479 19.9036C66.9101 19.7504 66.5435 19.6704 66.1723 19.669C65.8011 19.6676 65.4339 19.7448 65.095 19.8954C64.7561 20.046 64.4533 20.2666 64.2067 20.5426L64.2127 20.5446ZM126.299 27.7901C125.978 27.4941 125.725 27.132 125.559 26.7292C125.392 26.3263 125.316 25.8922 125.335 25.457C125.32 24.9637 125.417 24.4733 125.62 24.0227C125.804 23.6388 126.071 23.3001 126.402 23.0308C126.752 22.7554 127.146 22.5408 127.568 22.3963C128.027 22.2387 128.498 22.1189 128.977 22.0379C129.513 21.9379 130.055 21.8608 130.595 21.8067C131.135 21.7527 132.414 21.6596 132.414 21.6596V21.2312C132.414 21.0239 132.385 20.8176 132.33 20.6177C132.277 20.4165 132.181 20.2289 132.05 20.0672C131.904 19.8887 131.715 19.7507 131.5 19.6668C131.22 19.5609 130.923 19.5109 130.624 19.5197C130.418 19.5186 130.212 19.5333 130.008 19.5637C129.824 19.5915 129.643 19.6378 129.468 19.7018C129.279 19.7702 129.098 19.8573 128.927 19.9621C128.739 20.0748 128.527 20.2083 128.293 20.3624C128.127 20.4759 127.956 20.5808 127.78 20.6767C127.595 20.7645 127.391 20.8068 127.186 20.7998C127.026 20.7988 126.868 20.7662 126.721 20.7038C126.574 20.6414 126.442 20.5506 126.33 20.4365C126.209 20.3234 126.114 20.1863 126.049 20.034C125.985 19.8818 125.954 19.7178 125.957 19.5527C125.973 19.2753 126.074 19.0093 126.247 18.791C126.487 18.4829 126.789 18.2271 127.132 18.0393C127.592 17.7863 128.083 17.5932 128.592 17.4648C129.258 17.3011 129.942 17.2233 130.628 17.2336C131.855 17.1245 133.08 17.4578 134.08 18.1724C134.456 18.5548 134.745 19.0134 134.926 19.5169C135.108 20.0205 135.178 20.5571 135.132 21.0901V27.4018H135.123C135.132 27.5629 135.109 27.7243 135.054 27.8761C134.999 28.028 134.913 28.1672 134.803 28.2856C134.498 28.4982 134.127 28.5957 133.756 28.5608C133.4 28.5808 133.048 28.4879 132.749 28.2956C132.487 28.0245 132.259 27.7219 132.071 27.3948V27.0164C132.061 27.2294 131.987 27.4346 131.86 27.606C131.654 27.8155 131.419 27.9942 131.161 28.1365C130.857 28.3016 130.533 28.4287 130.197 28.5148C129.783 28.6187 129.357 28.6682 128.93 28.6619C127.972 28.7177 127.029 28.4044 126.297 27.7871L126.299 27.7901ZM130.872 23.6244C130.385 23.6934 130.021 23.7575 129.785 23.8156C129.289 23.8657 128.824 24.0767 128.462 24.4161C128.273 24.6375 128.166 24.9166 128.16 25.2068C128.15 25.3653 128.176 25.5238 128.234 25.6715C128.293 25.8191 128.383 25.9523 128.499 26.0616C128.838 26.2951 129.25 26.4014 129.66 26.3619C130.387 26.4068 131.107 26.194 131.691 25.7613C131.921 25.574 132.106 25.3367 132.23 25.0677C132.354 24.7986 132.415 24.5049 132.408 24.2089V23.4282C131.867 23.4903 131.356 23.5503 130.87 23.6234L130.872 23.6244ZM92.1738 27.7871C91.8526 27.4911 91.6 27.129 91.4335 26.7262C91.2671 26.3233 91.1907 25.8892 91.2098 25.454C91.1944 24.9607 91.2918 24.4703 91.4946 24.0197C91.6782 23.6357 91.9453 23.2969 92.2764 23.0278C92.6255 22.7515 93.0196 22.5369 93.4417 22.3933C93.9007 22.2358 94.3718 22.116 94.8504 22.0349C95.3868 21.9349 95.9271 21.8578 96.4675 21.8037C97.0079 21.7497 98.3271 21.6566 98.3271 21.6566V21.2312C98.3266 21.0239 98.2986 20.8176 98.2436 20.6177C98.1881 20.4173 98.0926 20.2301 97.9628 20.0672C97.8168 19.889 97.6273 19.7512 97.4124 19.6668C97.1332 19.5609 96.8356 19.5109 96.5369 19.5197C96.3308 19.5186 96.1249 19.5333 95.9211 19.5637C95.7365 19.5917 95.5551 19.638 95.3797 19.7018C95.1913 19.7704 95.0103 19.8576 94.8394 19.9621C94.6529 20.0748 94.4416 20.2083 94.2054 20.3624C94.0407 20.476 93.87 20.5809 93.6942 20.6767C93.5088 20.7646 93.3048 20.8068 93.0995 20.7998C92.9399 20.7985 92.7821 20.7657 92.6353 20.7034C92.4885 20.641 92.3556 20.5503 92.2442 20.4365C92.1225 20.3237 92.026 20.1867 91.9608 20.0345C91.8956 19.8823 91.8633 19.7181 91.8659 19.5527C91.8814 19.2752 91.9826 19.0092 92.1557 18.791C92.3963 18.4831 92.6976 18.2273 93.0412 18.0393C93.5011 17.7864 93.9919 17.5934 94.5013 17.4648C95.167 17.3011 95.8512 17.2234 96.5369 17.2336C97.7634 17.1245 98.9884 17.4578 99.9884 18.1724C100.365 18.5548 100.653 19.0134 100.835 19.5169C101.017 20.0205 101.087 20.5571 101.041 21.0901V27.4018C101.029 27.7301 100.9 28.0436 100.677 28.2856C100.369 28.5003 99.994 28.5977 99.6201 28.5598C99.2649 28.58 98.9125 28.4871 98.6139 28.2946C98.3609 28.0253 98.1472 27.7221 97.9789 27.3938V27.0154C97.9471 27.2301 97.8605 27.4331 97.7274 27.605C97.521 27.8134 97.2863 27.992 97.03 28.1355C96.7256 28.3007 96.4018 28.4278 96.066 28.5138C95.6516 28.6177 95.2254 28.6671 94.7981 28.6609C93.8434 28.7127 92.9048 28.4002 92.1738 27.7871V27.7871ZM96.7945 23.6214C96.3085 23.6904 95.9443 23.7545 95.7078 23.8126C95.2126 23.8624 94.7477 24.0735 94.3855 24.4131C94.1969 24.6345 94.0904 24.9136 94.0837 25.2038C94.074 25.3623 94.0994 25.5209 94.1579 25.6686C94.2165 25.8163 94.3069 25.9494 94.4228 26.0586C94.7616 26.2922 95.1727 26.3986 95.583 26.3589C96.307 26.4038 97.0238 26.1936 97.6076 25.7653C97.8383 25.5781 98.023 25.3409 98.1475 25.0718C98.272 24.8028 98.3331 24.509 98.3261 24.2129V23.4322C97.7887 23.4903 97.2776 23.5503 96.7905 23.6234L96.7945 23.6214ZM145.048 28.3126C144.899 28.2084 144.78 28.0665 144.704 27.9015C144.628 27.7365 144.597 27.5544 144.615 27.3738V21.8608C144.642 21.4091 144.578 20.9567 144.428 20.5296C144.321 20.2674 144.115 20.0575 143.853 19.9451C143.559 19.8256 143.242 19.7687 142.924 19.7779C142.625 19.7671 142.327 19.8159 142.048 19.9212C141.768 20.0266 141.513 20.1865 141.297 20.3915C141.127 20.5499 140.985 20.7361 140.878 20.942C140.789 21.1138 140.72 21.2951 140.672 21.4824C140.598 21.7615 140.56 22.0487 140.559 22.3372C140.553 22.6565 140.549 22.9267 140.549 23.1479V27.3768C140.565 27.5375 140.544 27.6997 140.488 27.8512C140.432 28.0027 140.342 28.1396 140.225 28.2516C139.907 28.4565 139.53 28.5498 139.152 28.5168C138.812 28.5364 138.474 28.447 138.188 28.2616C138.064 28.1608 137.966 28.0309 137.904 27.8835C137.843 27.7361 137.818 27.5758 137.834 27.4168V18.6229C137.821 18.2996 137.932 17.9835 138.145 17.7391C138.291 17.612 138.462 17.5163 138.647 17.4581C138.832 17.3999 139.028 17.3804 139.221 17.4008C139.544 17.3946 139.863 17.4741 140.145 17.631C140.292 17.7353 140.407 17.8775 140.478 18.0421C140.548 18.2067 140.573 18.3874 140.548 18.5648V18.8491C140.883 18.3762 141.32 17.9837 141.827 17.7C142.427 17.3569 143.111 17.1838 143.803 17.1996H143.812C144.441 17.1797 145.065 17.299 145.642 17.5489C146.132 17.7833 146.563 18.1255 146.9 18.5498C147.262 19.012 147.488 19.5645 147.554 20.1462C147.622 20.6955 147.658 21.2483 147.662 21.8017V27.3718C147.679 27.545 147.653 27.7197 147.588 27.8813C147.523 28.0428 147.42 28.1866 147.288 28.3006C146.946 28.518 146.542 28.6195 146.138 28.5899C145.754 28.6048 145.374 28.5092 145.044 28.3146L145.048 28.3126ZM113.222 28.4027C112.45 28.4027 112.067 28.0344 112.067 27.2927V14.8815C112.062 14.7415 112.086 14.602 112.138 14.4718C112.19 14.3416 112.269 14.2235 112.368 14.1248C112.622 13.9102 112.95 13.8043 113.282 13.8305H117.532C118.886 13.7586 120.234 14.0684 121.42 14.7243C121.902 15.0572 122.286 15.5113 122.533 16.0403C122.781 16.5692 122.883 17.1541 122.829 17.7351C122.833 18.1072 122.783 18.4781 122.681 18.836C122.591 19.1443 122.455 19.4375 122.278 19.7058C122.118 19.9498 121.919 20.1657 121.688 20.3444C121.47 20.5143 121.238 20.6653 120.994 20.7958C121.381 20.9178 121.744 21.1058 122.067 21.3513C122.35 21.5688 122.591 21.8349 122.779 22.137C122.964 22.4345 123.1 22.7596 123.182 23.0999C123.264 23.4544 123.305 23.8171 123.305 24.1809C123.358 24.7963 123.253 25.4151 123 25.9788C122.746 26.5426 122.352 27.0327 121.855 27.4028C120.611 28.1406 119.174 28.4894 117.729 28.4037L113.222 28.4027ZM115.115 26.0256H118.056C118.361 26.0545 118.668 26.0203 118.959 25.925C119.25 25.8297 119.518 25.6755 119.745 25.4721C120.083 25.128 120.27 24.6655 120.267 24.1849C120.268 23.9454 120.234 23.707 120.166 23.4772C120.096 23.248 119.971 23.0392 119.802 22.8687C119.606 22.6812 119.371 22.5384 119.113 22.4503C118.772 22.3393 118.415 22.2879 118.056 22.2982H115.115V26.0256ZM115.115 19.939H118.074C118.423 19.9497 118.771 19.8982 119.102 19.7869C119.339 19.7078 119.554 19.5739 119.729 19.3963C119.904 19.2186 120.034 19.0023 120.109 18.765C120.18 18.5357 120.216 18.2972 120.216 18.0573C120.217 17.8255 120.181 17.595 120.109 17.3747C120.034 17.1539 119.913 16.9512 119.754 16.7802C119.573 16.591 119.349 16.4478 119.1 16.3628C118.769 16.2515 118.421 16.2 118.072 16.2107H115.113L115.115 19.939ZM86.1362 15.8163C85.9823 15.67 85.8618 15.4925 85.7828 15.2958C85.7038 15.0991 85.6682 14.8878 85.6783 14.6763C85.6721 14.4682 85.7096 14.2611 85.7884 14.0682C85.8672 13.8753 85.9857 13.701 86.1362 13.5563C86.2959 13.4057 86.4843 13.2885 86.6903 13.2116C86.8964 13.1347 87.1158 13.0998 87.3357 13.1089C87.7449 13.109 88.1426 13.2437 88.4667 13.4922C88.6437 13.6324 88.7834 13.8137 88.8734 14.0202C88.9634 14.2266 89.001 14.452 88.9829 14.6763C88.9931 14.8878 88.9575 15.0991 88.8785 15.2958C88.7995 15.4925 88.679 15.67 88.5251 15.8163C88.1875 16.0894 87.7657 16.2385 87.3306 16.2385C86.8955 16.2385 86.4737 16.0894 86.1362 15.8163Z" fill="#00B7D2"/>
</svg>
