<svg width="35" height="35" viewBox="0 0 35 35" fill="none" xmlns="http://www.w3.org/2000/svg">
<path d="M17.5 35C27.165 35 35 27.165 35 17.5C35 7.83502 27.165 0 17.5 0C7.83502 0 0 7.83502 0 17.5C0 27.165 7.83502 35 17.5 35Z" fill="white"/>
<path d="M5.0314 15.9371C5.02595 16.4093 5.16989 16.8717 5.44359 17.2613C5.7173 17.6508 6.10745 17.9486 6.5609 18.1139V13.9685C6.5609 13.9088 6.59152 13.8192 6.59152 13.7603C6.13477 13.9243 5.74044 14.2208 5.46153 14.61C5.18263 14.9991 5.03253 15.4622 5.0314 15.9371V15.9371Z" fill="#00B7D2"/>
<path d="M13.3835 21.0649H9.37598L10.8748 26.3721C10.9831 26.7665 11.2221 27.1149 11.5544 27.363C11.8867 27.6111 12.2939 27.7451 12.7123 27.744C13.0141 27.7477 13.3125 27.6823 13.5835 27.5528C13.8545 27.4233 14.0905 27.2336 14.2725 26.9987C14.456 26.776 14.5801 26.5124 14.6335 26.2314C14.687 25.9504 14.6681 25.6609 14.5787 25.3887L13.3835 21.0649Z" fill="#00B7D2"/>
<path d="M6.59131 13.7311H6.62193V13.7012C6.62193 13.7311 6.62193 13.7311 6.59131 13.7311Z" fill="#00B7D2"/>
<path d="M28.5277 13.3154H28.2827V18.6824H28.5277C29.2572 18.6824 29.9568 18.3997 30.4727 17.8964C30.9885 17.3932 31.2783 16.7106 31.2783 15.9989C31.2783 15.2872 30.9885 14.6047 30.4727 14.1014C29.9568 13.5982 29.2572 13.3154 28.5277 13.3154V13.3154Z" fill="#00B7D2"/>
<path d="M7.47949 13.9685V18.2026C7.49566 18.7303 7.72206 19.231 8.11058 19.5984C8.49911 19.9658 9.01915 20.171 9.56024 20.1703H15.127V12.1203H9.55937C9.2984 12.1084 9.03758 12.1467 8.79181 12.2331C8.54603 12.3196 8.32012 12.4524 8.12698 12.624C7.93383 12.7956 7.77724 13.0027 7.66614 13.2334C7.55504 13.4641 7.49162 13.7139 7.47949 13.9685V13.9685Z" fill="#00B7D2"/>
<path d="M16.0449 20.2897L27.3648 24.7023V7.47119L16.0449 11.8838V20.2897Z" fill="#00B7D2"/>
</svg>
