<svg width="36" height="35" viewBox="0 0 36 35" fill="none" xmlns="http://www.w3.org/2000/svg">
<path d="M18 35C27.9411 35 36 27.165 36 17.5C36 7.83502 27.9411 0 18 0C8.05887 0 0 7.83502 0 17.5C0 27.165 8.05887 35 18 35Z" fill="white"/>
<path d="M22.4869 17.8695H19.9985V25.8521H16.3353V17.8695H14.5845V15.0601H16.3353V13.235C16.3353 11.9315 17.0263 9.88867 20.0459 9.88867L22.7767 9.90318V12.6409H20.7853C20.6791 12.6316 20.5721 12.6451 20.4719 12.6804C20.3717 12.7157 20.2807 12.772 20.2053 12.8453C20.1299 12.9186 20.072 13.0071 20.0357 13.1045C19.9993 13.2019 19.9854 13.3059 19.995 13.4092V15.0601H22.7907L22.4869 17.8695Z" fill="#00B7D2"/>
</svg>
