<svg width="35" height="35" viewBox="0 0 35 35" fill="none" xmlns="http://www.w3.org/2000/svg">
<path d="M17.5 35C27.165 35 35 27.165 35 17.5C35 7.83502 27.165 0 17.5 0C7.83502 0 0 7.83502 0 17.5C0 27.165 7.83502 35 17.5 35Z" fill="white"/>
<path fill-rule="evenodd" clip-rule="evenodd" d="M21.6231 7.89307H13.7251C12.2589 7.89307 10.8527 8.47551 9.81598 9.51227C8.77922 10.549 8.19678 11.9552 8.19678 13.4214V21.3194C8.19768 22.785 8.78053 24.1903 9.81718 25.2263C10.8538 26.2623 12.2595 26.8443 13.7251 26.8443H21.6231C23.0881 26.8434 24.4929 26.261 25.5288 25.2251C26.5647 24.1892 27.1471 22.7844 27.148 21.3194V13.4214C27.148 11.9558 26.566 10.5501 25.53 9.51347C24.494 8.47681 23.0887 7.89397 21.6231 7.89307V7.89307ZM24.8901 12.2561C24.6588 11.57 24.2138 10.976 23.6204 10.5612C23.0269 10.1464 22.3162 9.93265 21.5924 9.95124H13.7123C13.3113 9.94489 12.9119 10.004 12.5299 10.1262C11.8469 10.3516 11.2549 10.7915 10.8421 11.3804C10.4292 11.9694 10.2176 12.676 10.2387 13.3949C10.2293 15.156 10.2319 16.9239 10.2387 18.6876C10.2387 19.5697 10.2387 20.4518 10.2387 21.3339C10.2232 21.8855 10.3459 22.4322 10.5956 22.9242C10.8454 23.4162 11.2142 23.8379 11.6686 24.151C12.2672 24.5797 12.99 24.8002 13.7259 24.7784H21.5617C21.9722 24.7859 22.3813 24.7268 22.773 24.6034C23.4577 24.3716 24.0498 23.926 24.4623 23.3324C24.8748 22.7387 25.0858 22.0283 25.0642 21.3057V13.4418C25.0879 13.0389 25.0286 12.6353 24.8901 12.2561V12.2561ZM17.6519 22.0032C16.7341 22.0032 15.8369 21.731 15.0738 21.2211C14.3107 20.7112 13.7159 19.9865 13.3646 19.1385C13.0134 18.2906 12.9215 17.3576 13.1006 16.4574C13.2796 15.5572 13.7216 14.7304 14.3706 14.0814C15.0196 13.4324 15.8464 12.9904 16.7466 12.8114C17.6468 12.6323 18.5798 12.7242 19.4277 13.0754C20.2757 13.4267 21.0004 14.0215 21.5103 14.7846C22.0202 15.5477 22.2924 16.4449 22.2924 17.3627C22.2868 18.5917 21.7961 19.7688 20.927 20.6378C20.058 21.5069 18.8809 21.9976 17.6519 22.0032ZM22.5118 13.6979C22.2795 13.6995 22.0519 13.6321 21.8579 13.5042C21.6639 13.3764 21.5122 13.194 21.4219 12.9799C21.3316 12.7659 21.3067 12.5299 21.3506 12.3017C21.3944 12.0736 21.5049 11.8635 21.6681 11.6982C21.8313 11.5328 22.0399 11.4196 22.2674 11.3728C22.495 11.326 22.7313 11.3477 22.9465 11.4352C23.1617 11.5227 23.3462 11.672 23.4765 11.8644C23.6068 12.0567 23.6772 12.2833 23.6787 12.5156C23.6799 12.6699 23.6505 12.8229 23.5925 12.9659C23.5344 13.1088 23.4488 13.2389 23.3404 13.3487C23.232 13.4585 23.103 13.5459 22.9608 13.6058C22.8187 13.6657 22.6661 13.6971 22.5118 13.6979V13.6979ZM14.618 17.3456C14.6195 16.7445 14.799 16.1574 15.1339 15.6582C15.4688 15.1591 15.9441 14.7703 16.4997 14.541C17.0553 14.3117 17.6664 14.2521 18.2559 14.3697C18.8453 14.4874 19.3867 14.777 19.8118 15.202C20.2368 15.627 20.5264 16.1684 20.644 16.7579C20.7617 17.3473 20.7021 17.9584 20.4727 18.5141C20.2434 19.0697 19.8547 19.5449 19.3555 19.8798C18.8564 20.2147 18.2692 20.3942 17.6681 20.3957C17.2676 20.3964 16.8709 20.3181 16.5007 20.1652C16.1305 20.0123 15.7941 19.7879 15.5108 19.5048C15.2274 19.2217 15.0027 18.8855 14.8495 18.5154C14.6963 18.1454 14.6177 17.7487 14.618 17.3482V17.3456Z" fill="#00B7D2"/>
</svg>
