<svg width="36" height="35" viewBox="0 0 36 35" fill="none" xmlns="http://www.w3.org/2000/svg">
<path d="M18 35C27.9411 35 36 27.165 36 17.5C36 7.83502 27.9411 0 18 0C8.05887 0 0 7.83502 0 17.5C0 27.165 8.05887 35 18 35Z" fill="white"/>
<path fill-rule="evenodd" clip-rule="evenodd" d="M13.5441 10.8429C13.6499 10.4915 13.6681 10.1205 13.5971 9.76091C13.526 9.40128 13.3679 9.06327 13.1357 8.7749C12.9036 8.48652 12.6041 8.25608 12.2621 8.10266C11.9201 7.94924 11.5454 7.87726 11.169 7.89268C10.5629 7.86258 9.96774 8.05752 9.50393 8.43803C9.04012 8.81853 8.74236 9.35617 8.67093 9.94209C8.59951 10.528 8.75975 11.1184 9.11923 11.5938C9.47871 12.0692 10.0105 12.394 10.6071 12.5024C11.2225 12.6517 11.8735 12.5619 12.4219 12.2521C12.9703 11.9422 13.3729 11.4367 13.5441 10.8429V10.8429ZM20.1444 16.209C20.1822 16.1706 20.2068 16.1424 20.2261 16.1237C20.2431 16.1003 20.2646 16.0803 20.2893 16.0648C20.7692 15.3006 21.4854 14.7035 22.3355 14.359C23.1855 14.0145 24.1259 13.9401 25.022 14.1466C27.2522 14.4966 28.6852 16.0827 29.0479 18.5173C29.1354 19.0913 29.1779 19.6709 29.1752 20.2511V27.4987C29.1752 27.7752 29.1023 27.8487 28.831 27.8487C27.5798 27.8299 26.347 27.8299 25.0949 27.8487C24.8227 27.8487 24.7507 27.7752 24.7507 27.4987C24.763 25.9979 24.7586 24.4895 24.7507 22.9837C24.7507 22.2319 24.7507 21.4809 24.7507 20.7308C24.763 20.2211 24.7019 19.7122 24.5689 19.219C24.4921 18.8638 24.3198 18.5347 24.0696 18.2653C23.8194 17.9958 23.5003 17.7956 23.1446 17.685C22.789 17.5744 22.4096 17.5574 22.045 17.6356C21.6804 17.7139 21.3437 17.8847 21.069 18.1306C20.7458 18.4028 20.4922 18.7445 20.3285 19.1286C20.1648 19.5127 20.0955 19.9286 20.126 20.3433C20.1383 21.7578 20.1339 23.1809 20.126 24.6005C20.126 25.3096 20.126 26.0173 20.126 26.7235C20.126 26.8157 20.126 26.9079 20.126 27.0001C20.126 27.1845 20.1181 27.3689 20.126 27.5533C20.1444 27.7932 20.0531 27.8487 19.8362 27.8487C19.413 27.8487 18.9898 27.8487 18.5666 27.8487C17.7201 27.8487 16.8746 27.8401 16.0281 27.8487C15.792 27.8487 15.72 27.8119 15.72 27.5533C15.7293 26.5943 15.7355 25.6354 15.7384 24.6765C15.7413 23.7175 15.7475 22.7586 15.7568 21.7996C15.7568 19.4393 15.7568 17.0789 15.7384 14.7143C15.7384 14.4582 15.7928 14.3822 16.0466 14.3822C17.3162 14.4004 18.5856 14.4004 19.8547 14.3822C20.09 14.3822 20.1444 14.4556 20.1444 14.6776V16.209ZM13.3264 21.1141V27.4944C13.3264 27.7505 13.272 27.8444 12.9998 27.8444C11.7485 27.8256 10.4789 27.8256 9.22415 27.8444C8.98883 27.8444 8.91595 27.7889 8.91595 27.5311V14.6605C8.91595 14.4394 8.97039 14.3651 9.20571 14.3651C10.4929 14.3839 11.7626 14.3839 13.0498 14.3651C13.3036 14.3651 13.3396 14.4573 13.3396 14.6784C13.3211 16.8356 13.3211 18.9749 13.3211 21.1141H13.3264Z" fill="#00B7D2"/>
</svg>
