<svg width="35" height="35" viewBox="0 0 35 35" fill="none" xmlns="http://www.w3.org/2000/svg">
<path d="M17.5 35C27.165 35 35 27.165 35 17.5C35 7.83502 27.165 0 17.5 0C7.83502 0 0 7.83502 0 17.5C0 27.165 7.83502 35 17.5 35Z" fill="white"/>
<path d="M9.13651 11.7721C9.15473 11.6307 9.13856 11.4871 9.08937 11.3533C9.04017 11.2196 8.95941 11.0997 8.85394 11.0038L6.7198 8.30111V7.89307H13.3783L18.5148 19.6232L23.0272 7.89307H29.3639V8.2977L27.5286 10.1177C27.4522 10.1824 27.3929 10.2649 27.356 10.358C27.3191 10.451 27.3056 10.5518 27.3169 10.6512V24.0904C27.3016 24.1901 27.3131 24.2921 27.3503 24.3859C27.3875 24.4797 27.4491 24.5618 27.5286 24.6239L29.311 26.4439V26.8443H20.3271V26.4397L22.1804 24.5616C22.3571 24.3781 22.3571 24.3226 22.3571 24.0281V13.1857L17.2027 26.811H16.5147L10.516 13.1857V22.3199C10.4892 22.5086 10.5055 22.701 10.5636 22.8825C10.6217 23.064 10.7201 23.2301 10.8515 23.3682L13.2477 26.4251V26.8298H6.41846V26.4251L8.81894 23.3733C8.94784 23.2341 9.0434 23.0673 9.09841 22.8857C9.15343 22.7041 9.16645 22.5124 9.13651 22.325V11.7721Z" fill="#00B7D2"/>
</svg>
