<svg width="36" height="35" viewBox="0 0 36 35" fill="none" xmlns="http://www.w3.org/2000/svg">
<path d="M18 35C27.9411 35 36 27.165 36 17.5C36 7.83502 27.9411 0 18 0C8.05887 0 0 7.83502 0 17.5C0 27.165 8.05887 35 18 35Z" fill="white"/>
<path d="M25.8251 13.2342C25.8251 13.3998 25.8444 13.5842 25.8444 13.7464C25.8438 15.2653 25.5325 16.7689 24.9287 18.1698C24.3249 19.5707 23.4407 20.8409 22.3274 21.9066C21.214 22.9722 19.8939 23.812 18.4437 24.3771C16.9935 24.9422 15.4423 25.2213 13.8801 25.1982C11.6005 25.2016 9.36659 24.5771 7.43701 23.397C9.66006 23.6469 11.8959 23.0459 13.6712 21.7212C12.7987 21.7106 11.9514 21.4352 11.2479 20.9335C10.5443 20.4318 10.0196 19.7288 9.74716 18.9229C10.3797 19.037 11.0304 19.012 11.6516 18.8495C10.6999 18.6836 9.83806 18.1986 9.21609 17.4788C8.59413 16.759 8.25137 15.85 8.24745 14.9099V14.8544C8.83184 15.1668 9.48521 15.3372 10.1519 15.3512C9.579 14.9873 9.10818 14.4904 8.78185 13.9055C8.45553 13.3206 8.28395 12.666 8.28257 12.0006C8.28211 11.2873 8.48155 10.5872 8.85945 9.97575C9.92428 11.2263 11.2457 12.2472 12.7393 12.9731C14.2329 13.6991 15.8658 14.1142 17.5337 14.192C17.4565 13.891 17.4178 13.5819 17.4187 13.2717C17.4228 12.7379 17.5351 12.21 17.7492 11.7184C17.9633 11.2267 18.275 10.781 18.6664 10.4065C19.0579 10.0321 19.5214 9.73629 20.0304 9.53612C20.5395 9.33594 21.0842 9.23528 21.6333 9.2399C22.2071 9.23979 22.775 9.35223 23.3031 9.57049C23.8311 9.78875 24.3084 10.1083 24.7065 10.5101C25.6486 10.3329 26.5533 10.0028 27.3828 9.53356C27.0688 10.4703 26.4129 11.2629 25.5389 11.7616C26.3728 11.6642 27.1885 11.4536 27.9623 11.1359C27.3799 11.95 26.6568 12.66 25.8251 13.2342V13.2342Z" fill="#00B7D2"/>
</svg>
