<svg width="36" height="35" viewBox="0 0 36 35" fill="none" xmlns="http://www.w3.org/2000/svg">
<path d="M18 35C27.9411 35 36 27.165 36 17.5C36 7.83502 27.9411 0 18 0C8.05887 0 0 7.83502 0 17.5C0 27.165 8.05887 35 18 35Z" fill="white"/>
<path fill-rule="evenodd" clip-rule="evenodd" d="M26.4818 25.1418C27.4188 25.1403 28.317 24.7777 28.9796 24.1335C29.6422 23.4893 30.0152 22.616 30.0168 21.705H30.0361V13.3255C30.0345 12.4145 29.6615 11.5412 28.9989 10.897C28.3363 10.2529 27.4381 9.89025 26.5011 9.88867H8.75133C7.81429 9.89025 6.91608 10.2529 6.25349 10.897C5.59089 11.5412 5.21793 12.4145 5.21631 13.3255V21.7059C5.21793 22.6169 5.59089 23.4901 6.25349 24.1343C6.91608 24.7785 7.81429 25.1411 8.75133 25.1427L26.4818 25.1418ZM20.6032 17.4589L15.5984 14.9048C15.5862 14.8969 15.572 14.8927 15.5575 14.8927C15.5429 14.8928 15.5287 14.8969 15.5166 14.9048C15.5045 14.9126 15.495 14.9238 15.4894 14.9369C15.4838 14.9499 15.4823 14.9643 15.4851 14.9782L15.5228 20.0506C15.5228 20.0657 15.527 20.0805 15.5347 20.0935C15.5425 20.1065 15.5537 20.1173 15.5672 20.1248C15.5807 20.1322 15.5959 20.1361 15.6114 20.136C15.6269 20.1358 15.6421 20.1317 15.6554 20.124L20.6076 17.6066C20.6603 17.5887 20.6603 17.4973 20.6032 17.4606V17.4589Z" fill="#00B7D2"/>
</svg>
